Jonova-BoldItalic.ufo
<glyph name="exclam" format="2">
  <advance width="736"/>
  <unicode hex="0021"/>
  <outline>
    <contour>
      <point x="463" y="375" type="line"/>
      <point x="549" y="1434" type="line"/>
      <point x="585" y="1464" type="line"/>
      <point x="877" y="1464" type="line"/>
      <point x="901" y="1434" type="line"/>
      <point x="615" y="375" type="line"/>
    </contour>
    <contour>
      <point x="639" y="116" type="qcurve"/>
      <point x="639" y="86"/>
      <point x="616" y="32"/>
      <point x="577" y="-7"/>
      <point x="523" y="-30"/>
      <point x="493" y="-30" type="qcurve"/>
      <point x="463" y="-30"/>
      <point x="409" y="-7"/>
      <point x="370" y="32"/>
      <point x="347" y="86"/>
      <point x="347" y="116" type="qcurve"/>
      <point x="347" y="146"/>
      <point x="370" y="200"/>
      <point x="409" y="239"/>
      <point x="463" y="262"/>
      <point x="493" y="262" type="qcurve"/>
      <point x="523" y="262"/>
      <point x="577" y="239"/>
      <point x="616" y="200"/>
      <point x="639" y="146"/>
    </contour>
  </outline>
</glyph>
<glyph name="quotedbl" format="2">
  <advance width="736"/>
  <unicode hex="0022"/>
  <guideline x="0" y="854" angle="0"/>
  <guideline x="0" y="953" angle="0"/>
  <guideline x="245" y="0" angle="90"/>
  <guideline x="166" y="0" angle="90"/>
  <outline>
    <contour>
      <point x="263" y="901" type="line" name="hr00"/>
      <point x="297" y="1434" type="line"/>
      <point x="333" y="1464" type="line"/>
      <point x="535" y="1464" type="line"/>
      <point x="559" y="1434" type="line"/>
      <point x="405" y="901" type="line"/>
    </contour>
    <contour>
      <point x="647" y="901" type="line"/>
      <point x="681" y="1434" type="line"/>
      <point x="717" y="1464" type="line"/>
      <point x="919" y="1464" type="line"/>
      <point x="943" y="1434" type="line"/>
      <point x="789" y="901" type="line"/>
    </contour>
  </outline>
</glyph>
<glyph name="numbersign" format="2">
  <advance width="1120"/>
  <unicode hex="0023"/>
  <guideline x="0" y="431" angle="0"/>
  <guideline x="0" y="1136" angle="0"/>
  <guideline x="304" y="0" angle="70"/>
  <guideline x="1055" y="0" angle="70"/>
  <guideline x="557" y="0" angle="70"/>
  <guideline x="711" y="0" angle="70"/>
  <guideline x="-46" y="0" angle="70"/>
  <guideline x="911" y="0" angle="70"/>
  <guideline x="154" y="0" angle="70"/>
  <outline>
    <contour>
      <point x="319" y="1004" type="line" name="hr00"/>
      <point x="519" y="1004" type="line"/>
      <point x="687" y="1464" type="line"/>
      <point x="826" y="1434" type="line"/>
      <point x="669" y="1004" type="line"/>
      <point x="923" y="1004" type="line"/>
      <point x="1090" y="1464" type="line"/>
      <point x="1233" y="1434" type="line"/>
      <point x="1077" y="1004" type="line"/>
      <point x="1277" y="1004" type="line"/>
      <point x="1221" y="852" type="line"/>
      <point x="1021" y="852" type="line"/>
      <point x="923" y="583" type="line"/>
      <point x="1123" y="583" type="line"/>
      <point x="1068" y="431" type="line"/>
      <point x="868" y="431" type="line"/>
      <point x="700" y="-30" type="line"/>
      <point x="557" y="0" type="line"/>
      <point x="714" y="431" type="line"/>
      <point x="461" y="431" type="line"/>
      <point x="293" y="-30" type="line"/>
      <point x="154" y="0" type="line"/>
      <point x="311" y="431" type="line"/>
      <point x="111" y="431" type="line"/>
      <point x="166" y="583" type="line"/>
      <point x="366" y="583" type="line"/>
      <point x="464" y="852" type="line"/>
      <point x="264" y="852" type="line"/>
    </contour>
    <contour>
      <point x="516" y="583" type="line"/>
      <point x="769" y="583" type="line"/>
      <point x="867" y="852" type="line"/>
      <point x="614" y="852" type="line"/>
    </contour>
  </outline>
</glyph>
<glyph name="ampersand" format="2">
  <advance width="1248"/>
  <unicode hex="0026"/>
  <guideline x="896" y="0" angle="120"/>
  <guideline x="1198" y="0" angle="90"/>
  <outline>
    <contour>
      <point x="748" y="1191" type="qcurve" name="hr00"/>
      <point x="748" y="1159"/>
      <point x="760" y="1093"/>
      <point x="780" y="1034"/>
      <point x="803" y="987"/>
      <point x="814" y="974" type="qcurve"/>
      <point x="850" y="993"/>
      <point x="914" y="1039"/>
      <point x="963" y="1095"/>
      <point x="992" y="1162"/>
      <point x="992" y="1203" type="qcurve"/>
      <point x="992" y="1228"/>
      <point x="975" y="1272"/>
      <point x="945" y="1304"/>
      <point x="901" y="1322"/>
      <point x="874" y="1322" type="qcurve"/>
      <point x="847" y="1322"/>
      <point x="800" y="1301"/>
      <point x="767" y="1265"/>
      <point x="748" y="1217"/>
    </contour>
    <contour>
      <point x="615" y="709" type="line"/>
      <point x="561" y="676"/>
      <point x="476" y="583"/>
      <point x="417" y="475"/>
      <point x="386" y="356"/>
      <point x="386" y="298" type="qcurve"/>
      <point x="386" y="238"/>
      <point x="422" y="156"/>
      <point x="476" y="105"/>
      <point x="540" y="82"/>
      <point x="569" y="82" type="qcurve"/>
      <point x="605" y="82"/>
      <point x="677" y="97"/>
      <point x="744" y="123"/>
      <point x="803" y="156"/>
      <point x="826" y="174" type="qcurve"/>
    </contour>
    <contour>
      <point x="909" y="-30" type="line"/>
      <point x="864" y="82" type="line"/>
      <point x="828" y="60"/>
      <point x="751" y="19"/>
      <point x="669" y="-12"/>
      <point x="577" y="-30"/>
      <point x="526" y="-30" type="qcurve"/>
      <point x="432" y="-30"/>
      <point x="286" y="17"/>
      <point x="186" y="103"/>
      <point x="134" y="225"/>
      <point x="134" y="301" type="qcurve"/>
      <point x="134" y="398"/>
      <point x="211" y="563"/>
      <point x="332" y="701"/>
      <point x="483" y="812"/>
      <point x="558" y="855" type="qcurve"/>
      <point x="535" y="906"/>
      <point x="496" y="1025"/>
      <point x="496" y="1091" type="qcurve"/>
      <point x="496" y="1170"/>
      <point x="568" y="1297"/>
      <point x="683" y="1386"/>
      <point x="825" y="1434"/>
      <point x="895" y="1434" type="qcurve"/>
      <point x="967" y="1434"/>
      <point x="1073" y="1396"/>
      <point x="1141" y="1333"/>
      <point x="1174" y="1253"/>
      <point x="1174" y="1210" type="qcurve"/>
      <point x="1174" y="1146"/>
      <point x="1114" y="1034"/>
      <point x="1024" y="939"/>
      <point x="916" y="863"/>
      <point x="868" y="835" type="qcurve"/>
      <point x="1035" y="396" type="line"/>
      <point x="1050" y="413"/>
      <point x="1083" y="464"/>
      <point x="1113" y="520"/>
      <point x="1138" y="576"/>
      <point x="1145" y="599" type="qcurve"/>
      <point x="1298" y="569" type="line"/>
      <point x="1282" y="537"/>
      <point x="1233" y="456"/>
      <point x="1177" y="374"/>
      <point x="1116" y="297"/>
      <point x="1088" y="269" type="qcurve"/>
      <point x="1198" y="0" type="line"/>
    </contour>
  </outline>
</glyph>
<glyph name="quotesingle" format="2">
  <advance width="576"/>
  <unicode hex="0027"/>
  <outline>
    <contour>
      <point x="375" y="901" type="line"/>
      <point x="409" y="1434" type="line"/>
      <point x="445" y="1464" type="line"/>
      <point x="647" y="1464" type="line"/>
      <point x="671" y="1434" type="line"/>
      <point x="517" y="901" type="line"/>
    </contour>
  </outline>
</glyph>
<glyph name="parenleft" format="2">
  <advance width="736"/>
  <unicode hex="0028"/>
  <outline>
    <contour>
      <point x="896" y="1464" type="line"/>
      <point x="765" y="1359"/>
      <point x="580" y="1078"/>
      <point x="462" y="763"/>
      <point x="407" y="434"/>
      <point x="407" y="280" type="qcurve"/>
      <point x="407" y="196"/>
      <point x="426" y="39"/>
      <point x="469" y="-103"/>
      <point x="538" y="-227"/>
      <point x="588" y="-278" type="qcurve"/>
      <point x="569" y="-384" type="line"/>
      <point x="483" y="-321"/>
      <point x="344" y="-168"/>
      <point x="247" y="12"/>
      <point x="195" y="220"/>
      <point x="195" y="339" type="qcurve"/>
      <point x="195" y="534"/>
      <point x="299" y="901"/>
      <point x="488" y="1222"/>
      <point x="753" y="1482"/>
      <point x="915" y="1570" type="qcurve"/>
    </contour>
  </outline>
</glyph>
<glyph name="parenright" format="2">
  <advance width="736"/>
  <unicode hex="0029"/>
  <guideline x="99" y="0" angle="80"/>
  <outline>
    <contour>
      <point x="376" y="1570" type="line" name="hr00"/>
      <point x="464" y="1505"/>
      <point x="602" y="1349"/>
      <point x="697" y="1164"/>
      <point x="747" y="950"/>
      <point x="747" y="828" type="qcurve"/>
      <point x="747" y="633"/>
      <point x="643" y="271"/>
      <point x="454" y="-42"/>
      <point x="191" y="-297"/>
      <point x="31" y="-384" type="qcurve"/>
      <point x="49" y="-278" type="line"/>
      <point x="136" y="-209"/>
      <point x="276" y="-40"/>
      <point x="384" y="151"/>
      <point x="462" y="358"/>
      <point x="511" y="571"/>
      <point x="535" y="785"/>
      <point x="535" y="887" type="qcurve"/>
      <point x="535" y="970"/>
      <point x="517" y="1133"/>
      <point x="475" y="1282"/>
      <point x="407" y="1413"/>
      <point x="357" y="1464" type="qcurve"/>
    </contour>
  </outline>
</glyph>
<glyph name="asterisk" format="2">
  <advance width="1024"/>
  <unicode hex="002A"/>
  <outline>
    <contour>
      <point x="338" y="1321" type="line"/>
      <point x="440" y="1500" type="line"/>
      <point x="674" y="1295" type="line"/>
      <point x="682" y="1298" type="line"/>
      <point x="619" y="1606" type="line"/>
      <point x="824" y="1606" type="line"/>
      <point x="763" y="1299" type="line"/>
      <point x="770" y="1295" type="line"/>
      <point x="1006" y="1501" type="line"/>
      <point x="1108" y="1326" type="line"/>
      <point x="811" y="1225" type="line"/>
      <point x="811" y="1216" type="line"/>
      <point x="1106" y="1118" type="line"/>
      <point x="1005" y="941" type="line"/>
      <point x="771" y="1146" type="line"/>
      <point x="763" y="1143" type="line"/>
      <point x="826" y="835" type="line"/>
      <point x="621" y="835" type="line"/>
      <point x="683" y="1143" type="line"/>
      <point x="676" y="1147" type="line"/>
      <point x="441" y="938" type="line"/>
      <point x="338" y="1113" type="line"/>
      <point x="635" y="1217" type="line"/>
      <point x="635" y="1225" type="line"/>
    </contour>
    <contour>
      <point x="671" y="1221" type="qcurve"/>
      <point x="671" y="1200"/>
      <point x="701" y="1170"/>
      <point x="722" y="1170" type="qcurve"/>
      <point x="744" y="1170"/>
      <point x="774" y="1200"/>
      <point x="774" y="1221" type="qcurve"/>
      <point x="774" y="1243"/>
      <point x="744" y="1273"/>
      <point x="722" y="1273" type="qcurve"/>
      <point x="701" y="1273"/>
      <point x="671" y="1243"/>
    </contour>
  </outline>
</glyph>
<glyph name="plus" format="2">
  <advance width="1152"/>
  <unicode hex="002B"/>
  <outline>
    <contour>
      <point x="157" y="381" type="line"/>
      <point x="194" y="593" type="line"/>
      <point x="574" y="593" type="line"/>
      <point x="641" y="974" type="line"/>
      <point x="853" y="974" type="line"/>
      <point x="786" y="593" type="line"/>
      <point x="1166" y="593" type="line"/>
      <point x="1129" y="381" type="line"/>
      <point x="749" y="381" type="line"/>
      <point x="682" y="0" type="line"/>
      <point x="470" y="0" type="line"/>
      <point x="537" y="381" type="line"/>
    </contour>
  </outline>
</glyph>
<glyph name="comma" format="2">
  <advance width="576"/>
  <unicode hex="002C"/>
  <guideline x="0" y="-266" angle="0"/>
  <guideline x="-792" y="0" angle="125"/>
  <outline>
    <contour>
      <point x="184" y="154" type="line" name="hr00"/>
      <point x="385" y="325" type="line"/>
      <point x="412" y="325" type="line"/>
      <point x="429" y="297"/>
      <point x="461" y="196"/>
      <point x="461" y="121" type="qcurve"/>
      <point x="461" y="25"/>
      <point x="397" y="-145"/>
      <point x="289" y="-290"/>
      <point x="150" y="-412"/>
      <point x="75" y="-460" type="qcurve"/>
      <point x="0" y="-367" type="line"/>
      <point x="45" y="-331"/>
      <point x="128" y="-254"/>
      <point x="191" y="-169"/>
      <point x="229" y="-74"/>
      <point x="229" y="-19" type="qcurve"/>
      <point x="229" y="29"/>
      <point x="199" y="99"/>
      <point x="179" y="128" type="qcurve"/>
    </contour>
  </outline>
</glyph>
<glyph name="hyphen" format="2">
  <advance width="736"/>
  <unicode hex="002D"/>
  <outline>
    <contour>
      <point x="166" y="593" type="line"/>
      <point x="778" y="593" type="line"/>
      <point x="741" y="381" type="line"/>
      <point x="129" y="381" type="line"/>
    </contour>
  </outline>
</glyph>
<glyph name="period" format="2">
  <advance width="576"/>
  <unicode hex="002E"/>
  <outline>
    <contour>
      <point x="473" y="131" type="qcurve"/>
      <point x="473" y="98"/>
      <point x="448" y="39"/>
      <point x="404" y="-5"/>
      <point x="345" y="-30"/>
      <point x="312" y="-30" type="qcurve"/>
      <point x="279" y="-30"/>
      <point x="220" y="-5"/>
      <point x="176" y="39"/>
      <point x="151" y="98"/>
      <point x="151" y="131" type="qcurve"/>
      <point x="151" y="164"/>
      <point x="176" y="223"/>
      <point x="220" y="267"/>
      <point x="279" y="292"/>
      <point x="312" y="292" type="qcurve"/>
      <point x="345" y="292"/>
      <point x="404" y="267"/>
      <point x="448" y="223"/>
      <point x="473" y="164"/>
    </contour>
  </outline>
</glyph>
<glyph name="slash" format="2">
  <advance width="576"/>
  <unicode hex="002F"/>
  <outline>
    <contour>
      <point x="937" y="1556" type="line"/>
      <point x="143" y="-152" type="line"/>
      <point x="-56" y="-122" type="line"/>
      <point x="737" y="1586" type="line"/>
    </contour>
  </outline>
</glyph>
<glyph name="zero" format="2">
  <advance width="1120"/>
  <unicode hex="0030"/>
  <outline>
    <contour>
      <point x="786" y="1342" type="qcurve"/>
      <point x="747" y="1342"/>
      <point x="676" y="1279"/>
      <point x="613" y="1171"/>
      <point x="560" y="1027"/>
      <point x="516" y="863"/>
      <point x="481" y="688"/>
      <point x="458" y="520"/>
      <point x="446" y="366"/>
      <point x="446" y="306" type="qcurve"/>
      <point x="446" y="195"/>
      <point x="498" y="92"/>
      <point x="566" y="92" type="qcurve"/>
      <point x="605" y="92"/>
      <point x="676" y="154"/>
      <point x="739" y="262"/>
      <point x="793" y="407"/>
      <point x="837" y="570"/>
      <point x="871" y="745"/>
      <point x="894" y="914"/>
      <point x="906" y="1067"/>
      <point x="906" y="1128" type="qcurve"/>
      <point x="906" y="1240"/>
      <point x="855" y="1342"/>
    </contour>
    <contour>
      <point x="808" y="1464" type="qcurve"/>
      <point x="996" y="1464"/>
      <point x="1188" y="1232"/>
      <point x="1188" y="997" type="qcurve"/>
      <point x="1188" y="865"/>
      <point x="1148" y="611"/>
      <point x="1070" y="382"/>
      <point x="959" y="189"/>
      <point x="815" y="49"/>
      <point x="643" y="-30"/>
      <point x="544" y="-30" type="qcurve"/>
      <point x="356" y="-30"/>
      <point x="164" y="203"/>
      <point x="164" y="439" type="qcurve"/>
      <point x="164" y="571"/>
      <point x="204" y="825"/>
      <point x="282" y="1053"/>
      <point x="393" y="1245"/>
      <point x="537" y="1385"/>
      <point x="709" y="1464"/>
    </contour>
  </outline>
</glyph>
<glyph name="one" format="2">
  <advance width="1120"/>
  <unicode hex="0031"/>
  <outline>
    <contour>
      <point x="996" y="1464" type="line"/>
      <point x="738" y="0" type="line"/>
      <point x="456" y="0" type="line"/>
      <point x="666" y="1196" type="line"/>
      <point x="382" y="1152" type="line"/>
      <point x="382" y="1265" type="line"/>
      <point x="936" y="1464" type="line"/>
    </contour>
  </outline>
</glyph>
<glyph name="two" format="2">
  <advance width="1120"/>
  <unicode hex="0032"/>
  <outline>
    <contour>
      <point x="340" y="1265" type="line"/>
      <point x="444" y="1360"/>
      <point x="665" y="1464"/>
      <point x="792" y="1464" type="qcurve"/>
      <point x="873" y="1464"/>
      <point x="1021" y="1422"/>
      <point x="1134" y="1337"/>
      <point x="1201" y="1209"/>
      <point x="1201" y="1124" type="qcurve"/>
      <point x="1201" y="1041"/>
      <point x="1171" y="910"/>
      <point x="1102" y="787"/>
      <point x="990" y="659"/>
      <point x="824" y="500"/>
      <point x="600" y="298"/>
      <point x="454" y="162" type="qcurve"/>
      <point x="1075" y="202" type="line"/>
      <point x="1038" y="0" type="line"/>
      <point x="97" y="0" type="line"/>
      <point x="107" y="59" type="line"/>
      <point x="284" y="229"/>
      <point x="542" y="486"/>
      <point x="722" y="684"/>
      <point x="835" y="835"/>
      <point x="897" y="961"/>
      <point x="919" y="1074"/>
      <point x="919" y="1136" type="qcurve"/>
      <point x="919" y="1178"/>
      <point x="896" y="1253"/>
      <point x="852" y="1309"/>
      <point x="790" y="1342"/>
      <point x="750" y="1342" type="qcurve"/>
      <point x="582" y="1342"/>
      <point x="452" y="1153" type="qcurve"/>
    </contour>
  </outline>
</glyph>
<glyph name="three" format="2">
  <advance width="1120"/>
  <unicode hex="0033"/>
  <outline>
    <contour>
      <point x="229" y="282" type="line"/>
      <point x="248" y="253"/>
      <point x="301" y="187"/>
      <point x="370" y="130"/>
      <point x="457" y="92"/>
      <point x="511" y="92" type="qcurve"/>
      <point x="569" y="92"/>
      <point x="663" y="129"/>
      <point x="737" y="191"/>
      <point x="792" y="275"/>
      <point x="827" y="368"/>
      <point x="844" y="467"/>
      <point x="844" y="514" type="qcurve"/>
      <point x="844" y="632"/>
      <point x="725" y="760"/>
      <point x="622" y="760" type="qcurve"/>
      <point x="518" y="760" type="line"/>
      <point x="540" y="882" type="line"/>
      <point x="634" y="882" type="line"/>
      <point x="672" y="882"/>
      <point x="767" y="926"/>
      <point x="850" y="1006"/>
      <point x="906" y="1114"/>
      <point x="906" y="1179" type="qcurve"/>
      <point x="906" y="1224"/>
      <point x="877" y="1286"/>
      <point x="833" y="1325"/>
      <point x="780" y="1342"/>
      <point x="756" y="1342" type="qcurve"/>
      <point x="709" y="1342"/>
      <point x="633" y="1307"/>
      <point x="570" y="1252"/>
      <point x="520" y="1185"/>
      <point x="499" y="1153" type="qcurve"/>
      <point x="388" y="1265" type="line"/>
      <point x="415" y="1298"/>
      <point x="496" y="1368"/>
      <point x="601" y="1427"/>
      <point x="727" y="1464"/>
      <point x="799" y="1464" type="qcurve"/>
      <point x="880" y="1464"/>
      <point x="1012" y="1421"/>
      <point x="1106" y="1344"/>
      <point x="1158" y="1240"/>
      <point x="1158" y="1180" type="qcurve"/>
      <point x="1158" y="1117"/>
      <point x="1112" y="1010"/>
      <point x="1035" y="925"/>
      <point x="937" y="860"/>
      <point x="885" y="838" type="qcurve"/>
      <point x="923" y="822"/>
      <point x="1008" y="768"/>
      <point x="1079" y="686"/>
      <point x="1126" y="573"/>
      <point x="1126" y="499" type="qcurve"/>
      <point x="1126" y="416"/>
      <point x="1079" y="274"/>
      <point x="997" y="156"/>
      <point x="883" y="65"/>
      <point x="751" y="2"/>
      <point x="604" y="-30"/>
      <point x="529" y="-30" type="qcurve"/>
      <point x="452" y="-30"/>
      <point x="325" y="6"/>
      <point x="223" y="63"/>
      <point x="145" y="135"/>
      <point x="117" y="170" type="qcurve"/>
    </contour>
  </outline>
</glyph>
<glyph name="four" format="2">
  <advance width="1120"/>
  <unicode hex="0034"/>
  <outline>
    <contour>
      <point x="859" y="1434" type="line"/>
      <point x="1134" y="1391" type="line"/>
      <point x="400" y="472" type="line"/>
      <point x="693" y="488" type="line"/>
      <point x="727" y="686" type="line"/>
      <point x="959" y="740" type="line"/>
      <point x="1019" y="740" type="line"/>
      <point x="976" y="502" type="line"/>
      <point x="1127" y="510" type="line"/>
      <point x="1099" y="350" type="line"/>
      <point x="950" y="350" type="line"/>
      <point x="889" y="0" type="line"/>
      <point x="607" y="0" type="line"/>
      <point x="668" y="350" type="line"/>
      <point x="133" y="350" type="line"/>
      <point x="144" y="410" type="line"/>
    </contour>
  </outline>
</glyph>
<glyph name="five" format="2">
  <advance width="1120"/>
  <unicode hex="0035"/>
  <outline>
    <contour>
      <point x="309" y="760" type="line"/>
      <point x="427" y="1434" type="line"/>
      <point x="1134" y="1434" type="line"/>
      <point x="1099" y="1232" type="line"/>
      <point x="581" y="1272" type="line"/>
      <point x="514" y="893" type="line"/>
      <point x="527" y="899"/>
      <point x="568" y="910"/>
      <point x="615" y="919"/>
      <point x="661" y="925"/>
      <point x="679" y="925" type="qcurve"/>
      <point x="774" y="925"/>
      <point x="937" y="867"/>
      <point x="1057" y="762"/>
      <point x="1125" y="615"/>
      <point x="1125" y="527" type="qcurve"/>
      <point x="1125" y="400"/>
      <point x="1031" y="194"/>
      <point x="868" y="49"/>
      <point x="648" y="-30"/>
      <point x="522" y="-30" type="qcurve"/>
      <point x="445" y="-30"/>
      <point x="317" y="9"/>
      <point x="215" y="69"/>
      <point x="140" y="139"/>
      <point x="117" y="170" type="qcurve"/>
      <point x="230" y="282" type="line"/>
      <point x="251" y="251"/>
      <point x="305" y="184"/>
      <point x="374" y="128"/>
      <point x="460" y="92"/>
      <point x="513" y="92" type="qcurve"/>
      <point x="597" y="92"/>
      <point x="721" y="168"/>
      <point x="803" y="294"/>
      <point x="843" y="456"/>
      <point x="843" y="542" type="qcurve"/>
      <point x="843" y="608"/>
      <point x="808" y="706"/>
      <point x="753" y="771"/>
      <point x="683" y="803"/>
      <point x="647" y="803" type="qcurve"/>
      <point x="583" y="803"/>
      <point x="493" y="776"/>
      <point x="469" y="760" type="qcurve"/>
    </contour>
  </outline>
</glyph>
<glyph name="six" format="2">
  <advance width="1120"/>
  <unicode hex="0036"/>
  <outline>
    <contour>
      <point x="695" y="780" type="qcurve"/>
      <point x="655" y="780"/>
      <point x="583" y="739"/>
      <point x="521" y="669"/>
      <point x="472" y="577"/>
      <point x="437" y="476"/>
      <point x="418" y="371"/>
      <point x="418" y="324" type="qcurve"/>
      <point x="418" y="268"/>
      <point x="442" y="182"/>
      <point x="484" y="123"/>
      <point x="541" y="92"/>
      <point x="574" y="92" type="qcurve"/>
      <point x="627" y="92"/>
      <point x="724" y="175"/>
      <point x="798" y="309"/>
      <point x="842" y="476"/>
      <point x="842" y="560" type="qcurve"/>
      <point x="842" y="666"/>
      <point x="759" y="780"/>
    </contour>
    <contour>
      <point x="1151" y="1342" type="line"/>
      <point x="1035" y="1342"/>
      <point x="824" y="1263"/>
      <point x="651" y="1123"/>
      <point x="524" y="929"/>
      <point x="493" y="814" type="qcurve"/>
      <point x="551" y="856"/>
      <point x="677" y="902"/>
      <point x="737" y="902" type="qcurve"/>
      <point x="828" y="902"/>
      <point x="971" y="844"/>
      <point x="1071" y="742"/>
      <point x="1124" y="602"/>
      <point x="1124" y="521" type="qcurve"/>
      <point x="1124" y="408"/>
      <point x="1034" y="208"/>
      <point x="882" y="58"/>
      <point x="682" y="-30"/>
      <point x="572" y="-30" type="qcurve"/>
      <point x="489" y="-30"/>
      <point x="341" y="33"/>
      <point x="230" y="157"/>
      <point x="166" y="343"/>
      <point x="166" y="465" type="qcurve"/>
      <point x="166" y="584"/>
      <point x="223" y="825"/>
      <point x="337" y="1047"/>
      <point x="506" y="1240"/>
      <point x="730" y="1382"/>
      <point x="1008" y="1464"/>
      <point x="1173" y="1464" type="qcurve"/>
    </contour>
  </outline>
</glyph>
<glyph name="seven" format="2">
  <advance width="1120"/>
  <unicode hex="0037"/>
  <outline>
    <contour>
      <point x="1260" y="1434" type="line"/>
      <point x="1250" y="1375" type="line"/>
      <point x="438" y="-30" type="line"/>
      <point x="167" y="0" type="line"/>
      <point x="969" y="1272" type="line"/>
      <point x="314" y="1232" type="line"/>
      <point x="352" y="1434" type="line"/>
    </contour>
  </outline>
</glyph>
<glyph name="eight" format="2">
  <advance width="1120"/>
  <unicode hex="0038"/>
  <outline>
    <contour>
      <point x="597" y="1038" type="qcurve"/>
      <point x="597" y="963"/>
      <point x="653" y="872"/>
      <point x="713" y="872" type="qcurve"/>
      <point x="749" y="872"/>
      <point x="807" y="904"/>
      <point x="852" y="958"/>
      <point x="884" y="1026"/>
      <point x="905" y="1097"/>
      <point x="915" y="1166"/>
      <point x="915" y="1193" type="qcurve"/>
      <point x="915" y="1265"/>
      <point x="857" y="1342"/>
      <point x="796" y="1342" type="qcurve"/>
      <point x="740" y="1342"/>
      <point x="664" y="1279"/>
      <point x="617" y="1187"/>
      <point x="597" y="1081"/>
    </contour>
    <contour>
      <point x="421" y="300" type="qcurve"/>
      <point x="421" y="257"/>
      <point x="439" y="181"/>
      <point x="476" y="125"/>
      <point x="535" y="92"/>
      <point x="576" y="92" type="qcurve"/>
      <point x="622" y="92"/>
      <point x="698" y="134"/>
      <point x="758" y="205"/>
      <point x="803" y="298"/>
      <point x="833" y="399"/>
      <point x="848" y="501"/>
      <point x="848" y="546" type="qcurve"/>
      <point x="848" y="588"/>
      <point x="830" y="663"/>
      <point x="792" y="718"/>
      <point x="733" y="750"/>
      <point x="692" y="750" type="qcurve"/>
      <point x="646" y="750"/>
      <point x="570" y="708"/>
      <point x="509" y="638"/>
      <point x="465" y="546"/>
      <point x="435" y="446"/>
      <point x="421" y="345"/>
    </contour>
    <contour>
      <point x="448" y="828" type="qcurve"/>
      <point x="393" y="876"/>
      <point x="345" y="992"/>
      <point x="345" y="1056" type="qcurve"/>
      <point x="345" y="1148"/>
      <point x="430" y="1299"/>
      <point x="566" y="1406"/>
      <point x="735" y="1464"/>
      <point x="818" y="1464" type="qcurve"/>
      <point x="900" y="1464"/>
      <point x="1029" y="1416"/>
      <point x="1119" y="1335"/>
      <point x="1167" y="1230"/>
      <point x="1167" y="1172" type="qcurve"/>
      <point x="1167" y="1118"/>
      <point x="1133" y="1018"/>
      <point x="1076" y="930"/>
      <point x="1000" y="856"/>
      <point x="959" y="828" type="qcurve"/>
      <point x="1007" y="798"/>
      <point x="1073" y="731"/>
      <point x="1113" y="657"/>
      <point x="1130" y="576"/>
      <point x="1130" y="533" type="qcurve"/>
      <point x="1130" y="411"/>
      <point x="1038" y="205"/>
      <point x="881" y="55"/>
      <point x="672" y="-30"/>
      <point x="554" y="-30" type="qcurve"/>
      <point x="448" y="-30"/>
      <point x="292" y="32"/>
      <point x="189" y="135"/>
      <point x="139" y="269"/>
      <point x="139" y="342" type="qcurve"/>
      <point x="139" y="423"/>
      <point x="185" y="568"/>
      <point x="267" y="692"/>
      <point x="380" y="792"/>
    </contour>
  </outline>
</glyph>
<glyph name="less" format="2">
  <advance width="1152"/>
  <unicode hex="003C"/>
  <outline>
    <contour>
      <point x="1093" y="1004" type="line"/>
      <point x="1093" y="804" type="line"/>
      <point x="489" y="487" type="line"/>
      <point x="981" y="170" type="line"/>
      <point x="911" y="-30" type="line"/>
      <point x="188" y="436" type="line"/>
      <point x="206" y="538" type="line"/>
    </contour>
  </outline>
</glyph>
<glyph name="equal" format="2">
  <advance width="1152"/>
  <unicode hex="003D"/>
  <outline>
    <contour>
      <point x="216" y="805" type="line"/>
      <point x="1218" y="805" type="line"/>
      <point x="1181" y="593" type="line"/>
      <point x="179" y="593" type="line"/>
    </contour>
    <contour>
      <point x="142" y="381" type="line"/>
      <point x="1144" y="381" type="line"/>
      <point x="1106" y="169" type="line"/>
      <point x="104" y="169" type="line"/>
    </contour>
  </outline>
</glyph>
<glyph name="greater" format="2">
  <advance width="1152"/>
  <unicode hex="003E"/>
  <outline>
    <contour>
      <point x="415" y="1004" type="line"/>
      <point x="1136" y="538" type="line"/>
      <point x="1118" y="436" type="line"/>
      <point x="231" y="-30" type="line"/>
      <point x="231" y="170" type="line"/>
      <point x="835" y="487" type="line"/>
      <point x="343" y="804" type="line"/>
    </contour>
  </outline>
</glyph>
<glyph name="question" format="2">
  <advance width="1024"/>
  <unicode hex="003F"/>
  <outline>
    <contour>
      <point x="340" y="1265" type="line"/>
      <point x="403" y="1322"/>
      <point x="518" y="1399"/>
      <point x="630" y="1445"/>
      <point x="742" y="1464"/>
      <point x="802" y="1464" type="qcurve"/>
      <point x="876" y="1464"/>
      <point x="1000" y="1421"/>
      <point x="1089" y="1347"/>
      <point x="1139" y="1247"/>
      <point x="1139" y="1190" type="qcurve"/>
      <point x="1139" y="1110"/>
      <point x="1083" y="988"/>
      <point x="983" y="894"/>
      <point x="847" y="820"/>
      <point x="766" y="787" type="qcurve"/>
      <point x="724" y="770"/>
      <point x="653" y="730"/>
      <point x="600" y="681"/>
      <point x="570" y="622"/>
      <point x="570" y="586" type="qcurve"/>
      <point x="570" y="561"/>
      <point x="588" y="522"/>
      <point x="617" y="496"/>
      <point x="652" y="482"/>
      <point x="670" y="482" type="qcurve"/>
      <point x="650" y="370" type="line"/>
      <point x="593" y="370"/>
      <point x="506" y="408"/>
      <point x="447" y="470"/>
      <point x="418" y="548"/>
      <point x="418" y="589" type="qcurve"/>
      <point x="418" y="648"/>
      <point x="458" y="739"/>
      <point x="524" y="813"/>
      <point x="609" y="874"/>
      <point x="696" y="933"/>
      <point x="781" y="993"/>
      <point x="847" y="1066"/>
      <point x="887" y="1156"/>
      <point x="887" y="1214" type="qcurve"/>
      <point x="887" y="1275"/>
      <point x="810" y="1342"/>
      <point x="753" y="1342" type="qcurve"/>
      <point x="710" y="1342"/>
      <point x="633" y="1319"/>
      <point x="561" y="1273"/>
      <point x="490" y="1201"/>
      <point x="452" y="1153" type="qcurve"/>
    </contour>
    <contour>
      <point x="670" y="96" type="qcurve"/>
      <point x="670" y="70"/>
      <point x="650" y="24"/>
      <point x="616" y="-10"/>
      <point x="570" y="-30"/>
      <point x="544" y="-30" type="qcurve"/>
      <point x="518" y="-30"/>
      <point x="472" y="-10"/>
      <point x="438" y="24"/>
      <point x="418" y="70"/>
      <point x="418" y="96" type="qcurve"/>
      <point x="418" y="122"/>
      <point x="438" y="168"/>
      <point x="472" y="202"/>
      <point x="518" y="222"/>
      <point x="544" y="222" type="qcurve"/>
      <point x="570" y="222"/>
      <point x="616" y="202"/>
      <point x="650" y="168"/>
      <point x="670" y="122"/>
    </contour>
  </outline>
</glyph>
<glyph name="C" format="2">
  <advance width="1344"/>
  <unicode hex="0043"/>
  <guideline x="0" y="717" angle="0"/>
  <guideline x="797" y="0" angle="90"/>
  <guideline x="306" y="0" angle="45"/>
  <guideline x="1557" y="0" angle="135"/>
  <guideline x="1315" y="0" angle="90"/>
  <guideline x="1194" y="0" angle="90"/>
  <guideline x="1323" y="0" angle="80"/>
  <anchor x="772" y="0" name="AccentBelow"/>
  <anchor x="672" y="0" name="AccentCedilla"/>
  <anchor x="772" y="1600" name="AccentDefault"/>
  <anchor x="672" y="712" name="AccentMiddle"/>
  <outline>
    <contour>
      <point x="1541" y="1235" type="qcurve" name="ah01"/>
      <point x="1420" y="1113" type="line" name="av02"/>
      <point x="1363" y="1213"/>
      <point x="1168" y="1322"/>
      <point x="1029" y="1322" type="qcurve" name="sv01"/>
      <point x="957" y="1322"/>
      <point x="820" y="1263"/>
      <point x="698" y="1158"/>
      <point x="597" y="1012"/>
      <point x="524" y="838"/>
      <point x="483" y="641"/>
      <point x="483" y="537" type="qcurve" name="sh02"/>
      <point x="483" y="434"/>
      <point x="532" y="276"/>
      <point x="621" y="168"/>
      <point x="743" y="112"/>
      <point x="815" y="112" type="qcurve" name="sv02"/>
      <point x="876" y="112"/>
      <point x="987" y="133"/>
      <point x="1091" y="183"/>
      <point x="1188" y="262"/>
      <point x="1236" y="321" type="qcurve" name="av01"/>
      <point x="1358" y="199" type="line" name="sh03"/>
      <point x="1301" y="147"/>
      <point x="1180" y="62"/>
      <point x="1043" y="2"/>
      <point x="885" y="-30"/>
      <point x="790" y="-30" type="qcurve" name="ab01"/>
      <point x="665" y="-30"/>
      <point x="441" y="54"/>
      <point x="271" y="211"/>
      <point x="171" y="436"/>
      <point x="171" y="577" type="qcurve" name="sh01"/>
      <point x="171" y="695"/>
      <point x="238" y="918"/>
      <point x="357" y="1115"/>
      <point x="521" y="1279"/>
      <point x="717" y="1398"/>
      <point x="938" y="1464"/>
      <point x="1054" y="1464" type="qcurve" name="at01"/>
      <point x="1141" y="1464"/>
      <point x="1286" y="1430"/>
      <point x="1406" y="1369"/>
      <point x="1503" y="1285"/>
    </contour>
  </outline>
</glyph>
<glyph name="D" format="2">
  <advance width="1504"/>
  <unicode hex="0044"/>
  <anchor x="624" y="0" name="AccentBelow"/>
  <anchor x="452" y="0" name="AccentCedilla"/>
  <anchor x="672" y="1600" name="AccentDefault"/>
  <anchor x="772" y="712" name="AccentMiddle"/>
  <outline>
    <contour>
      <point x="384" y="1434" type="line" name="sh02"/>
      <point x="859" y="1434" type="line"/>
      <point x="1027" y="1434"/>
      <point x="1289" y="1358"/>
      <point x="1469" y="1213"/>
      <point x="1562" y="1003"/>
      <point x="1562" y="870" type="qcurve" name="sh03"/>
      <point x="1562" y="742"/>
      <point x="1489" y="513"/>
      <point x="1360" y="320"/>
      <point x="1182" y="165"/>
      <point x="972" y="58"/>
      <point x="738" y="0"/>
      <point x="617" y="0" type="qcurve" name="ab01"/>
      <point x="132" y="0" type="line" name="sh01"/>
    </contour>
    <contour>
      <point x="673" y="1302" type="line" name="sh04"/>
      <point x="467" y="132" type="line" name="sh05"/>
      <point x="612" y="132" type="line"/>
      <point x="708" y="132"/>
      <point x="878" y="191"/>
      <point x="1020" y="295"/>
      <point x="1132" y="437"/>
      <point x="1209" y="602"/>
      <point x="1250" y="784"/>
      <point x="1250" y="876" type="qcurve" name="sh06"/>
      <point x="1250" y="980"/>
      <point x="1189" y="1139"/>
      <point x="1076" y="1247"/>
      <point x="913" y="1302"/>
      <point x="811" y="1302" type="qcurve"/>
    </contour>
  </outline>
</glyph>
<glyph name="E" format="2">
  <advance width="1088"/>
  <unicode hex="0045"/>
  <outline>
    <contour>
      <point x="382" y="1434" type="line"/>
      <point x="1236" y="1434" type="line"/>
      <point x="1208" y="1272" type="line"/>
      <point x="673" y="1312" type="line"/>
      <point x="593" y="859" type="line"/>
      <point x="1033" y="859" type="line"/>
      <point x="1007" y="717" type="line"/>
      <point x="568" y="717" type="line"/>
      <point x="463" y="122" type="line"/>
      <point x="1042" y="162" type="line"/>
      <point x="1014" y="0" type="line"/>
      <point x="130" y="0" type="line"/>
    </contour>
  </outline>
</glyph>
<glyph name="F" format="2">
  <advance width="1088"/>
  <unicode hex="0046"/>
  <anchor x="624" y="0" name="AccentBelow"/>
  <anchor x="624" y="1600" name="AccentDefault"/>
  <anchor x="624" y="780" name="AccentMiddle"/>
  <outline>
    <contour>
      <point x="382" y="1434" type="line"/>
      <point x="1262" y="1434" type="line"/>
      <point x="1234" y="1273" type="line"/>
      <point x="673" y="1312" type="line"/>
      <point x="593" y="859" type="line"/>
      <point x="1066" y="859" type="line"/>
      <point x="1041" y="717" type="line"/>
      <point x="568" y="717" type="line"/>
      <point x="442" y="0" type="line"/>
      <point x="130" y="0" type="line"/>
    </contour>
  </outline>
</glyph>
<glyph name="G" format="2">
  <advance width="1600"/>
  <unicode hex="0047"/>
  <outline>
    <contour>
      <point x="986" y="717" type="line"/>
      <point x="1528" y="717" type="line"/>
      <point x="1437" y="200" type="line"/>
      <point x="1368" y="139"/>
      <point x="1231" y="52"/>
      <point x="1088" y="-4"/>
      <point x="936" y="-30"/>
      <point x="853" y="-30" type="qcurve"/>
      <point x="696" y="-30"/>
      <point x="444" y="55"/>
      <point x="267" y="212"/>
      <point x="171" y="433"/>
      <point x="171" y="569" type="qcurve"/>
      <point x="171" y="695"/>
      <point x="237" y="926"/>
      <point x="358" y="1125"/>
      <point x="529" y="1287"/>
      <point x="740" y="1402"/>
      <point x="984" y="1464"/>
      <point x="1118" y="1464" type="qcurve"/>
      <point x="1213" y="1464"/>
      <point x="1364" y="1430"/>
      <point x="1485" y="1368"/>
      <point x="1580" y="1284"/>
      <point x="1619" y="1235" type="qcurve"/>
      <point x="1498" y="1113" type="line"/>
      <point x="1468" y="1161"/>
      <point x="1393" y="1238"/>
      <point x="1295" y="1293"/>
      <point x="1172" y="1322"/>
      <point x="1094" y="1322" type="qcurve"/>
      <point x="998" y="1322"/>
      <point x="833" y="1260"/>
      <point x="697" y="1151"/>
      <point x="592" y="1003"/>
      <point x="520" y="830"/>
      <point x="483" y="639"/>
      <point x="483" y="543" type="qcurve"/>
      <point x="483" y="452"/>
      <point x="527" y="295"/>
      <point x="623" y="179"/>
      <point x="773" y="112"/>
      <point x="878" y="112" type="qcurve"/>
      <point x="914" y="112"/>
      <point x="972" y="115"/>
      <point x="1026" y="125"/>
      <point x="1082" y="144"/>
      <point x="1118" y="160" type="qcurve"/>
      <point x="1191" y="575" type="line"/>
      <point x="961" y="575" type="line"/>
    </contour>
  </outline>
</glyph>
<glyph name="H" format="2">
  <advance width="1504"/>
  <unicode hex="0048"/>
  <anchor x="752" y="0" name="AccentBelow"/>
  <anchor x="268" y="0" name="AccentCedilla"/>
  <anchor x="752" y="1600" name="AccentDefault"/>
  <anchor x="752" y="1100" name="AccentMiddle"/>
  <outline>
    <contour>
      <point x="384" y="1434" type="line"/>
      <point x="702" y="1464" type="line"/>
      <point x="595" y="859" type="line"/>
      <point x="1211" y="859" type="line"/>
      <point x="1312" y="1434" type="line"/>
      <point x="1630" y="1464" type="line"/>
      <point x="1372" y="0" type="line"/>
      <point x="1060" y="0" type="line"/>
      <point x="1186" y="717" type="line"/>
      <point x="570" y="717" type="line"/>
      <point x="444" y="0" type="line"/>
      <point x="132" y="0" type="line"/>
    </contour>
  </outline>
</glyph>
<glyph name="J" format="2">
  <advance width="736"/>
  <unicode hex="004A"/>
  <guideline x="29" y="0" angle="90"/>
  <guideline x="0" y="0" angle="80"/>
  <anchor x="288" y="0" name="AccentBelow"/>
  <anchor x="452" y="1600" name="AccentDefault"/>
  <anchor x="452" y="712" name="AccentMiddle"/>
  <outline>
    <contour>
      <point x="540" y="1434" type="line" name="dh01"/>
      <point x="858" y="1464" type="line" name="dh02"/>
      <point x="695" y="539" type="line"/>
      <point x="664" y="362"/>
      <point x="536" y="139"/>
      <point x="354" y="15"/>
      <point x="126" y="-30"/>
      <point x="-5" y="-30" type="qcurve" name="ab01"/>
      <point x="23" y="132" type="line" name="sv01"/>
      <point x="81" y="132"/>
      <point x="189" y="150"/>
      <point x="279" y="213"/>
      <point x="346" y="332"/>
      <point x="364" y="433" type="qcurve"/>
    </contour>
  </outline>
</glyph>
<glyph name="L" format="2">
  <advance width="1088"/>
  <unicode hex="004C"/>
  <outline>
    <contour>
      <point x="382" y="1434" type="line"/>
      <point x="700" y="1464" type="line"/>
      <point x="463" y="122" type="line"/>
      <point x="1041" y="162" type="line"/>
      <point x="1013" y="0" type="line"/>
      <point x="130" y="0" type="line"/>
    </contour>
  </outline>
</glyph>
<glyph name="P" format="2">
  <advance width="1152"/>
  <unicode hex="0050"/>
  <outline>
    <contour>
      <point x="673" y="1302" type="line"/>
      <point x="569" y="717" type="line"/>
      <point x="639" y="717" type="line"/>
      <point x="719" y="717"/>
      <point x="844" y="784"/>
      <point x="930" y="889"/>
      <point x="975" y="1020"/>
      <point x="975" y="1085" type="qcurve"/>
      <point x="975" y="1132"/>
      <point x="942" y="1212"/>
      <point x="881" y="1270"/>
      <point x="795" y="1302"/>
      <point x="743" y="1302" type="qcurve"/>
    </contour>
    <contour>
      <point x="384" y="1434" type="line"/>
      <point x="809" y="1434" type="line"/>
      <point x="941" y="1434"/>
      <point x="1124" y="1379"/>
      <point x="1237" y="1285"/>
      <point x="1287" y="1159"/>
      <point x="1287" y="1089" type="qcurve"/>
      <point x="1287" y="987"/>
      <point x="1208" y="804"/>
      <point x="1050" y="666"/>
      <point x="815" y="585"/>
      <point x="659" y="585" type="qcurve"/>
      <point x="546" y="585" type="line"/>
      <point x="444" y="0" type="line"/>
      <point x="132" y="0" type="line"/>
    </contour>
  </outline>
</glyph>
<glyph name="Q" format="2">
  <advance width="1600"/>
  <unicode hex="0051"/>
  <outline>
    <contour>
      <point x="1056" y="1464" type="qcurve"/>
      <point x="1180" y="1464"/>
      <point x="1405" y="1380"/>
      <point x="1576" y="1223"/>
      <point x="1677" y="998"/>
      <point x="1677" y="856" type="qcurve"/>
      <point x="1677" y="712"/>
      <point x="1587" y="457"/>
      <point x="1429" y="245"/>
      <point x="1213" y="80"/>
      <point x="1086" y="28" type="qcurve"/>
      <point x="1179" y="16"/>
      <point x="1317" y="-50"/>
      <point x="1414" y="-135"/>
      <point x="1475" y="-230"/>
      <point x="1491" y="-271" type="qcurve"/>
      <point x="1302" y="-459" type="line"/>
      <point x="1281" y="-392"/>
      <point x="1237" y="-276"/>
      <point x="1181" y="-181"/>
      <point x="1108" y="-107"/>
      <point x="1009" y="-56"/>
      <point x="878" y="-30"/>
      <point x="792" y="-30" type="qcurve"/>
      <point x="667" y="-30"/>
      <point x="442" y="53"/>
      <point x="271" y="210"/>
      <point x="171" y="435"/>
      <point x="171" y="577" type="qcurve"/>
      <point x="171" y="695"/>
      <point x="238" y="918"/>
      <point x="357" y="1115"/>
      <point x="522" y="1279"/>
      <point x="719" y="1398"/>
      <point x="940" y="1464"/>
    </contour>
    <contour>
      <point x="483" y="536" type="qcurve"/>
      <point x="483" y="433"/>
      <point x="533" y="275"/>
      <point x="621" y="167"/>
      <point x="744" y="112"/>
      <point x="817" y="112" type="qcurve"/>
      <point x="890" y="112"/>
      <point x="1028" y="171"/>
      <point x="1150" y="276"/>
      <point x="1251" y="422"/>
      <point x="1324" y="597"/>
      <point x="1365" y="794"/>
      <point x="1365" y="898" type="qcurve"/>
      <point x="1365" y="1001"/>
      <point x="1315" y="1159"/>
      <point x="1227" y="1267"/>
      <point x="1104" y="1322"/>
      <point x="1031" y="1322" type="qcurve"/>
      <point x="958" y="1322"/>
      <point x="820" y="1263"/>
      <point x="698" y="1158"/>
      <point x="596" y="1012"/>
      <point x="523" y="837"/>
      <point x="483" y="640"/>
    </contour>
  </outline>
</glyph>
<glyph name="S" format="2">
  <advance width="1152"/>
  <unicode hex="0053"/>
  <anchor x="576" y="0" name="AccentBelow"/>
  <anchor x="512" y="0" name="AccentCedilla"/>
  <anchor x="576" y="1600" name="AccentDefault"/>
  <anchor x="624" y="712" name="AccentMiddle"/>
  <outline>
    <contour>
      <point x="1251" y="1235" type="qcurve"/>
      <point x="1128" y="1113" type="line"/>
      <point x="1110" y="1150"/>
      <point x="1055" y="1224"/>
      <point x="983" y="1284"/>
      <point x="897" y="1322"/>
      <point x="849" y="1322" type="qcurve"/>
      <point x="798" y="1322"/>
      <point x="718" y="1286"/>
      <point x="663" y="1224"/>
      <point x="634" y="1142"/>
      <point x="634" y="1097" type="qcurve"/>
      <point x="634" y="1060"/>
      <point x="648" y="993"/>
      <point x="690" y="933"/>
      <point x="766" y="880"/>
      <point x="828" y="856" type="qcurve"/>
      <point x="973" y="801"/>
      <point x="1124" y="602"/>
      <point x="1124" y="474" type="qcurve"/>
      <point x="1124" y="395"/>
      <point x="1080" y="259"/>
      <point x="1001" y="147"/>
      <point x="893" y="60"/>
      <point x="766" y="1"/>
      <point x="624" y="-30"/>
      <point x="551" y="-30" type="qcurve"/>
      <point x="472" y="-30"/>
      <point x="335" y="11"/>
      <point x="223" y="77"/>
      <point x="139" y="159"/>
      <point x="113" y="199" type="qcurve"/>
      <point x="235" y="321" type="line"/>
      <point x="260" y="282"/>
      <point x="329" y="206"/>
      <point x="413" y="148"/>
      <point x="511" y="112"/>
      <point x="566" y="112" type="qcurve"/>
      <point x="624" y="112"/>
      <point x="722" y="152"/>
      <point x="793" y="222"/>
      <point x="832" y="316"/>
      <point x="832" y="370" type="qcurve"/>
      <point x="832" y="410"/>
      <point x="814" y="483"/>
      <point x="765" y="549"/>
      <point x="679" y="607"/>
      <point x="612" y="631" type="qcurve"/>
      <point x="557" y="651"/>
      <point x="462" y="721"/>
      <point x="392" y="814"/>
      <point x="352" y="927"/>
      <point x="352" y="990" type="qcurve"/>
      <point x="352" y="1097"/>
      <point x="434" y="1272"/>
      <point x="573" y="1396"/>
      <point x="755" y="1464"/>
      <point x="855" y="1464" type="qcurve"/>
      <point x="930" y="1464"/>
      <point x="1053" y="1425"/>
      <point x="1152" y="1361"/>
      <point x="1226" y="1278"/>
    </contour>
  </outline>
</glyph>
<glyph name="T" format="2">
  <advance width="1152"/>
  <unicode hex="0054"/>
  <anchor x="576" y="0" name="AccentBelow"/>
  <anchor x="554" y="0" name="AccentCedilla"/>
  <anchor x="576" y="1600" name="AccentDefault"/>
  <anchor x="576" y="712" name="AccentMiddle"/>
  <outline>
    <contour>
      <point x="282" y="1434" type="line"/>
      <point x="1374" y="1434" type="line"/>
      <point x="1346" y="1272" type="line"/>
      <point x="963" y="1312" type="line"/>
      <point x="732" y="0" type="line"/>
      <point x="420" y="0" type="line"/>
      <point x="651" y="1313" type="line"/>
      <point x="253" y="1272" type="line"/>
    </contour>
  </outline>
</glyph>
<glyph name="U" format="2">
  <advance width="1504"/>
  <unicode hex="0055"/>
  <guideline x="0" y="568" angle="0"/>
  <guideline x="779" y="0" angle="90"/>
  <anchor x="772" y="0" name="AccentBelow"/>
  <anchor x="772" y="1600" name="AccentDefault"/>
  <anchor x="800" y="712" name="AccentMiddle"/>
  <anchor x="600" y="0" name="AccentOgonek"/>
  <outline>
    <contour>
      <point x="706" y="1464" type="line" name="dh02"/>
      <point x="536" y="500" type="line"/>
      <point x="529" y="462"/>
      <point x="529" y="422" type="qcurve"/>
      <point x="529" y="345"/>
      <point x="583" y="229"/>
      <point x="674" y="151"/>
      <point x="791" y="112"/>
      <point x="854" y="112" type="qcurve" name="sv01"/>
      <point x="942" y="112"/>
      <point x="1091" y="171"/>
      <point x="1205" y="280"/>
      <point x="1282" y="435"/>
      <point x="1299" y="530" type="qcurve"/>
      <point x="1464" y="1464" type="line" name="dh04"/>
      <point x="1620" y="1434" type="line" name="dh03"/>
      <point x="1468" y="568" type="line"/>
      <point x="1445" y="437"/>
      <point x="1331" y="218"/>
      <point x="1159" y="59"/>
      <point x="932" y="-30"/>
      <point x="796" y="-30" type="qcurve" name="ab01"/>
      <point x="666" y="-30"/>
      <point x="455" y="30"/>
      <point x="306" y="150"/>
      <point x="225" y="328"/>
      <point x="225" y="446" type="qcurve"/>
      <point x="225" y="507"/>
      <point x="237" y="578" type="qcurve"/>
      <point x="388" y="1434" type="line" name="dh01"/>
    </contour>
  </outline>
</glyph>
<glyph name="V" format="2">
  <advance width="1248"/>
  <unicode hex="0056"/>
  <outline>
    <contour>
      <point x="597" y="1464" type="line"/>
      <point x="785" y="456" type="line"/>
      <point x="1329" y="1464" type="line"/>
      <point x="1484" y="1434" type="line"/>
      <point x="710" y="0" type="line"/>
      <point x="539" y="0" type="line"/>
      <point x="268" y="1434" type="line"/>
    </contour>
  </outline>
</glyph>
<glyph name="W" format="2">
  <advance width="1888"/>
  <unicode hex="0057"/>
  <outline>
    <contour>
      <point x="1503" y="528" type="line"/>
      <point x="1936" y="1464" type="line"/>
      <point x="2088" y="1434" type="line"/>
      <point x="1423" y="0" type="line"/>
      <point x="1252" y="0" type="line"/>
      <point x="1111" y="943" type="line"/>
      <point x="637" y="0" type="line"/>
      <point x="465" y="0" type="line"/>
      <point x="304" y="1434" type="line"/>
      <point x="635" y="1464" type="line"/>
      <point x="740" y="528" type="line"/>
      <point x="1193" y="1434" type="line"/>
      <point x="1368" y="1434" type="line"/>
    </contour>
  </outline>
</glyph>
<glyph name="X" format="2">
  <advance width="1248"/>
  <unicode hex="0058"/>
  <anchor x="624" y="0" name="AccentBelow"/>
  <anchor x="624" y="1600" name="AccentDefault"/>
  <anchor x="624" y="712" name="AccentMiddle"/>
  <outline>
    <contour>
      <point x="622" y="1464" type="line"/>
      <point x="815" y="980" type="line"/>
      <point x="1182" y="1464" type="line"/>
      <point x="1345" y="1434" type="line"/>
      <point x="881" y="818" type="line"/>
      <point x="1208" y="0" type="line"/>
      <point x="879" y="-30" type="line"/>
      <point x="657" y="521" type="line"/>
      <point x="241" y="-30" type="line"/>
      <point x="77" y="0" type="line"/>
      <point x="593" y="685" type="line"/>
      <point x="292" y="1434" type="line"/>
    </contour>
  </outline>
</glyph>
<glyph name="Z" format="2">
  <advance width="1248"/>
  <unicode hex="005A"/>
  <anchor x="672" y="0" name="AccentBelow"/>
  <anchor x="672" y="1600" name="AccentDefault"/>
  <anchor x="642" y="712" name="AccentMiddle"/>
  <outline>
    <contour>
      <point x="399" y="1434" type="line"/>
      <point x="1424" y="1434" type="line"/>
      <point x="1413" y="1374" type="line"/>
      <point x="464" y="122" type="line"/>
      <point x="1200" y="162" type="line"/>
      <point x="1171" y="0" type="line"/>
      <point x="62" y="0" type="line"/>
      <point x="72" y="60" type="line"/>
      <point x="1018" y="1312" type="line"/>
      <point x="370" y="1272" type="line"/>
    </contour>
  </outline>
</glyph>
<glyph name="bracketleft" format="2">
  <advance width="736"/>
  <unicode hex="005B"/>
  <outline>
    <contour>
      <point x="492" y="1464" type="line"/>
      <point x="931" y="1464" type="line"/>
      <point x="909" y="1342" type="line"/>
      <point x="722" y="1342" type="line"/>
      <point x="458" y="-156" type="line"/>
      <point x="646" y="-156" type="line"/>
      <point x="624" y="-278" type="line"/>
      <point x="184" y="-278" type="line"/>
    </contour>
  </outline>
</glyph>
<glyph name="backslash" format="2">
  <advance width="576"/>
  <unicode hex="005C"/>
  <outline>
    <contour>
      <point x="387" y="1586" type="line"/>
      <point x="642" y="-134" type="line"/>
      <point x="431" y="-152" type="line"/>
      <point x="176" y="1569" type="line"/>
    </contour>
  </outline>
</glyph>
<glyph name="bracketright" format="2">
  <advance width="736"/>
  <unicode hex="005D"/>
  <outline>
    <contour>
      <point x="452" y="-278" type="line"/>
      <point x="14" y="-278" type="line"/>
      <point x="35" y="-156" type="line"/>
      <point x="222" y="-156" type="line"/>
      <point x="486" y="1342" type="line"/>
      <point x="299" y="1342" type="line"/>
      <point x="320" y="1464" type="line"/>
      <point x="760" y="1464" type="line"/>
    </contour>
  </outline>
</glyph>
<glyph name="asciicircum" format="2">
  <advance width="1248"/>
  <unicode hex="005E"/>
  <outline>
    <contour>
      <point x="795" y="1434" type="line"/>
      <point x="957" y="1434" type="line"/>
      <point x="1272" y="648" type="line"/>
      <point x="1090" y="553" type="line"/>
      <point x="832" y="1181" type="line"/>
      <point x="352" y="553" type="line"/>
      <point x="204" y="648" type="line"/>
    </contour>
  </outline>
</glyph>
<glyph name="underscore" format="2">
  <advance width="1024"/>
  <unicode hex="005F"/>
  <outline>
    <contour>
      <point x="-39" y="-222" type="line"/>
      <point x="984" y="-222" type="line"/>
      <point x="970" y="-304" type="line"/>
      <point x="-53" y="-304" type="line"/>
    </contour>
  </outline>
</glyph>
<glyph name="grave" format="2">
  <advance width="768"/>
  <unicode hex="0060"/>
  <outline>
    <contour>
      <point x="685" y="1138" type="line"/>
      <point x="319" y="1426" type="line"/>
      <point x="319" y="1470" type="line"/>
      <point x="437" y="1588" type="line"/>
      <point x="481" y="1588" type="line"/>
      <point x="762" y="1219" type="line"/>
    </contour>
  </outline>
</glyph>
<glyph name="c" format="2">
  <advance width="1024"/>
  <unicode hex="0063"/>
  <outline>
    <contour>
      <point x="978" y="740" type="line"/>
      <point x="962" y="767"/>
      <point x="922" y="821"/>
      <point x="869" y="865"/>
      <point x="801" y="892"/>
      <point x="757" y="892" type="qcurve"/>
      <point x="714" y="892"/>
      <point x="632" y="849"/>
      <point x="560" y="773"/>
      <point x="500" y="671"/>
      <point x="457" y="552"/>
      <point x="433" y="422"/>
      <point x="433" y="357" type="qcurve"/>
      <point x="433" y="227"/>
      <point x="532" y="82"/>
      <point x="614" y="82" type="qcurve"/>
      <point x="650" y="82"/>
      <point x="717" y="109"/>
      <point x="776" y="152"/>
      <point x="827" y="207"/>
      <point x="849" y="235" type="qcurve"/>
      <point x="962" y="122" type="line"/>
      <point x="927" y="90"/>
      <point x="848" y="34"/>
      <point x="753" y="-7"/>
      <point x="637" y="-30"/>
      <point x="564" y="-30" type="qcurve"/>
      <point x="464" y="-30"/>
      <point x="307" y="29"/>
      <point x="198" y="136"/>
      <point x="141" y="286"/>
      <point x="141" y="377" type="qcurve"/>
      <point x="141" y="462"/>
      <point x="183" y="622"/>
      <point x="261" y="761"/>
      <point x="371" y="876"/>
      <point x="506" y="959"/>
      <point x="662" y="1004"/>
      <point x="747" y="1004" type="qcurve"/>
      <point x="819" y="1004"/>
      <point x="927" y="980"/>
      <point x="1009" y="938"/>
      <point x="1068" y="883"/>
      <point x="1091" y="852" type="qcurve"/>
    </contour>
  </outline>
</glyph>
<glyph name="d" format="2">
  <advance width="1120"/>
  <unicode hex="0064"/>
  <outline>
    <contour>
      <point x="882" y="821" type="line"/>
      <point x="862" y="852"/>
      <point x="789" y="892"/>
      <point x="729" y="892" type="qcurve"/>
      <point x="686" y="892"/>
      <point x="607" y="846"/>
      <point x="539" y="767"/>
      <point x="483" y="661"/>
      <point x="444" y="541"/>
      <point x="422" y="412"/>
      <point x="422" y="350" type="qcurve"/>
      <point x="422" y="283"/>
      <point x="448" y="183"/>
      <point x="492" y="116"/>
      <point x="552" y="82"/>
      <point x="586" y="82" type="qcurve"/>
      <point x="647" y="82"/>
      <point x="733" y="123"/>
      <point x="764" y="152" type="qcurve"/>
    </contour>
    <contour>
      <point x="701" y="1004" type="qcurve"/>
      <point x="731" y="1004"/>
      <point x="793" y="988"/>
      <point x="849" y="966"/>
      <point x="891" y="941"/>
      <point x="902" y="931" type="qcurve"/>
      <point x="996" y="1464" type="line"/>
      <point x="1223" y="1494" type="line"/>
      <point x="1283" y="1494" type="line"/>
      <point x="1047" y="156" type="line"/>
      <point x="1046" y="149"/>
      <point x="1045" y="136"/>
      <point x="1045" y="131" type="qcurve"/>
      <point x="1045" y="107"/>
      <point x="1071" y="82"/>
      <point x="1106" y="82" type="qcurve"/>
      <point x="1086" y="-30" type="line"/>
      <point x="955" y="-30"/>
      <point x="808" y="19"/>
      <point x="783" y="82" type="qcurve"/>
      <point x="758" y="58"/>
      <point x="692" y="17"/>
      <point x="621" y="-13"/>
      <point x="549" y="-30"/>
      <point x="517" y="-30" type="qcurve"/>
      <point x="433" y="-30"/>
      <point x="291" y="24"/>
      <point x="188" y="126"/>
      <point x="130" y="275"/>
      <point x="130" y="370" type="qcurve"/>
      <point x="130" y="450"/>
      <point x="169" y="606"/>
      <point x="241" y="747"/>
      <point x="343" y="867"/>
      <point x="470" y="955"/>
      <point x="619" y="1004"/>
    </contour>
  </outline>
</glyph>
<glyph name="e" format="2">
  <advance width="1024"/>
  <unicode hex="0065"/>
  <outline>
    <contour>
      <point x="604" y="82" type="qcurve"/>
      <point x="644" y="82"/>
      <point x="714" y="109"/>
      <point x="775" y="152"/>
      <point x="827" y="207"/>
      <point x="849" y="235" type="qcurve"/>
      <point x="962" y="122" type="line"/>
      <point x="927" y="90"/>
      <point x="840" y="34"/>
      <point x="737" y="-7"/>
      <point x="620" y="-30"/>
      <point x="554" y="-30" type="qcurve"/>
      <point x="455" y="-30"/>
      <point x="301" y="28"/>
      <point x="196" y="134"/>
      <point x="141" y="282"/>
      <point x="141" y="372" type="qcurve"/>
      <point x="141" y="458"/>
      <point x="183" y="619"/>
      <point x="260" y="759"/>
      <point x="369" y="875"/>
      <point x="504" y="958"/>
      <point x="661" y="1004"/>
      <point x="747" y="1004" type="qcurve"/>
      <point x="808" y="1004"/>
      <point x="927" y="964"/>
      <point x="1020" y="875"/>
      <point x="1077" y="734"/>
      <point x="1077" y="632" type="qcurve"/>
      <point x="1077" y="599"/>
      <point x="1070" y="527"/>
      <point x="1063" y="487" type="qcurve"/>
      <point x="437" y="487" type="line"/>
      <point x="429" y="445"/>
      <point x="423" y="373"/>
      <point x="423" y="341" type="qcurve"/>
      <point x="423" y="268"/>
      <point x="453" y="169"/>
      <point x="504" y="108"/>
      <point x="569" y="82"/>
    </contour>
    <contour>
      <point x="717" y="892" type="qcurve"/>
      <point x="676" y="892"/>
      <point x="598" y="855"/>
      <point x="529" y="781"/>
      <point x="474" y="671"/>
      <point x="457" y="599" type="qcurve"/>
      <point x="841" y="599" type="line"/>
      <point x="846" y="630"/>
      <point x="852" y="684"/>
      <point x="852" y="708" type="qcurve"/>
      <point x="852" y="805"/>
      <point x="775" y="892"/>
    </contour>
  </outline>
</glyph>
<glyph name="f" format="2">
  <advance width="736"/>
  <unicode hex="0066"/>
  <outline>
    <contour>
      <point x="229" y="1004" type="line"/>
      <point x="365" y="1004" type="line"/>
      <point x="384" y="1139"/>
      <point x="493" y="1326"/>
      <point x="655" y="1442"/>
      <point x="861" y="1494"/>
      <point x="977" y="1494" type="qcurve"/>
      <point x="957" y="1382" type="line"/>
      <point x="902" y="1382"/>
      <point x="807" y="1356"/>
      <point x="732" y="1293"/>
      <point x="678" y="1189"/>
      <point x="665" y="1111" type="qcurve"/>
      <point x="647" y="1004" type="line"/>
      <point x="823" y="1004" type="line"/>
      <point x="797" y="865" type="line"/>
      <point x="623" y="873" type="line"/>
      <point x="470" y="0" type="line"/>
      <point x="188" y="0" type="line"/>
      <point x="344" y="886" type="line"/>
      <point x="209" y="892" type="line"/>
    </contour>
  </outline>
</glyph>
<glyph name="g" format="2">
  <advance width="1120"/>
  <unicode hex="0067"/>
  <outline>
    <contour>
      <point x="695" y="974" type="qcurve"/>
      <point x="725" y="974"/>
      <point x="788" y="958"/>
      <point x="843" y="936"/>
      <point x="886" y="911"/>
      <point x="896" y="901" type="qcurve"/>
      <point x="909" y="974" type="line"/>
      <point x="1137" y="1004" type="line"/>
      <point x="1197" y="1004" type="line"/>
      <point x="1028" y="49" type="line"/>
      <point x="1005" y="-80"/>
      <point x="896" y="-281"/>
      <point x="740" y="-418"/>
      <point x="544" y="-490"/>
      <point x="434" y="-490" type="qcurve"/>
      <point x="380" y="-490"/>
      <point x="273" y="-468"/>
      <point x="174" y="-428"/>
      <point x="88" y="-372"/>
      <point x="56" y="-338" type="qcurve"/>
      <point x="168" y="-226" type="line"/>
      <point x="187" y="-251"/>
      <point x="243" y="-298"/>
      <point x="311" y="-335"/>
      <point x="388" y="-358"/>
      <point x="427" y="-358" type="qcurve"/>
      <point x="473" y="-358"/>
      <point x="567" y="-329"/>
      <point x="649" y="-257"/>
      <point x="713" y="-134"/>
      <point x="730" y="-40" type="qcurve"/>
      <point x="752" y="80" type="line"/>
      <point x="703" y="42"/>
      <point x="583" y="0"/>
      <point x="523" y="0" type="qcurve"/>
      <point x="437" y="0"/>
      <point x="294" y="47"/>
      <point x="189" y="140"/>
      <point x="131" y="280"/>
      <point x="131" y="373" type="qcurve"/>
      <point x="131" y="495"/>
      <point x="215" y="713"/>
      <point x="365" y="878"/>
      <point x="572" y="974"/>
    </contour>
    <contour>
      <point x="770" y="182" type="qcurve"/>
      <point x="877" y="791" type="line"/>
      <point x="856" y="822"/>
      <point x="783" y="862"/>
      <point x="723" y="862" type="qcurve"/>
      <point x="660" y="862"/>
      <point x="550" y="775"/>
      <point x="469" y="633"/>
      <point x="423" y="452"/>
      <point x="423" y="358" type="qcurve"/>
      <point x="423" y="293"/>
      <point x="450" y="200"/>
      <point x="496" y="140"/>
      <point x="557" y="112"/>
      <point x="591" y="112" type="qcurve"/>
      <point x="652" y="112"/>
      <point x="738" y="153"/>
    </contour>
  </outline>
</glyph>
<glyph name="h" format="2">
  <advance width="1120"/>
  <unicode hex="0068"/>
  <outline>
    <contour>
      <point x="358" y="1464" type="line"/>
      <point x="585" y="1494" type="line"/>
      <point x="645" y="1494" type="line"/>
      <point x="545" y="925" type="line"/>
      <point x="605" y="963"/>
      <point x="748" y="1004"/>
      <point x="826" y="1004" type="qcurve"/>
      <point x="898" y="1004"/>
      <point x="1013" y="970"/>
      <point x="1094" y="904"/>
      <point x="1137" y="809"/>
      <point x="1137" y="748" type="qcurve"/>
      <point x="1137" y="716"/>
      <point x="1131" y="680" type="qcurve"/>
      <point x="1042" y="172" type="line"/>
      <point x="1040" y="161"/>
      <point x="1036" y="138"/>
      <point x="1036" y="130" type="qcurve"/>
      <point x="1036" y="107"/>
      <point x="1064" y="82"/>
      <point x="1098" y="82" type="qcurve"/>
      <point x="1078" y="-30" type="line"/>
      <point x="1022" y="-30"/>
      <point x="910" y="-7"/>
      <point x="820" y="42"/>
      <point x="764" y="121"/>
      <point x="764" y="177" type="qcurve"/>
      <point x="764" y="193"/>
      <point x="769" y="227"/>
      <point x="773" y="247" type="qcurve"/>
      <point x="857" y="724" type="line"/>
      <point x="860" y="740"/>
      <point x="860" y="755" type="qcurve"/>
      <point x="860" y="787"/>
      <point x="838" y="838"/>
      <point x="802" y="873"/>
      <point x="757" y="892"/>
      <point x="734" y="892" type="qcurve"/>
      <point x="701" y="892"/>
      <point x="640" y="875"/>
      <point x="585" y="846"/>
      <point x="539" y="811"/>
      <point x="521" y="793" type="qcurve"/>
      <point x="382" y="0" type="line"/>
      <point x="100" y="0" type="line"/>
    </contour>
  </outline>
</glyph>
<glyph name="i" format="2">
  <advance width="576"/>
  <unicode hex="0069"/>
  <outline>
    <contour>
      <point x="318" y="974" type="line"/>
      <point x="546" y="1004" type="line"/>
      <point x="606" y="1004" type="line"/>
      <point x="429" y="0" type="line"/>
      <point x="147" y="0" type="line"/>
    </contour>
    <contour>
      <point x="368" y="1288" type="qcurve"/>
      <point x="368" y="1318"/>
      <point x="391" y="1372"/>
      <point x="430" y="1411"/>
      <point x="484" y="1434"/>
      <point x="514" y="1434" type="qcurve"/>
      <point x="544" y="1434"/>
      <point x="598" y="1411"/>
      <point x="637" y="1372"/>
      <point x="660" y="1318"/>
      <point x="660" y="1288" type="qcurve"/>
      <point x="660" y="1258"/>
      <point x="637" y="1204"/>
      <point x="598" y="1165"/>
      <point x="544" y="1142"/>
      <point x="514" y="1142" type="qcurve"/>
      <point x="484" y="1142"/>
      <point x="430" y="1165"/>
      <point x="391" y="1204"/>
      <point x="368" y="1258"/>
    </contour>
  </outline>
</glyph>
<glyph name="j" format="2">
  <advance width="576"/>
  <unicode hex="006A"/>
  <outline>
    <contour>
      <point x="323" y="974" type="line"/>
      <point x="551" y="1004" type="line"/>
      <point x="611" y="1004" type="line"/>
      <point x="420" y="-76" type="line"/>
      <point x="400" y="-191"/>
      <point x="328" y="-349"/>
      <point x="215" y="-447"/>
      <point x="57" y="-490"/>
      <point x="-49" y="-490" type="qcurve"/>
      <point x="-29" y="-378" type="line"/>
      <point x="4" y="-378"/>
      <point x="51" y="-363"/>
      <point x="84" y="-323"/>
      <point x="108" y="-250"/>
      <point x="118" y="-191" type="qcurve"/>
    </contour>
    <contour>
      <point x="373" y="1288" type="qcurve"/>
      <point x="373" y="1318"/>
      <point x="396" y="1372"/>
      <point x="435" y="1411"/>
      <point x="489" y="1434"/>
      <point x="519" y="1434" type="qcurve"/>
      <point x="549" y="1434"/>
      <point x="603" y="1411"/>
      <point x="642" y="1372"/>
      <point x="665" y="1318"/>
      <point x="665" y="1288" type="qcurve"/>
      <point x="665" y="1258"/>
      <point x="642" y="1204"/>
      <point x="603" y="1165"/>
      <point x="549" y="1142"/>
      <point x="519" y="1142" type="qcurve"/>
      <point x="489" y="1142"/>
      <point x="435" y="1165"/>
      <point x="396" y="1204"/>
      <point x="373" y="1258"/>
    </contour>
  </outline>
</glyph>
<glyph name="l" format="2">
  <advance width="576"/>
  <unicode hex="006C"/>
  <outline>
    <contour>
      <point x="680" y="1494" type="line"/>
      <point x="464" y="269" type="line"/>
      <point x="458" y="233"/>
      <point x="458" y="204" type="qcurve"/>
      <point x="458" y="173"/>
      <point x="478" y="127"/>
      <point x="514" y="97"/>
      <point x="562" y="82"/>
      <point x="590" y="82" type="qcurve"/>
      <point x="570" y="-30" type="line"/>
      <point x="457" y="-30"/>
      <point x="307" y="-3"/>
      <point x="218" y="54"/>
      <point x="181" y="142"/>
      <point x="181" y="203" type="qcurve"/>
      <point x="181" y="233"/>
      <point x="188" y="303"/>
      <point x="195" y="342" type="qcurve"/>
      <point x="393" y="1464" type="line"/>
      <point x="620" y="1494" type="line"/>
    </contour>
  </outline>
</glyph>
<glyph name="m" format="2">
  <advance width="1664"/>
  <unicode hex="006D"/>
  <anchor x="832" y="0" name="AccentBelow"/>
  <anchor x="832" y="1100" name="AccentDefault"/>
  <anchor x="832" y="486" name="AccentMiddle"/>
  <outline>
    <contour>
      <point x="266" y="944" type="line"/>
      <point x="493" y="974" type="line"/>
      <point x="553" y="974" type="line"/>
      <point x="539" y="893" type="line"/>
      <point x="566" y="915"/>
      <point x="631" y="956"/>
      <point x="701" y="986"/>
      <point x="775" y="1004"/>
      <point x="813" y="1004" type="qcurve"/>
      <point x="913" y="1004"/>
      <point x="1044" y="924"/>
      <point x="1072" y="852" type="qcurve"/>
      <point x="1106" y="882"/>
      <point x="1180" y="937"/>
      <point x="1260" y="979"/>
      <point x="1348" y="1004"/>
      <point x="1396" y="1004" type="qcurve"/>
      <point x="1452" y="1004"/>
      <point x="1554" y="974"/>
      <point x="1631" y="914"/>
      <point x="1677" y="823"/>
      <point x="1677" y="762" type="qcurve"/>
      <point x="1677" y="732"/>
      <point x="1671" y="699" type="qcurve"/>
      <point x="1578" y="173" type="line"/>
      <point x="1576" y="162"/>
      <point x="1572" y="140"/>
      <point x="1572" y="132" type="qcurve"/>
      <point x="1572" y="105"/>
      <point x="1600" y="82"/>
      <point x="1634" y="82" type="qcurve"/>
      <point x="1614" y="-30" type="line"/>
      <point x="1545" y="-30"/>
      <point x="1430" y="-3"/>
      <point x="1348" y="50"/>
      <point x="1301" y="128"/>
      <point x="1301" y="179" type="qcurve"/>
      <point x="1301" y="195"/>
      <point x="1307" y="232"/>
      <point x="1309" y="247" type="qcurve"/>
      <point x="1396" y="740" type="line"/>
      <point x="1398" y="752"/>
      <point x="1400" y="774"/>
      <point x="1400" y="784" type="qcurve"/>
      <point x="1400" y="814"/>
      <point x="1384" y="855"/>
      <point x="1357" y="880"/>
      <point x="1324" y="892"/>
      <point x="1306" y="892" type="qcurve"/>
      <point x="1280" y="892"/>
      <point x="1225" y="871"/>
      <point x="1171" y="836"/>
      <point x="1121" y="792"/>
      <point x="1100" y="769" type="qcurve"/>
      <point x="965" y="0" type="line"/>
      <point x="683" y="0" type="line"/>
      <point x="813" y="741" type="line"/>
      <point x="817" y="761"/>
      <point x="817" y="783" type="qcurve"/>
      <point x="817" y="813"/>
      <point x="800" y="854"/>
      <point x="774" y="880"/>
      <point x="740" y="892"/>
      <point x="724" y="892" type="qcurve"/>
      <point x="698" y="892"/>
      <point x="644" y="872"/>
      <point x="590" y="838"/>
      <point x="539" y="794"/>
      <point x="517" y="770" type="qcurve"/>
      <point x="382" y="0" type="line"/>
      <point x="100" y="0" type="line"/>
    </contour>
  </outline>
</glyph>
<glyph name="o" format="2">
  <advance width="1120"/>
  <unicode hex="006F"/>
  <anchor x="560" y="0" name="AccentBelow"/>
  <anchor x="560" y="1100" name="AccentDefault"/>
  <anchor x="560" y="486" name="AccentMiddle"/>
  <outline>
    <contour>
      <point x="717" y="892" type="qcurve"/>
      <point x="671" y="892"/>
      <point x="592" y="842"/>
      <point x="526" y="757"/>
      <point x="476" y="644"/>
      <point x="441" y="517"/>
      <point x="423" y="383"/>
      <point x="423" y="321" type="qcurve"/>
      <point x="423" y="207"/>
      <point x="495" y="82"/>
      <point x="574" y="82" type="qcurve"/>
      <point x="620" y="82"/>
      <point x="699" y="132"/>
      <point x="765" y="216"/>
      <point x="816" y="329"/>
      <point x="851" y="456"/>
      <point x="869" y="589"/>
      <point x="869" y="651" type="qcurve"/>
      <point x="869" y="766"/>
      <point x="796" y="892"/>
    </contour>
    <contour>
      <point x="737" y="1004" type="qcurve"/>
      <point x="839" y="1004"/>
      <point x="997" y="945"/>
      <point x="1105" y="839"/>
      <point x="1161" y="690"/>
      <point x="1161" y="600" type="qcurve"/>
      <point x="1161" y="513"/>
      <point x="1119" y="353"/>
      <point x="1042" y="213"/>
      <point x="933" y="98"/>
      <point x="798" y="15"/>
      <point x="641" y="-30"/>
      <point x="554" y="-30" type="qcurve"/>
      <point x="452" y="-30"/>
      <point x="295" y="29"/>
      <point x="187" y="136"/>
      <point x="131" y="285"/>
      <point x="131" y="375" type="qcurve"/>
      <point x="131" y="461"/>
      <point x="173" y="622"/>
      <point x="250" y="761"/>
      <point x="360" y="876"/>
      <point x="494" y="959"/>
      <point x="651" y="1004"/>
    </contour>
  </outline>
</glyph>
<glyph name="p" format="2">
  <advance width="1120"/>
  <unicode hex="0070"/>
  <anchor x="560" y="-300" name="AccentBelow"/>
  <anchor x="560" y="1100" name="AccentDefault"/>
  <anchor x="560" y="486" name="AccentMiddle"/>
  <outline>
    <contour>
      <point x="266" y="944" type="line"/>
      <point x="493" y="974" type="line"/>
      <point x="553" y="974" type="line"/>
      <point x="543" y="914" type="line"/>
      <point x="565" y="935"/>
      <point x="624" y="968"/>
      <point x="690" y="992"/>
      <point x="758" y="1004"/>
      <point x="789" y="1004" type="qcurve"/>
      <point x="871" y="1004"/>
      <point x="1008" y="947"/>
      <point x="1106" y="842"/>
      <point x="1160" y="695"/>
      <point x="1160" y="604" type="qcurve"/>
      <point x="1160" y="484"/>
      <point x="1080" y="256"/>
      <point x="934" y="78"/>
      <point x="728" y="-30"/>
      <point x="603" y="-30" type="qcurve"/>
      <point x="546" y="-30"/>
      <point x="432" y="9"/>
      <point x="390" y="51" type="qcurve"/>
      <point x="300" y="-460" type="line"/>
      <point x="73" y="-490" type="line"/>
      <point x="13" y="-490" type="line"/>
    </contour>
    <contour>
      <point x="523" y="802" type="qcurve"/>
      <point x="410" y="162" type="line"/>
      <point x="440" y="119"/>
      <point x="515" y="82"/>
      <point x="563" y="82" type="qcurve"/>
      <point x="615" y="82"/>
      <point x="724" y="171"/>
      <point x="812" y="320"/>
      <point x="868" y="515"/>
      <point x="868" y="622" type="qcurve"/>
      <point x="868" y="683"/>
      <point x="846" y="782"/>
      <point x="806" y="853"/>
      <point x="746" y="892"/>
      <point x="709" y="892" type="qcurve"/>
      <point x="676" y="892"/>
      <point x="619" y="873"/>
      <point x="571" y="846"/>
      <point x="535" y="815"/>
    </contour>
  </outline>
</glyph>
<glyph name="q" format="2">
  <advance width="1120"/>
  <unicode hex="0071"/>
  <outline>
    <contour>
      <point x="888" y="852" type="line"/>
      <point x="871" y="865"/>
      <point x="788" y="892"/>
      <point x="729" y="892" type="qcurve"/>
      <point x="686" y="892"/>
      <point x="607" y="846"/>
      <point x="539" y="767"/>
      <point x="483" y="661"/>
      <point x="444" y="541"/>
      <point x="422" y="412"/>
      <point x="422" y="350" type="qcurve"/>
      <point x="422" y="283"/>
      <point x="448" y="183"/>
      <point x="493" y="116"/>
      <point x="552" y="82"/>
      <point x="586" y="82" type="qcurve"/>
      <point x="646" y="82"/>
      <point x="736" y="133"/>
      <point x="766" y="163" type="qcurve"/>
    </contour>
    <contour>
      <point x="701" y="1004" type="qcurve"/>
      <point x="776" y="1004"/>
      <point x="900" y="981"/>
      <point x="1011" y="940"/>
      <point x="1115" y="884"/>
      <point x="1171" y="852" type="qcurve"/>
      <point x="938" y="-460" type="line"/>
      <point x="711" y="-490" type="line"/>
      <point x="651" y="-490" type="line"/>
      <point x="746" y="51" type="line"/>
      <point x="698" y="13"/>
      <point x="577" y="-30"/>
      <point x="517" y="-30" type="qcurve"/>
      <point x="433" y="-30"/>
      <point x="291" y="24"/>
      <point x="188" y="126"/>
      <point x="130" y="275"/>
      <point x="130" y="370" type="qcurve"/>
      <point x="130" y="450"/>
      <point x="169" y="606"/>
      <point x="241" y="747"/>
      <point x="343" y="867"/>
      <point x="470" y="954"/>
      <point x="619" y="1004"/>
    </contour>
  </outline>
</glyph>
<glyph name="r" format="2">
  <advance width="736"/>
  <unicode hex="0072"/>
  <outline>
    <contour>
      <point x="553" y="974" type="line"/>
      <point x="527" y="826" type="line"/>
      <point x="548" y="859"/>
      <point x="602" y="923"/>
      <point x="662" y="973"/>
      <point x="727" y="1004"/>
      <point x="760" y="1004" type="qcurve"/>
      <point x="810" y="1004"/>
      <point x="880" y="964"/>
      <point x="896" y="944" type="qcurve"/>
      <point x="860" y="740" type="line"/>
      <point x="810" y="782"/>
      <point x="710" y="782" type="qcurve"/>
      <point x="660" y="782"/>
      <point x="581" y="745"/>
      <point x="525" y="689"/>
      <point x="491" y="623"/>
      <point x="486" y="595" type="qcurve"/>
      <point x="380" y="0" type="line"/>
      <point x="100" y="0" type="line"/>
      <point x="266" y="944" type="line"/>
      <point x="493" y="974" type="line"/>
    </contour>
  </outline>
</glyph>
<glyph name="s" format="2">
  <advance width="864"/>
  <unicode hex="0073"/>
  <anchor x="432" y="0" name="AccentBelow"/>
  <anchor x="400" y="0" name="AccentCedilla"/>
  <anchor x="432" y="1100" name="AccentDefault"/>
  <anchor x="432" y="486" name="AccentMiddle"/>
  <outline>
    <contour>
      <point x="167" y="234" type="line"/>
      <point x="185" y="203"/>
      <point x="236" y="148"/>
      <point x="297" y="106"/>
      <point x="365" y="82"/>
      <point x="401" y="82" type="qcurve"/>
      <point x="440" y="82"/>
      <point x="511" y="106"/>
      <point x="565" y="151"/>
      <point x="596" y="215"/>
      <point x="596" y="254" type="qcurve"/>
      <point x="596" y="351"/>
      <point x="439" y="413" type="qcurve"/>
      <point x="398" y="429"/>
      <point x="320" y="481"/>
      <point x="260" y="552"/>
      <point x="224" y="640"/>
      <point x="224" y="692" type="qcurve"/>
      <point x="224" y="768"/>
      <point x="290" y="884"/>
      <point x="397" y="963"/>
      <point x="532" y="1004"/>
      <point x="600" y="1004" type="qcurve"/>
      <point x="660" y="1004"/>
      <point x="757" y="983"/>
      <point x="841" y="944"/>
      <point x="915" y="888"/>
      <point x="952" y="852" type="qcurve"/>
      <point x="840" y="740" type="line"/>
      <point x="825" y="772"/>
      <point x="780" y="827"/>
      <point x="724" y="868"/>
      <point x="658" y="892"/>
      <point x="623" y="892" type="qcurve"/>
      <point x="593" y="892"/>
      <point x="539" y="872"/>
      <point x="499" y="833"/>
      <point x="476" y="778"/>
      <point x="476" y="744" type="qcurve"/>
      <point x="476" y="710"/>
      <point x="498" y="662"/>
      <point x="533" y="628"/>
      <point x="576" y="606"/>
      <point x="597" y="598" type="qcurve"/>
      <point x="730" y="547"/>
      <point x="858" y="403"/>
      <point x="858" y="309" type="qcurve"/>
      <point x="858" y="222"/>
      <point x="780" y="94"/>
      <point x="657" y="10"/>
      <point x="503" y="-30"/>
      <point x="428" y="-30" type="qcurve"/>
      <point x="364" y="-30"/>
      <point x="252" y="-3"/>
      <point x="158" y="40"/>
      <point x="82" y="95"/>
      <point x="55" y="122" type="qcurve"/>
    </contour>
  </outline>
</glyph>
<glyph name="t" format="2">
  <advance width="736"/>
  <unicode hex="0074"/>
  <outline>
    <contour>
      <point x="703" y="1322" type="line"/>
      <point x="647" y="1004" type="line"/>
      <point x="825" y="1004" type="line"/>
      <point x="801" y="865" type="line"/>
      <point x="623" y="873" type="line"/>
      <point x="517" y="269" type="line"/>
      <point x="514" y="251"/>
      <point x="510" y="219"/>
      <point x="510" y="205" type="qcurve"/>
      <point x="510" y="142"/>
      <point x="581" y="82"/>
      <point x="663" y="82" type="qcurve"/>
      <point x="643" y="-30" type="line"/>
      <point x="522" y="-30"/>
      <point x="364" y="-3"/>
      <point x="271" y="54"/>
      <point x="234" y="142"/>
      <point x="234" y="203" type="qcurve"/>
      <point x="234" y="233"/>
      <point x="241" y="303"/>
      <point x="248" y="342" type="qcurve"/>
      <point x="344" y="885" type="line"/>
      <point x="209" y="892" type="line"/>
      <point x="229" y="1004" type="line"/>
      <point x="365" y="1004" type="line"/>
      <point x="415" y="1292" type="line"/>
      <point x="643" y="1322" type="line"/>
    </contour>
  </outline>
</glyph>
<glyph name="u" format="2">
  <advance width="1120"/>
  <unicode hex="0075"/>
  <anchor x="560" y="0" name="AccentBelow"/>
  <anchor x="560" y="1100" name="AccentDefault"/>
  <anchor x="560" y="486" name="AccentMiddle"/>
  <anchor x="650" y="0" name="AccentOgonek"/>
  <outline>
    <contour>
      <point x="559" y="1004" type="line"/>
      <point x="427" y="258" type="line"/>
      <point x="421" y="223"/>
      <point x="421" y="198" type="qcurve"/>
      <point x="421" y="163"/>
      <point x="439" y="118"/>
      <point x="468" y="92"/>
      <point x="502" y="82"/>
      <point x="518" y="82" type="qcurve"/>
      <point x="554" y="82"/>
      <point x="624" y="100"/>
      <point x="688" y="131"/>
      <point x="744" y="174"/>
      <point x="765" y="199" type="qcurve"/>
      <point x="901" y="974" type="line"/>
      <point x="1129" y="1004" type="line"/>
      <point x="1189" y="1004" type="line"/>
      <point x="1041" y="165" type="line"/>
      <point x="1039" y="156"/>
      <point x="1036" y="138"/>
      <point x="1036" y="130" type="qcurve"/>
      <point x="1036" y="106"/>
      <point x="1065" y="82"/>
      <point x="1098" y="82" type="qcurve"/>
      <point x="1078" y="-30" type="line"/>
      <point x="1012" y="-30"/>
      <point x="912" y="-19"/>
      <point x="840" y="6"/>
      <point x="791" y="49"/>
      <point x="775" y="82" type="qcurve"/>
      <point x="747" y="62"/>
      <point x="678" y="22"/>
      <point x="597" y="-10"/>
      <point x="505" y="-30"/>
      <point x="456" y="-30" type="qcurve"/>
      <point x="391" y="-30"/>
      <point x="278" y="-1"/>
      <point x="194" y="60"/>
      <point x="146" y="157"/>
      <point x="146" y="226" type="qcurve"/>
      <point x="146" y="259"/>
      <point x="152" y="298" type="qcurve"/>
      <point x="271" y="974" type="line"/>
      <point x="499" y="1004" type="line"/>
    </contour>
  </outline>
</glyph>
<glyph name="v" format="2">
  <advance width="1024"/>
  <unicode hex="0076"/>
  <guideline x="698" y="0" angle="110"/>
  <guideline x="397" y="0" angle="110"/>
  <guideline x="627" y="0" angle="70"/>
  <guideline x="473" y="0" angle="70"/>
  <guideline x="487" y="0" angle="90"/>
  <anchor x="512" y="0" name="AccentBelow"/>
  <anchor x="512" y="1100" name="AccentDefault"/>
  <anchor x="512" y="486" name="AccentMiddle"/>
  <outline>
    <contour>
      <point x="509" y="1004" type="line" name="dh02"/>
      <point x="640" y="308" type="line" name="iv01"/>
      <point x="1016" y="1004" type="line" name="dh03"/>
      <point x="1152" y="974" type="line" name="dh04"/>
      <point x="627" y="0" type="line" name="ab01"/>
      <point x="397" y="0" type="line"/>
      <point x="213" y="974" type="line" name="dh01"/>
    </contour>
  </outline>
</glyph>
<glyph name="w" format="2">
  <advance width="1440"/>
  <unicode hex="0077"/>
  <outline>
    <contour>
      <point x="1085" y="1004" type="line"/>
      <point x="1151" y="368" type="line"/>
      <point x="1444" y="1004" type="line"/>
      <point x="1580" y="974" type="line"/>
      <point x="1128" y="0" type="line"/>
      <point x="898" y="0" type="line"/>
      <point x="828" y="621" type="line"/>
      <point x="540" y="0" type="line"/>
      <point x="310" y="0" type="line"/>
      <point x="201" y="974" type="line"/>
      <point x="497" y="1004" type="line"/>
      <point x="563" y="368" type="line"/>
      <point x="856" y="1004" type="line"/>
    </contour>
  </outline>
</glyph>
<glyph name="x" format="2">
  <advance width="1024"/>
  <unicode hex="0078"/>
  <outline>
    <contour>
      <point x="531" y="1004" type="line"/>
      <point x="700" y="683" type="line"/>
      <point x="982" y="1004" type="line"/>
      <point x="1116" y="974" type="line"/>
      <point x="761" y="569" type="line"/>
      <point x="1057" y="0" type="line"/>
      <point x="762" y="-30" type="line"/>
      <point x="566" y="346" type="line"/>
      <point x="236" y="-30" type="line"/>
      <point x="102" y="0" type="line"/>
      <point x="505" y="460" type="line"/>
      <point x="237" y="974" type="line"/>
    </contour>
  </outline>
</glyph>
<glyph name="z" format="2">
  <advance width="960"/>
  <unicode hex="007A"/>
  <anchor x="512" y="0" name="AccentBelow"/>
  <anchor x="512" y="1100" name="AccentDefault"/>
  <anchor x="480" y="486" name="AccentMiddle"/>
  <outline>
    <contour>
      <point x="40" y="60" type="line"/>
      <point x="742" y="862" type="line"/>
      <point x="230" y="835" type="line"/>
      <point x="254" y="974" type="line"/>
      <point x="1101" y="974" type="line"/>
      <point x="1091" y="914" type="line"/>
      <point x="379" y="112" type="line"/>
      <point x="953" y="141" type="line"/>
      <point x="929" y="0" type="line"/>
      <point x="30" y="0" type="line"/>
    </contour>
  </outline>
</glyph>
<glyph name="bar" format="2">
  <advance width="736"/>
  <unicode hex="007C"/>
  <outline>
    <contour>
      <point x="802" y="1682" type="line"/>
      <point x="456" y="-278" type="line"/>
      <point x="204" y="-278" type="line"/>
      <point x="550" y="1682" type="line"/>
    </contour>
  </outline>
</glyph>
<glyph name="braceright" format="2">
  <advance width="736"/>
  <unicode hex="007D"/>
  <outline>
    <contour>
      <point x="344" y="1464" type="line"/>
      <point x="410" y="1463"/>
      <point x="542" y="1449"/>
      <point x="649" y="1401"/>
      <point x="715" y="1309"/>
      <point x="715" y="1231" type="qcurve"/>
      <point x="715" y="1189"/>
      <point x="706" y="1140" type="qcurve"/>
      <point x="673" y="956" type="line"/>
      <point x="665" y="912"/>
      <point x="655" y="836"/>
      <point x="655" y="803" type="qcurve"/>
      <point x="655" y="768"/>
      <point x="670" y="713"/>
      <point x="705" y="675"/>
      <point x="764" y="654"/>
      <point x="809" y="654" type="qcurve"/>
      <point x="787" y="532" type="line"/>
      <point x="721" y="532"/>
      <point x="637" y="488"/>
      <point x="586" y="408"/>
      <point x="557" y="297"/>
      <point x="545" y="230" type="qcurve"/>
      <point x="511" y="36" type="line"/>
      <point x="493" y="-64"/>
      <point x="410" y="-187"/>
      <point x="287" y="-254"/>
      <point x="128" y="-277"/>
      <point x="36" y="-278" type="qcurve"/>
      <point x="59" y="-156" type="line"/>
      <point x="117" y="-156"/>
      <point x="187" y="-138"/>
      <point x="227" y="-97"/>
      <point x="247" y="-29"/>
      <point x="256" y="21" type="qcurve"/>
      <point x="301" y="269" type="line"/>
      <point x="310" y="325"/>
      <point x="350" y="419"/>
      <point x="414" y="498"/>
      <point x="504" y="565"/>
      <point x="564" y="593" type="qcurve"/>
      <point x="482" y="638"/>
      <point x="406" y="756"/>
      <point x="406" y="837" type="qcurve"/>
      <point x="406" y="856"/>
      <point x="410" y="896"/>
      <point x="414" y="917" type="qcurve"/>
      <point x="456" y="1153" type="line"/>
      <point x="461" y="1182"/>
      <point x="467" y="1227"/>
      <point x="467" y="1247" type="qcurve"/>
      <point x="467" y="1272"/>
      <point x="453" y="1308"/>
      <point x="420" y="1331"/>
      <point x="365" y="1342"/>
      <point x="323" y="1342" type="qcurve"/>
    </contour>
  </outline>
</glyph>
<glyph name="asciitilde" format="2">
  <advance width="1248"/>
  <unicode hex="007E"/>
  <outline>
    <contour>
      <point x="147" y="386" type="line"/>
      <point x="147" y="427"/>
      <point x="190" y="526"/>
      <point x="273" y="611"/>
      <point x="395" y="669"/>
      <point x="473" y="669" type="qcurve"/>
      <point x="531" y="669"/>
      <point x="623" y="642"/>
      <point x="701" y="602"/>
      <point x="767" y="554"/>
      <point x="833" y="514"/>
      <point x="903" y="487"/>
      <point x="944" y="487" type="qcurve"/>
      <point x="988" y="487"/>
      <point x="1057" y="518"/>
      <point x="1104" y="569"/>
      <point x="1129" y="634"/>
      <point x="1129" y="669" type="qcurve"/>
      <point x="1191" y="669" type="line"/>
      <point x="1271" y="589" type="line"/>
      <point x="1271" y="548"/>
      <point x="1228" y="449"/>
      <point x="1144" y="363"/>
      <point x="1022" y="305"/>
      <point x="943" y="305" type="qcurve"/>
      <point x="881" y="305"/>
      <point x="787" y="332"/>
      <point x="712" y="372"/>
      <point x="649" y="420"/>
      <point x="586" y="460"/>
      <point x="516" y="487"/>
      <point x="472" y="487" type="qcurve"/>
      <point x="428" y="487"/>
      <point x="360" y="456"/>
      <point x="314" y="405"/>
      <point x="289" y="340"/>
      <point x="289" y="305" type="qcurve"/>
      <point x="227" y="305" type="line"/>
    </contour>
  </outline>
</glyph>
<glyph name="exclamdown" format="2">
  <advance width="736"/>
  <unicode hex="00A1"/>
  <outline>
    <contour>
      <point x="654" y="599" type="line"/>
      <point x="567" y="-460" type="line"/>
      <point x="532" y="-490" type="line"/>
      <point x="240" y="-490" type="line"/>
      <point x="215" y="-460" type="line"/>
      <point x="502" y="599" type="line"/>
    </contour>
    <contour>
      <point x="478" y="858" type="qcurve"/>
      <point x="478" y="888"/>
      <point x="501" y="942"/>
      <point x="540" y="981"/>
      <point x="594" y="1004"/>
      <point x="624" y="1004" type="qcurve"/>
      <point x="654" y="1004"/>
      <point x="708" y="981"/>
      <point x="747" y="942"/>
      <point x="770" y="888"/>
      <point x="770" y="858" type="qcurve"/>
      <point x="770" y="828"/>
      <point x="747" y="774"/>
      <point x="708" y="735"/>
      <point x="654" y="712"/>
      <point x="624" y="712" type="qcurve"/>
      <point x="594" y="712"/>
      <point x="540" y="735"/>
      <point x="501" y="774"/>
      <point x="478" y="828"/>
    </contour>
  </outline>
</glyph>
<glyph name="cent" format="2">
  <advance width="1120"/>
  <unicode hex="00A2"/>
  <outline>
    <contour>
      <point x="1037" y="1226" type="line"/>
      <point x="1149" y="1189" type="line"/>
      <point x="1032" y="955" type="line"/>
      <point x="1070" y="935"/>
      <point x="1123" y="882"/>
      <point x="1147" y="852" type="qcurve"/>
      <point x="1033" y="740" type="line"/>
      <point x="1021" y="760"/>
      <point x="988" y="808"/>
      <point x="967" y="829" type="qcurve"/>
      <point x="601" y="98" type="line"/>
      <point x="630" y="82"/>
      <point x="670" y="82" type="qcurve"/>
      <point x="706" y="82"/>
      <point x="773" y="109"/>
      <point x="832" y="152"/>
      <point x="883" y="206"/>
      <point x="905" y="234" type="qcurve"/>
      <point x="1018" y="122" type="line"/>
      <point x="983" y="90"/>
      <point x="904" y="34"/>
      <point x="809" y="-7"/>
      <point x="693" y="-30"/>
      <point x="620" y="-30" type="qcurve"/>
      <point x="578" y="-30"/>
      <point x="539" y="-24" type="qcurve"/>
      <point x="434" y="-234" type="line"/>
      <point x="322" y="-197" type="line"/>
      <point x="424" y="6" type="line"/>
      <point x="314" y="53"/>
      <point x="197" y="246"/>
      <point x="197" y="377" type="qcurve"/>
      <point x="197" y="462"/>
      <point x="239" y="622"/>
      <point x="317" y="761"/>
      <point x="427" y="876"/>
      <point x="562" y="959"/>
      <point x="718" y="1004"/>
      <point x="803" y="1004" type="qcurve"/>
      <point x="836" y="1004"/>
      <point x="895" y="999"/>
      <point x="920" y="994" type="qcurve"/>
    </contour>
    <contour>
      <point x="866" y="886" type="line"/>
      <point x="840" y="892"/>
      <point x="813" y="892" type="qcurve"/>
      <point x="770" y="892"/>
      <point x="688" y="849"/>
      <point x="616" y="774"/>
      <point x="556" y="671"/>
      <point x="512" y="553"/>
      <point x="488" y="423"/>
      <point x="488" y="358" type="qcurve"/>
      <point x="488" y="309"/>
      <point x="504" y="226"/>
      <point x="518" y="193" type="qcurve"/>
    </contour>
  </outline>
</glyph>
<glyph name="sterling" format="2">
  <advance width="1120"/>
  <unicode hex="00A3"/>
  <guideline x="0" y="727" angle="357.17"/>
  <guideline x="304" y="0" angle="80"/>
  <guideline x="915" y="0" angle="90"/>
  <guideline x="-57" y="0" angle="45"/>
  <guideline x="1169" y="0" angle="135"/>
  <outline>
    <contour>
      <point x="238" y="803" type="line" name="hr00"/>
      <point x="440" y="803" type="line" name="sh01"/>
      <point x="445" y="833"/>
      <point x="448" y="881"/>
      <point x="448" y="901" type="qcurve" name="hr01"/>
      <point x="448" y="941"/>
      <point x="440" y="1002"/>
      <point x="440" y="1041" type="qcurve" name="dh04"/>
      <point x="440" y="1138"/>
      <point x="519" y="1295"/>
      <point x="650" y="1405"/>
      <point x="818" y="1464"/>
      <point x="908" y="1464" type="qcurve" name="at01"/>
      <point x="1030" y="1464"/>
      <point x="1197" y="1383"/>
      <point x="1254" y="1311" type="qcurve" name="ah02"/>
      <point x="1144" y="1201" type="line"/>
      <point x="1133" y="1225"/>
      <point x="1102" y="1278"/>
      <point x="1055" y="1323"/>
      <point x="988" y="1352"/>
      <point x="941" y="1352" type="qcurve" name="sv01"/>
      <point x="900" y="1352"/>
      <point x="825" y="1320"/>
      <point x="767" y="1261"/>
      <point x="732" y="1176"/>
      <point x="732" y="1122" type="qcurve" name="dh03"/>
      <point x="732" y="1090"/>
      <point x="724" y="1002"/>
      <point x="714" y="912"/>
      <point x="705" y="830"/>
      <point x="703" y="803" type="qcurve" name="sh02"/>
      <point x="981" y="803" type="line"/>
      <point x="959" y="678" type="line"/>
      <point x="684" y="693" type="line" name="dh01"/>
      <point x="668" y="602"/>
      <point x="590" y="432"/>
      <point x="490" y="283"/>
      <point x="382" y="158"/>
      <point x="336" y="112" type="qcurve" name="sv02"/>
      <point x="387" y="108"/>
      <point x="496" y="97"/>
      <point x="598" y="88"/>
      <point x="685" y="82"/>
      <point x="714" y="82" type="qcurve" name="sv03"/>
      <point x="753" y="82"/>
      <point x="816" y="110"/>
      <point x="869" y="153"/>
      <point x="913" y="207"/>
      <point x="932" y="234" type="qcurve"/>
      <point x="1045" y="122" type="line" name="ah01"/>
      <point x="1025" y="103"/>
      <point x="965" y="51"/>
      <point x="878" y="3"/>
      <point x="759" y="-30"/>
      <point x="680" y="-30" type="qcurve" name="ab02"/>
      <point x="600" y="-30"/>
      <point x="463" y="-21"/>
      <point x="328" y="-9"/>
      <point x="183" y="0"/>
      <point x="95" y="0" type="qcurve" name="ab01"/>
      <point x="115" y="112" type="line" name="ah04"/>
      <point x="169" y="158"/>
      <point x="264" y="261"/>
      <point x="345" y="399"/>
      <point x="408" y="581"/>
      <point x="430" y="706" type="qcurve" name="dh02"/>
      <point x="222" y="718" type="line" name="ah03"/>
    </contour>
  </outline>
</glyph>
<glyph name="currency" format="2">
  <advance width="1024"/>
  <unicode hex="00A4"/>
  <guideline x="0" y="846" angle="0"/>
  <guideline x="168" y="0" angle="90"/>
  <guideline x="777" y="0" angle="90"/>
  <outline>
    <contour>
      <point x="287" y="1189" type="line" name="av01"/>
      <point x="411" y="1063" type="line" name="sh03"/>
      <point x="517" y="1136"/>
      <point x="640" y="1136" type="qcurve" name="dv04"/>
      <point x="762" y="1136"/>
      <point x="871" y="1059" type="qcurve" name="sh04"/>
      <point x="1002" y="1189" type="line" name="sv01"/>
      <point x="1098" y="1093" type="line" name="ah03"/>
      <point x="967" y="963" type="line"/>
      <point x="1003" y="911"/>
      <point x="1039" y="796"/>
      <point x="1039" y="738" type="qcurve" name="sh05"/>
      <point x="1039" y="678"/>
      <point x="1001" y="562"/>
      <point x="965" y="511" type="qcurve"/>
      <point x="1098" y="378" type="line" name="sh06"/>
      <point x="1002" y="282" type="line" name="av02"/>
      <point x="871" y="413" type="line" name="sh07"/>
      <point x="764" y="337"/>
      <point x="640" y="337" type="qcurve" name="dv01"/>
      <point x="519" y="337"/>
      <point x="413" y="409" type="qcurve" name="sh08"/>
      <point x="287" y="282" type="line" name="sv02"/>
      <point x="191" y="378" type="line" name="ah02"/>
      <point x="317" y="503" type="line"/>
      <point x="279" y="555"/>
      <point x="242" y="673"/>
      <point x="242" y="736" type="qcurve" name="sh01"/>
      <point x="242" y="862"/>
      <point x="317" y="969" type="qcurve"/>
      <point x="191" y="1093" type="line" name="sh09"/>
    </contour>
    <contour>
      <point x="640" y="954" type="qcurve" name="dv03"/>
      <point x="595" y="954"/>
      <point x="517" y="918"/>
      <point x="458" y="858"/>
      <point x="424" y="779"/>
      <point x="424" y="736" type="qcurve" name="sh02"/>
      <point x="424" y="693"/>
      <point x="458" y="614"/>
      <point x="517" y="554"/>
      <point x="595" y="519"/>
      <point x="640" y="519" type="qcurve" name="dv02"/>
      <point x="683" y="519"/>
      <point x="761" y="553"/>
      <point x="821" y="612"/>
      <point x="857" y="691"/>
      <point x="857" y="736" type="qcurve" name="ah01"/>
      <point x="857" y="779"/>
      <point x="821" y="858"/>
      <point x="761" y="918"/>
      <point x="683" y="954"/>
    </contour>
  </outline>
</glyph>
<glyph name="yen" format="2">
  <advance width="1024"/>
  <unicode hex="00A5"/>
  <outline>
    <contour>
      <point x="554" y="1464" type="line"/>
      <point x="690" y="732" type="line"/>
      <point x="1086" y="1464" type="line"/>
      <point x="1241" y="1434" type="line"/>
      <point x="993" y="974" type="line"/>
      <point x="1160" y="974" type="line"/>
      <point x="1139" y="852" type="line"/>
      <point x="928" y="852" type="line"/>
      <point x="826" y="665" type="line"/>
      <point x="1106" y="665" type="line"/>
      <point x="1085" y="543" type="line"/>
      <point x="763" y="543" type="line"/>
      <point x="668" y="0" type="line"/>
      <point x="356" y="0" type="line"/>
      <point x="451" y="543" type="line"/>
      <point x="130" y="543" type="line"/>
      <point x="151" y="665" type="line"/>
      <point x="432" y="665" type="line"/>
      <point x="397" y="852" type="line"/>
      <point x="185" y="852" type="line"/>
      <point x="207" y="974" type="line"/>
      <point x="373" y="974" type="line"/>
      <point x="287" y="1434" type="line"/>
    </contour>
  </outline>
</glyph>
<glyph name="brokenbar" format="2">
  <advance width="736"/>
  <unicode hex="00A6"/>
  <outline>
    <contour>
      <point x="779" y="1682" type="line"/>
      <point x="632" y="848" type="line"/>
      <point x="380" y="848" type="line"/>
      <point x="527" y="1682" type="line"/>
    </contour>
    <contour>
      <point x="181" y="-278" type="line"/>
      <point x="329" y="556" type="line"/>
      <point x="581" y="556" type="line"/>
      <point x="433" y="-278" type="line"/>
    </contour>
  </outline>
</glyph>
<glyph name="section" format="2">
  <advance width="1024"/>
  <unicode hex="00A7"/>
  <outline>
    <contour>
      <point x="496" y="510" type="qcurve"/>
      <point x="496" y="468"/>
      <point x="526" y="395"/>
      <point x="574" y="332"/>
      <point x="633" y="277"/>
      <point x="662" y="253" type="qcurve"/>
      <point x="710" y="296"/>
      <point x="763" y="411"/>
      <point x="763" y="468" type="qcurve"/>
      <point x="763" y="511"/>
      <point x="733" y="584"/>
      <point x="685" y="646"/>
      <point x="626" y="698"/>
      <point x="597" y="721" type="qcurve"/>
      <point x="552" y="680"/>
      <point x="496" y="568"/>
    </contour>
    <contour>
      <point x="440" y="-490" type="qcurve"/>
      <point x="379" y="-490"/>
      <point x="277" y="-464"/>
      <point x="192" y="-422"/>
      <point x="121" y="-367"/>
      <point x="92" y="-338" type="qcurve"/>
      <point x="204" y="-226" type="line"/>
      <point x="219" y="-259"/>
      <point x="265" y="-314"/>
      <point x="319" y="-355"/>
      <point x="378" y="-378"/>
      <point x="407" y="-378" type="qcurve"/>
      <point x="451" y="-378"/>
      <point x="522" y="-341"/>
      <point x="571" y="-281"/>
      <point x="598" y="-207"/>
      <point x="598" y="-169" type="qcurve"/>
      <point x="598" y="-101"/>
      <point x="540" y="0"/>
      <point x="452" y="86"/>
      <point x="350" y="165"/>
      <point x="262" y="257"/>
      <point x="204" y="372"/>
      <point x="204" y="449" type="qcurve"/>
      <point x="204" y="518"/>
      <point x="249" y="634"/>
      <point x="325" y="731"/>
      <point x="423" y="810"/>
      <point x="477" y="843" type="qcurve"/>
      <point x="440" y="891"/>
      <point x="399" y="1000"/>
      <point x="399" y="1065" type="qcurve"/>
      <point x="399" y="1150"/>
      <point x="470" y="1296"/>
      <point x="587" y="1403"/>
      <point x="739" y="1464"/>
      <point x="819" y="1464" type="qcurve"/>
      <point x="888" y="1464"/>
      <point x="988" y="1440"/>
      <point x="1067" y="1398"/>
      <point x="1133" y="1343"/>
      <point x="1168" y="1312" type="qcurve"/>
      <point x="1056" y="1200" type="line"/>
      <point x="1045" y="1225"/>
      <point x="1004" y="1279"/>
      <point x="949" y="1323"/>
      <point x="884" y="1352"/>
      <point x="848" y="1352" type="qcurve"/>
      <point x="803" y="1352"/>
      <point x="734" y="1314"/>
      <point x="686" y="1252"/>
      <point x="661" y="1176"/>
      <point x="661" y="1139" type="qcurve"/>
      <point x="661" y="1071"/>
      <point x="719" y="971"/>
      <point x="807" y="886"/>
      <point x="909" y="807"/>
      <point x="997" y="716"/>
      <point x="1055" y="602"/>
      <point x="1055" y="525" type="qcurve"/>
      <point x="1055" y="456"/>
      <point x="1010" y="340"/>
      <point x="934" y="242"/>
      <point x="835" y="162"/>
      <point x="781" y="129" type="qcurve"/>
      <point x="819" y="82"/>
      <point x="860" y="-28"/>
      <point x="860" y="-94" type="qcurve"/>
      <point x="860" y="-180"/>
      <point x="789" y="-325"/>
      <point x="672" y="-431"/>
      <point x="521" y="-490"/>
    </contour>
  </outline>
</glyph>
<glyph name="dieresis" format="2">
  <advance width="768"/>
  <unicode hex="00A8"/>
  <outline>
    <contour>
      <point x="251" y="1302" type="qcurve"/>
      <point x="251" y="1330"/>
      <point x="271" y="1378"/>
      <point x="306" y="1414"/>
      <point x="354" y="1434"/>
      <point x="381" y="1434" type="qcurve"/>
      <point x="409" y="1434"/>
      <point x="457" y="1414"/>
      <point x="493" y="1378"/>
      <point x="513" y="1330"/>
      <point x="513" y="1302" type="qcurve"/>
      <point x="513" y="1275"/>
      <point x="493" y="1227"/>
      <point x="457" y="1192"/>
      <point x="409" y="1172"/>
      <point x="381" y="1172" type="qcurve"/>
      <point x="354" y="1172"/>
      <point x="306" y="1192"/>
      <point x="271" y="1227"/>
      <point x="251" y="1275"/>
    </contour>
    <contour>
      <point x="713" y="1302" type="qcurve"/>
      <point x="713" y="1330"/>
      <point x="733" y="1378"/>
      <point x="768" y="1414"/>
      <point x="816" y="1434"/>
      <point x="843" y="1434" type="qcurve"/>
      <point x="871" y="1434"/>
      <point x="919" y="1414"/>
      <point x="955" y="1378"/>
      <point x="975" y="1330"/>
      <point x="975" y="1302" type="qcurve"/>
      <point x="975" y="1275"/>
      <point x="955" y="1227"/>
      <point x="919" y="1192"/>
      <point x="871" y="1172"/>
      <point x="843" y="1172" type="qcurve"/>
      <point x="816" y="1172"/>
      <point x="768" y="1192"/>
      <point x="733" y="1227"/>
      <point x="713" y="1275"/>
    </contour>
  </outline>
</glyph>
<glyph name="copyright" format="2">
  <advance width="1600"/>
  <unicode hex="00A9"/>
  <outline>
    <contour>
      <point x="1057" y="1464" type="qcurve"/>
      <point x="1195" y="1464"/>
      <point x="1426" y="1369"/>
      <point x="1593" y="1203"/>
      <point x="1685" y="977"/>
      <point x="1685" y="845" type="qcurve"/>
      <point x="1685" y="728"/>
      <point x="1616" y="507"/>
      <point x="1494" y="312"/>
      <point x="1326" y="151"/>
      <point x="1127" y="34"/>
      <point x="907" y="-30"/>
      <point x="793" y="-30" type="qcurve"/>
      <point x="655" y="-30"/>
      <point x="424" y="64"/>
      <point x="259" y="229"/>
      <point x="167" y="454"/>
      <point x="167" y="586" type="qcurve"/>
      <point x="167" y="703"/>
      <point x="236" y="924"/>
      <point x="357" y="1119"/>
      <point x="525" y="1282"/>
      <point x="722" y="1399"/>
      <point x="943" y="1464"/>
    </contour>
    <contour>
      <point x="291" y="615" type="qcurve"/>
      <point x="291" y="506"/>
      <point x="370" y="315"/>
      <point x="510" y="174"/>
      <point x="702" y="92"/>
      <point x="815" y="92" type="qcurve"/>
      <point x="907" y="92"/>
      <point x="1089" y="147"/>
      <point x="1254" y="245"/>
      <point x="1397" y="381"/>
      <point x="1501" y="542"/>
      <point x="1561" y="724"/>
      <point x="1561" y="819" type="qcurve"/>
      <point x="1561" y="928"/>
      <point x="1482" y="1118"/>
      <point x="1341" y="1260"/>
      <point x="1148" y="1342"/>
      <point x="1035" y="1342" type="qcurve"/>
      <point x="943" y="1342"/>
      <point x="761" y="1287"/>
      <point x="595" y="1189"/>
      <point x="454" y="1053"/>
      <point x="350" y="891"/>
      <point x="291" y="710"/>
    </contour>
    <contour>
      <point x="1223" y="931" type="line"/>
      <point x="1209" y="954"/>
      <point x="1175" y="995"/>
      <point x="1130" y="1025"/>
      <point x="1072" y="1043"/>
      <point x="1035" y="1043" type="qcurve"/>
      <point x="980" y="1043"/>
      <point x="881" y="969"/>
      <point x="807" y="846"/>
      <point x="764" y="688"/>
      <point x="764" y="605" type="qcurve"/>
      <point x="764" y="494"/>
      <point x="844" y="388"/>
      <point x="914" y="388" type="qcurve"/>
      <point x="975" y="388"/>
      <point x="1077" y="454"/>
      <point x="1113" y="502" type="qcurve"/>
      <point x="1209" y="406" type="line"/>
      <point x="1179" y="379"/>
      <point x="1112" y="331"/>
      <point x="1032" y="296"/>
      <point x="933" y="276"/>
      <point x="871" y="276" type="qcurve"/>
      <point x="786" y="276"/>
      <point x="653" y="327"/>
      <point x="561" y="418"/>
      <point x="512" y="545"/>
      <point x="512" y="622" type="qcurve"/>
      <point x="512" y="731"/>
      <point x="591" y="925"/>
      <point x="730" y="1071"/>
      <point x="918" y="1155"/>
      <point x="1027" y="1155" type="qcurve"/>
      <point x="1088" y="1155"/>
      <point x="1180" y="1135"/>
      <point x="1249" y="1100"/>
      <point x="1299" y="1053"/>
      <point x="1319" y="1026" type="qcurve"/>
    </contour>
  </outline>
</glyph>
<glyph name="ordfeminine" format="2">
  <advance width="864"/>
  <unicode hex="00AA"/>
  <outline>
    <contour>
      <point x="726" y="1059" type="line"/>
      <point x="672" y="1054"/>
      <point x="557" y="1025"/>
      <point x="463" y="970"/>
      <point x="402" y="886"/>
      <point x="402" y="827" type="qcurve"/>
      <point x="402" y="797"/>
      <point x="421" y="762"/>
      <point x="451" y="744"/>
      <point x="488" y="739"/>
      <point x="505" y="739" type="qcurve"/>
      <point x="527" y="739"/>
      <point x="578" y="755"/>
      <point x="627" y="781"/>
      <point x="671" y="814"/>
      <point x="686" y="831" type="qcurve"/>
    </contour>
    <contour>
      <point x="272" y="1343" type="line"/>
      <point x="354" y="1400"/>
      <point x="543" y="1464"/>
      <point x="636" y="1464" type="qcurve"/>
      <point x="696" y="1464"/>
      <point x="814" y="1430"/>
      <point x="908" y="1363"/>
      <point x="966" y="1265"/>
      <point x="966" y="1202" type="qcurve"/>
      <point x="966" y="1188"/>
      <point x="963" y="1162"/>
      <point x="961" y="1148" type="qcurve"/>
      <point x="898" y="793" type="line"/>
      <point x="898" y="789"/>
      <point x="897" y="782"/>
      <point x="897" y="778" type="qcurve"/>
      <point x="897" y="739"/>
      <point x="946" y="739" type="qcurve"/>
      <point x="928" y="637" type="line"/>
      <point x="862" y="637"/>
      <point x="778" y="651"/>
      <point x="727" y="675"/>
      <point x="701" y="708"/>
      <point x="692" y="727" type="qcurve"/>
      <point x="668" y="709"/>
      <point x="612" y="677"/>
      <point x="546" y="652"/>
      <point x="469" y="637"/>
      <point x="424" y="637" type="qcurve"/>
      <point x="371" y="637"/>
      <point x="285" y="661"/>
      <point x="224" y="707"/>
      <point x="190" y="774"/>
      <point x="190" y="818" type="qcurve"/>
      <point x="190" y="897"/>
      <point x="272" y="1015"/>
      <point x="419" y="1094"/>
      <point x="621" y="1136"/>
      <point x="740" y="1140" type="qcurve"/>
      <point x="750" y="1195" type="line"/>
      <point x="754" y="1218"/>
      <point x="754" y="1243" type="qcurve"/>
      <point x="754" y="1273"/>
      <point x="731" y="1318"/>
      <point x="691" y="1347"/>
      <point x="636" y="1362"/>
      <point x="604" y="1362" type="qcurve"/>
      <point x="582" y="1362"/>
      <point x="526" y="1352"/>
      <point x="463" y="1327"/>
      <point x="395" y="1285"/>
      <point x="362" y="1253" type="qcurve"/>
    </contour>
  </outline>
</glyph>
<glyph name="guillemotleft" format="2">
  <advance width="1024"/>
  <unicode hex="00AB"/>
  <outline>
    <contour>
      <point x="531" y="906" type="line"/>
      <point x="740" y="868" type="line"/>
      <point x="411" y="487" type="line"/>
      <point x="605" y="106" type="line"/>
      <point x="381" y="68" type="line"/>
      <point x="127" y="487" type="line"/>
    </contour>
    <contour>
      <point x="926" y="906" type="line"/>
      <point x="1135" y="868" type="line"/>
      <point x="806" y="487" type="line"/>
      <point x="1000" y="106" type="line"/>
      <point x="776" y="68" type="line"/>
      <point x="522" y="487" type="line"/>
    </contour>
  </outline>
</glyph>
<glyph name="logicalnot" format="2">
  <advance width="1152"/>
  <unicode hex="00AC"/>
  <outline>
    <contour>
      <point x="1219" y="805" type="line"/>
      <point x="1123" y="256" type="line"/>
      <point x="871" y="256" type="line"/>
      <point x="930" y="593" type="line"/>
      <point x="176" y="593" type="line"/>
      <point x="213" y="805" type="line"/>
    </contour>
  </outline>
</glyph>
<glyph name="registered" format="2">
  <advance width="1600"/>
  <unicode hex="00AE"/>
  <outline>
    <contour>
      <point x="1057" y="1464" type="qcurve"/>
      <point x="1195" y="1464"/>
      <point x="1426" y="1369"/>
      <point x="1593" y="1203"/>
      <point x="1685" y="977"/>
      <point x="1685" y="845" type="qcurve"/>
      <point x="1685" y="728"/>
      <point x="1616" y="507"/>
      <point x="1494" y="312"/>
      <point x="1326" y="151"/>
      <point x="1127" y="34"/>
      <point x="907" y="-30"/>
      <point x="793" y="-30" type="qcurve"/>
      <point x="655" y="-30"/>
      <point x="424" y="64"/>
      <point x="259" y="229"/>
      <point x="167" y="454"/>
      <point x="167" y="586" type="qcurve"/>
      <point x="167" y="703"/>
      <point x="236" y="924"/>
      <point x="357" y="1119"/>
      <point x="525" y="1282"/>
      <point x="722" y="1399"/>
      <point x="943" y="1464"/>
    </contour>
    <contour>
      <point x="291" y="615" type="qcurve"/>
      <point x="291" y="506"/>
      <point x="370" y="315"/>
      <point x="510" y="174"/>
      <point x="702" y="92"/>
      <point x="815" y="92" type="qcurve"/>
      <point x="907" y="92"/>
      <point x="1089" y="147"/>
      <point x="1254" y="245"/>
      <point x="1397" y="381"/>
      <point x="1501" y="542"/>
      <point x="1561" y="724"/>
      <point x="1561" y="819" type="qcurve"/>
      <point x="1561" y="928"/>
      <point x="1482" y="1118"/>
      <point x="1341" y="1260"/>
      <point x="1148" y="1342"/>
      <point x="1035" y="1342" type="qcurve"/>
      <point x="943" y="1342"/>
      <point x="761" y="1287"/>
      <point x="595" y="1189"/>
      <point x="454" y="1053"/>
      <point x="350" y="891"/>
      <point x="291" y="710"/>
    </contour>
    <contour>
      <point x="886" y="1073" type="line"/>
      <point x="825" y="727" type="line"/>
      <point x="895" y="727" type="line"/>
      <point x="935" y="727"/>
      <point x="1006" y="766"/>
      <point x="1058" y="826"/>
      <point x="1089" y="900"/>
      <point x="1089" y="936" type="qcurve"/>
      <point x="1089" y="966"/>
      <point x="1067" y="1017"/>
      <point x="1030" y="1053"/>
      <point x="982" y="1073"/>
      <point x="957" y="1073" type="qcurve"/>
    </contour>
    <contour>
      <point x="708" y="1155" type="line"/>
      <point x="985" y="1155" type="line"/>
      <point x="1134" y="1155"/>
      <point x="1281" y="1053"/>
      <point x="1281" y="958" type="qcurve"/>
      <point x="1281" y="898"/>
      <point x="1230" y="803"/>
      <point x="1149" y="733"/>
      <point x="1047" y="685"/>
      <point x="996" y="672" type="qcurve"/>
      <point x="1230" y="296" type="line"/>
      <point x="1021" y="277" type="line"/>
      <point x="830" y="645" type="line"/>
      <point x="810" y="645" type="line"/>
      <point x="749" y="295" type="line"/>
      <point x="557" y="295" type="line"/>
    </contour>
  </outline>
</glyph>
<glyph name="macron" format="2">
  <advance width="768"/>
  <unicode hex="00AF"/>
  <outline>
    <contour>
      <point x="310" y="1354" type="line"/>
      <point x="902" y="1354" type="line"/>
      <point x="870" y="1172" type="line"/>
      <point x="278" y="1172" type="line"/>
    </contour>
  </outline>
</glyph>
<glyph name="degree" format="2">
  <advance width="768"/>
  <unicode hex="00B0"/>
  <outline>
    <contour>
      <point x="464" y="1272" type="qcurve"/>
      <point x="464" y="1241"/>
      <point x="486" y="1188"/>
      <point x="524" y="1149"/>
      <point x="576" y="1126"/>
      <point x="606" y="1126" type="qcurve"/>
      <point x="636" y="1126"/>
      <point x="689" y="1149"/>
      <point x="729" y="1188"/>
      <point x="752" y="1241"/>
      <point x="752" y="1272" type="qcurve"/>
      <point x="752" y="1300"/>
      <point x="729" y="1352"/>
      <point x="689" y="1391"/>
      <point x="636" y="1414"/>
      <point x="606" y="1414" type="qcurve"/>
      <point x="576" y="1414"/>
      <point x="524" y="1391"/>
      <point x="486" y="1352"/>
      <point x="464" y="1300"/>
    </contour>
    <contour>
      <point x="312" y="1271" type="qcurve"/>
      <point x="312" y="1331"/>
      <point x="357" y="1439"/>
      <point x="437" y="1519"/>
      <point x="545" y="1566"/>
      <point x="607" y="1566" type="qcurve"/>
      <point x="668" y="1566"/>
      <point x="776" y="1519"/>
      <point x="857" y="1439"/>
      <point x="904" y="1331"/>
      <point x="904" y="1271" type="qcurve"/>
      <point x="904" y="1207"/>
      <point x="857" y="1098"/>
      <point x="776" y="1019"/>
      <point x="668" y="974"/>
      <point x="607" y="974" type="qcurve"/>
      <point x="545" y="974"/>
      <point x="437" y="1019"/>
      <point x="357" y="1098"/>
      <point x="312" y="1207"/>
    </contour>
  </outline>
</glyph>
<glyph name="plusminus" format="2">
  <advance width="1152"/>
  <unicode hex="00B1"/>
  <outline>
    <contour>
      <point x="112" y="212" type="line"/>
      <point x="1114" y="212" type="line"/>
      <point x="1077" y="0" type="line"/>
      <point x="75" y="0" type="line"/>
    </contour>
    <contour>
      <point x="224" y="762" type="line"/>
      <point x="261" y="974" type="line"/>
      <point x="641" y="974" type="line"/>
      <point x="708" y="1355" type="line"/>
      <point x="920" y="1355" type="line"/>
      <point x="853" y="974" type="line"/>
      <point x="1233" y="974" type="line"/>
      <point x="1196" y="762" type="line"/>
      <point x="816" y="762" type="line"/>
      <point x="749" y="381" type="line"/>
      <point x="537" y="381" type="line"/>
      <point x="604" y="762" type="line"/>
    </contour>
  </outline>
</glyph>
<glyph name="twosuperior" format="2">
  <advance width="736"/>
  <unicode hex="00B2"/>
  <outline>
    <contour>
      <point x="319" y="1345" type="line"/>
      <point x="382" y="1402"/>
      <point x="527" y="1464"/>
      <point x="603" y="1464" type="qcurve"/>
      <point x="652" y="1464"/>
      <point x="742" y="1438"/>
      <point x="812" y="1386"/>
      <point x="854" y="1309"/>
      <point x="854" y="1257" type="qcurve"/>
      <point x="854" y="1186"/>
      <point x="794" y="1062"/>
      <point x="675" y="934"/>
      <point x="497" y="792"/>
      <point x="379" y="704" type="qcurve"/>
      <point x="756" y="725" type="line"/>
      <point x="731" y="586" type="line"/>
      <point x="184" y="586" type="line"/>
      <point x="190" y="621" type="line"/>
      <point x="294" y="724"/>
      <point x="446" y="881"/>
      <point x="553" y="1001"/>
      <point x="621" y="1090"/>
      <point x="658" y="1158"/>
      <point x="672" y="1212"/>
      <point x="672" y="1238" type="qcurve"/>
      <point x="672" y="1262"/>
      <point x="658" y="1303"/>
      <point x="633" y="1334"/>
      <point x="595" y="1352"/>
      <point x="571" y="1352" type="qcurve"/>
      <point x="473" y="1352"/>
      <point x="395" y="1269" type="qcurve"/>
    </contour>
  </outline>
</glyph>
<glyph name="threesuperior" format="2">
  <advance width="736"/>
  <unicode hex="00B3"/>
  <outline>
    <contour>
      <point x="606" y="1464" type="qcurve"/>
      <point x="654" y="1464"/>
      <point x="733" y="1438"/>
      <point x="790" y="1393"/>
      <point x="822" y="1331"/>
      <point x="822" y="1295" type="qcurve"/>
      <point x="822" y="1256"/>
      <point x="794" y="1193"/>
      <point x="749" y="1142"/>
      <point x="690" y="1103"/>
      <point x="659" y="1089" type="qcurve"/>
      <point x="681" y="1079"/>
      <point x="735" y="1046"/>
      <point x="780" y="998"/>
      <point x="811" y="933"/>
      <point x="811" y="891" type="qcurve"/>
      <point x="811" y="817"/>
      <point x="741" y="704"/>
      <point x="631" y="626"/>
      <point x="499" y="586"/>
      <point x="436" y="586" type="qcurve"/>
      <point x="389" y="586"/>
      <point x="316" y="607"/>
      <point x="259" y="642"/>
      <point x="217" y="684"/>
      <point x="201" y="705" type="qcurve"/>
      <point x="277" y="781" type="line"/>
      <point x="302" y="748"/>
      <point x="380" y="698"/>
      <point x="444" y="698" type="qcurve"/>
      <point x="487" y="698"/>
      <point x="556" y="730"/>
      <point x="604" y="784"/>
      <point x="629" y="855"/>
      <point x="629" y="894" type="qcurve"/>
      <point x="629" y="931"/>
      <point x="605" y="982"/>
      <point x="567" y="1014"/>
      <point x="520" y="1028"/>
      <point x="498" y="1028" type="qcurve"/>
      <point x="435" y="1028" type="line"/>
      <point x="454" y="1130" type="line"/>
      <point x="510" y="1130" type="line"/>
      <point x="542" y="1130"/>
      <point x="600" y="1148"/>
      <point x="644" y="1183"/>
      <point x="670" y="1233"/>
      <point x="670" y="1266" type="qcurve"/>
      <point x="670" y="1287"/>
      <point x="653" y="1319"/>
      <point x="626" y="1341"/>
      <point x="592" y="1352"/>
      <point x="574" y="1352" type="qcurve"/>
      <point x="532" y="1352"/>
      <point x="455" y="1309"/>
      <point x="422" y="1269" type="qcurve"/>
      <point x="346" y="1345" type="line"/>
      <point x="362" y="1364"/>
      <point x="416" y="1407"/>
      <point x="484" y="1441"/>
      <point x="563" y="1464"/>
    </contour>
  </outline>
</glyph>
<glyph name="acute" format="2">
  <advance width="768"/>
  <unicode hex="00B4"/>
  <outline>
    <contour>
      <point x="406" y="1219" type="line"/>
      <point x="687" y="1588" type="line"/>
      <point x="731" y="1588" type="line"/>
      <point x="849" y="1470" type="line"/>
      <point x="849" y="1426" type="line"/>
      <point x="483" y="1138" type="line"/>
    </contour>
  </outline>
</glyph>
<glyph name="periodcentered" format="2">
  <advance width="576"/>
  <unicode hex="00B7"/>
  <outline>
    <contour>
      <point x="215" y="497" type="qcurve"/>
      <point x="215" y="530"/>
      <point x="240" y="589"/>
      <point x="284" y="633"/>
      <point x="343" y="658"/>
      <point x="376" y="658" type="qcurve"/>
      <point x="409" y="658"/>
      <point x="468" y="633"/>
      <point x="512" y="589"/>
      <point x="537" y="530"/>
      <point x="537" y="497" type="qcurve"/>
      <point x="537" y="464"/>
      <point x="512" y="405"/>
      <point x="468" y="361"/>
      <point x="409" y="336"/>
      <point x="376" y="336" type="qcurve"/>
      <point x="343" y="336"/>
      <point x="284" y="361"/>
      <point x="240" y="405"/>
      <point x="215" y="464"/>
    </contour>
  </outline>
</glyph>
<glyph name="onesuperior" format="2">
  <advance width="736"/>
  <unicode hex="00B9"/>
  <outline>
    <contour>
      <point x="794" y="1464" type="line" name="at01"/>
      <point x="639" y="586" type="line" name="dh02"/>
      <point x="457" y="586" type="line" name="dh01"/>
      <point x="586" y="1313" type="line"/>
      <point x="418" y="1272" type="line"/>
      <point x="418" y="1340" type="line"/>
      <point x="754" y="1464" type="line"/>
    </contour>
  </outline>
</glyph>
<glyph name="ordmasculine" format="2">
  <advance width="864"/>
  <unicode hex="00BA"/>
  <outline>
    <contour>
      <point x="562" y="739" type="qcurve"/>
      <point x="617" y="739"/>
      <point x="707" y="821"/>
      <point x="771" y="949"/>
      <point x="806" y="1106"/>
      <point x="806" y="1181" type="qcurve"/>
      <point x="806" y="1270"/>
      <point x="735" y="1362"/>
      <point x="672" y="1362" type="qcurve"/>
      <point x="617" y="1362"/>
      <point x="527" y="1282"/>
      <point x="463" y="1155"/>
      <point x="428" y="999"/>
      <point x="428" y="923" type="qcurve"/>
      <point x="428" y="832"/>
      <point x="498" y="739"/>
    </contour>
    <contour>
      <point x="544" y="637" type="qcurve"/>
      <point x="464" y="637"/>
      <point x="344" y="682"/>
      <point x="265" y="765"/>
      <point x="226" y="880"/>
      <point x="226" y="949" type="qcurve"/>
      <point x="226" y="1052"/>
      <point x="291" y="1239"/>
      <point x="412" y="1380"/>
      <point x="584" y="1464"/>
      <point x="690" y="1464" type="qcurve"/>
      <point x="769" y="1464"/>
      <point x="888" y="1418"/>
      <point x="968" y="1336"/>
      <point x="1008" y="1221"/>
      <point x="1008" y="1151" type="qcurve"/>
      <point x="1008" y="1049"/>
      <point x="942" y="862"/>
      <point x="821" y="721"/>
      <point x="649" y="637"/>
    </contour>
  </outline>
</glyph>
<glyph name="AE" format="2">
  <advance width="1760"/>
  <unicode hex="00C6"/>
  <outline>
    <contour>
      <point x="1093" y="1434" type="line"/>
      <point x="1906" y="1434" type="line"/>
      <point x="1878" y="1272" type="line"/>
      <point x="1343" y="1312" type="line"/>
      <point x="1263" y="859" type="line"/>
      <point x="1703" y="859" type="line"/>
      <point x="1677" y="717" type="line"/>
      <point x="1238" y="717" type="line"/>
      <point x="1133" y="122" type="line"/>
      <point x="1711" y="162" type="line"/>
      <point x="1684" y="0" type="line"/>
      <point x="800" y="0" type="line"/>
      <point x="860" y="345" type="line"/>
      <point x="454" y="345" type="line"/>
      <point x="171" y="-30" type="line"/>
      <point x="14" y="0" type="line"/>
    </contour>
    <contour>
      <point x="561" y="487" type="line"/>
      <point x="885" y="487" type="line"/>
      <point x="984" y="1047" type="line"/>
    </contour>
  </outline>
</glyph>
<glyph name="Ccedilla" format="2">
  <advance width="1344"/>
  <unicode hex="00C7"/>
  <outline>
    <contour>
      <point x="1541" y="1235" type="qcurve" name="hr00"/>
      <point x="1420" y="1113" type="line"/>
      <point x="1363" y="1213"/>
      <point x="1168" y="1322"/>
      <point x="1029" y="1322" type="qcurve" name="sv01"/>
      <point x="957" y="1322"/>
      <point x="820" y="1263"/>
      <point x="698" y="1158"/>
      <point x="597" y="1012"/>
      <point x="524" y="838"/>
      <point x="483" y="641"/>
      <point x="483" y="537" type="qcurve" name="dh02"/>
      <point x="483" y="434"/>
      <point x="532" y="276"/>
      <point x="621" y="168"/>
      <point x="743" y="112"/>
      <point x="815" y="112" type="qcurve" name="sv02"/>
      <point x="876" y="112"/>
      <point x="987" y="133"/>
      <point x="1091" y="183"/>
      <point x="1188" y="262"/>
      <point x="1236" y="321" type="qcurve"/>
      <point x="1358" y="199" type="line"/>
      <point x="1301" y="147"/>
      <point x="1180" y="62"/>
      <point x="1043" y="2"/>
      <point x="964" y="-14" type="qcurve"/>
      <point x="925" y="-22"/>
      <point x="884" y="-26" type="qcurve"/>
      <point x="869" y="-72" type="line"/>
      <point x="890" y="-75"/>
      <point x="935" y="-97"/>
      <point x="973" y="-137"/>
      <point x="998" y="-195"/>
      <point x="998" y="-232" type="qcurve" name="dh04"/>
      <point x="998" y="-295"/>
      <point x="943" y="-391"/>
      <point x="855" y="-456"/>
      <point x="746" y="-490"/>
      <point x="692" y="-490" type="qcurve" name="ab01"/>
      <point x="643" y="-490"/>
      <point x="568" y="-465"/>
      <point x="512" y="-428"/>
      <point x="476" y="-386"/>
      <point x="466" y="-368" type="qcurve"/>
      <point x="565" y="-270" type="line" name="ih01"/>
      <point x="582" y="-315"/>
      <point x="634" y="-368"/>
      <point x="672" y="-368" type="qcurve" name="sv03"/>
      <point x="702" y="-368"/>
      <point x="750" y="-348"/>
      <point x="782" y="-314"/>
      <point x="799" y="-268"/>
      <point x="799" y="-242" type="qcurve" name="dh03"/>
      <point x="799" y="-216"/>
      <point x="781" y="-169"/>
      <point x="746" y="-134"/>
      <point x="697" y="-113"/>
      <point x="666" y="-113" type="qcurve" name="ih02"/>
      <point x="700" y="-24" type="line" name="ab02"/>
      <point x="623" y="-15"/>
      <point x="553" y="12" type="qcurve"/>
      <point x="441" y="54"/>
      <point x="271" y="211"/>
      <point x="171" y="436"/>
      <point x="171" y="577" type="qcurve" name="dh01"/>
      <point x="171" y="695"/>
      <point x="238" y="918"/>
      <point x="357" y="1115"/>
      <point x="521" y="1279"/>
      <point x="717" y="1398"/>
      <point x="938" y="1464"/>
      <point x="1054" y="1464" type="qcurve" name="at01"/>
      <point x="1141" y="1464"/>
      <point x="1286" y="1430"/>
      <point x="1406" y="1369"/>
      <point x="1503" y="1285"/>
    </contour>
  </outline>
</glyph>
<glyph name="Eth" format="2">
  <advance width="1504"/>
  <unicode hex="00D0"/>
  <outline>
    <contour>
      <point x="384" y="1434" type="line"/>
      <point x="863" y="1434" type="line"/>
      <point x="1031" y="1434"/>
      <point x="1292" y="1358"/>
      <point x="1470" y="1213"/>
      <point x="1562" y="1003"/>
      <point x="1562" y="870" type="qcurve"/>
      <point x="1562" y="742"/>
      <point x="1490" y="513"/>
      <point x="1361" y="320"/>
      <point x="1185" y="165"/>
      <point x="976" y="58"/>
      <point x="742" y="0"/>
      <point x="621" y="0" type="qcurve"/>
      <point x="132" y="0" type="line"/>
      <point x="259" y="717" type="line"/>
      <point x="164" y="717" type="line"/>
      <point x="190" y="859" type="line"/>
      <point x="283" y="859" type="line"/>
    </contour>
    <contour>
      <point x="673" y="1302" type="line"/>
      <point x="595" y="859" type="line"/>
      <point x="939" y="859" type="line"/>
      <point x="914" y="717" type="line"/>
      <point x="571" y="717" type="line"/>
      <point x="467" y="132" type="line"/>
      <point x="616" y="132" type="line"/>
      <point x="712" y="132"/>
      <point x="881" y="191"/>
      <point x="1022" y="295"/>
      <point x="1133" y="438"/>
      <point x="1210" y="603"/>
      <point x="1250" y="785"/>
      <point x="1250" y="877" type="qcurve"/>
      <point x="1250" y="982"/>
      <point x="1190" y="1141"/>
      <point x="1078" y="1248"/>
      <point x="917" y="1302"/>
      <point x="815" y="1302" type="qcurve"/>
    </contour>
  </outline>
</glyph>
<glyph name="multiply" format="2">
  <advance width="1152"/>
  <unicode hex="00D7"/>
  <outline>
    <contour>
      <point x="307" y="854" type="line"/>
      <point x="484" y="1004" type="line"/>
      <point x="705" y="735" type="line"/>
      <point x="1022" y="1004" type="line"/>
      <point x="1145" y="854" type="line"/>
      <point x="829" y="585" type="line"/>
      <point x="1050" y="316" type="line"/>
      <point x="874" y="166" type="line"/>
      <point x="652" y="435" type="line"/>
      <point x="336" y="166" type="line"/>
      <point x="212" y="316" type="line"/>
      <point x="529" y="585" type="line"/>
    </contour>
  </outline>
</glyph>
<glyph name="Oslash" format="2">
  <advance width="1600"/>
  <unicode hex="00D8"/>
  <outline>
    <contour>
      <point x="1058" y="1464" type="qcurve"/>
      <point x="1173" y="1464"/>
      <point x="1284" y="1426" type="qcurve"/>
      <point x="1367" y="1559" type="line"/>
      <point x="1512" y="1529" type="line"/>
      <point x="1409" y="1365" type="line"/>
      <point x="1468" y="1326"/>
      <point x="1567" y="1221"/>
      <point x="1638" y="1092"/>
      <point x="1677" y="940"/>
      <point x="1677" y="855" type="qcurve"/>
      <point x="1677" y="737"/>
      <point x="1610" y="515"/>
      <point x="1491" y="318"/>
      <point x="1327" y="154"/>
      <point x="1131" y="36"/>
      <point x="910" y="-30"/>
      <point x="794" y="-30" type="qcurve"/>
      <point x="734" y="-30"/>
      <point x="615" y="-10"/>
      <point x="561" y="9" type="qcurve"/>
      <point x="477" y="-125" type="line"/>
      <point x="330" y="-95" type="line"/>
      <point x="434" y="72" type="line"/>
      <point x="375" y="111"/>
      <point x="279" y="214"/>
      <point x="209" y="342"/>
      <point x="171" y="492"/>
      <point x="171" y="577" type="qcurve"/>
      <point x="171" y="695"/>
      <point x="238" y="918"/>
      <point x="358" y="1115"/>
      <point x="523" y="1280"/>
      <point x="720" y="1398"/>
      <point x="942" y="1464"/>
    </contour>
    <contour>
      <point x="483" y="531" type="qcurve"/>
      <point x="483" y="447"/>
      <point x="521" y="310"/>
      <point x="550" y="256" type="qcurve"/>
      <point x="1191" y="1281" type="line"/>
      <point x="1155" y="1305"/>
      <point x="1073" y="1322"/>
      <point x="1027" y="1322" type="qcurve"/>
      <point x="954" y="1322"/>
      <point x="817" y="1262"/>
      <point x="696" y="1156"/>
      <point x="595" y="1008"/>
      <point x="523" y="832"/>
      <point x="483" y="634"/>
    </contour>
    <contour>
      <point x="817" y="112" type="qcurve"/>
      <point x="890" y="112"/>
      <point x="1028" y="172"/>
      <point x="1149" y="278"/>
      <point x="1251" y="426"/>
      <point x="1324" y="601"/>
      <point x="1365" y="799"/>
      <point x="1365" y="902" type="qcurve"/>
      <point x="1365" y="986"/>
      <point x="1327" y="1122"/>
      <point x="1294" y="1181" type="qcurve"/>
      <point x="652" y="156" type="line"/>
      <point x="688" y="133"/>
      <point x="770" y="112"/>
    </contour>
  </outline>
</glyph>
<glyph name="Thorn" format="2">
  <advance width="1152"/>
  <unicode hex="00DE"/>
  <outline>
    <contour>
      <point x="384" y="1434" type="line"/>
      <point x="702" y="1464" type="line"/>
      <point x="647" y="1156" type="line"/>
      <point x="763" y="1156" type="line"/>
      <point x="889" y="1156"/>
      <point x="1065" y="1099"/>
      <point x="1176" y="1001"/>
      <point x="1226" y="870"/>
      <point x="1226" y="797" type="qcurve"/>
      <point x="1226" y="694"/>
      <point x="1148" y="506"/>
      <point x="994" y="363"/>
      <point x="762" y="278"/>
      <point x="609" y="278" type="qcurve"/>
      <point x="493" y="278" type="line"/>
      <point x="444" y="0" type="line"/>
      <point x="132" y="0" type="line"/>
    </contour>
    <contour>
      <point x="624" y="1024" type="line"/>
      <point x="516" y="410" type="line"/>
      <point x="606" y="410" type="line"/>
      <point x="687" y="410"/>
      <point x="803" y="486"/>
      <point x="878" y="603"/>
      <point x="914" y="744"/>
      <point x="914" y="809" type="qcurve"/>
      <point x="914" y="858"/>
      <point x="890" y="938"/>
      <point x="841" y="994"/>
      <point x="766" y="1024"/>
      <point x="714" y="1024" type="qcurve"/>
    </contour>
  </outline>
</glyph>
<glyph name="ae" format="2">
  <advance width="1600"/>
  <unicode hex="00E6"/>
  <outline>
    <contour>
      <point x="1166" y="82" type="qcurve"/>
      <point x="1206" y="82"/>
      <point x="1276" y="109"/>
      <point x="1336" y="152"/>
      <point x="1387" y="206"/>
      <point x="1409" y="234" type="qcurve"/>
      <point x="1522" y="122" type="line"/>
      <point x="1487" y="90"/>
      <point x="1400" y="34"/>
      <point x="1298" y="-7"/>
      <point x="1181" y="-30"/>
      <point x="1116" y="-30" type="qcurve"/>
      <point x="1048" y="-30"/>
      <point x="940" y="-3"/>
      <point x="856" y="48"/>
      <point x="792" y="121"/>
      <point x="768" y="167" type="qcurve"/>
      <point x="720" y="111"/>
      <point x="631" y="35"/>
      <point x="540" y="-11"/>
      <point x="442" y="-30"/>
      <point x="386" y="-30" type="qcurve"/>
      <point x="322" y="-30"/>
      <point x="220" y="4"/>
      <point x="150" y="65"/>
      <point x="112" y="152"/>
      <point x="112" y="205" type="qcurve"/>
      <point x="112" y="295"/>
      <point x="199" y="432"/>
      <point x="363" y="528"/>
      <point x="601" y="587"/>
      <point x="753" y="599" type="qcurve"/>
      <point x="774" y="718" type="line"/>
      <point x="776" y="726"/>
      <point x="778" y="749"/>
      <point x="778" y="760" type="qcurve"/>
      <point x="778" y="797"/>
      <point x="752" y="848"/>
      <point x="712" y="879"/>
      <point x="663" y="892"/>
      <point x="641" y="892" type="qcurve"/>
      <point x="618" y="892"/>
      <point x="550" y="872"/>
      <point x="472" y="833"/>
      <point x="390" y="777"/>
      <point x="352" y="740" type="qcurve"/>
      <point x="239" y="852" type="line"/>
      <point x="341" y="922"/>
      <point x="576" y="1004"/>
      <point x="691" y="1004" type="qcurve"/>
      <point x="785" y="1004"/>
      <point x="928" y="950"/>
      <point x="979" y="893" type="qcurve"/>
      <point x="1052" y="947"/>
      <point x="1209" y="1004"/>
      <point x="1309" y="1004" type="qcurve"/>
      <point x="1371" y="1004"/>
      <point x="1489" y="964"/>
      <point x="1581" y="875"/>
      <point x="1637" y="734"/>
      <point x="1637" y="633" type="qcurve"/>
      <point x="1637" y="601"/>
      <point x="1630" y="529"/>
      <point x="1623" y="487" type="qcurve"/>
      <point x="1006" y="487" type="line"/>
      <point x="1000" y="445"/>
      <point x="993" y="372"/>
      <point x="993" y="340" type="qcurve"/>
      <point x="993" y="266"/>
      <point x="1022" y="167"/>
      <point x="1070" y="107"/>
      <point x="1132" y="82"/>
    </contour>
    <contour>
      <point x="735" y="497" type="line"/>
      <point x="664" y="490"/>
      <point x="542" y="442"/>
      <point x="454" y="365"/>
      <point x="404" y="262"/>
      <point x="404" y="199" type="qcurve"/>
      <point x="404" y="142"/>
      <point x="449" y="82"/>
      <point x="489" y="82" type="qcurve"/>
      <point x="525" y="82"/>
      <point x="583" y="102"/>
      <point x="630" y="134"/>
      <point x="667" y="175"/>
      <point x="682" y="197" type="qcurve"/>
    </contour>
    <contour>
      <point x="1279" y="892" type="qcurve"/>
      <point x="1238" y="892"/>
      <point x="1159" y="855"/>
      <point x="1090" y="781"/>
      <point x="1038" y="671"/>
      <point x="1025" y="599" type="qcurve"/>
      <point x="1401" y="599" type="line"/>
      <point x="1407" y="631"/>
      <point x="1412" y="686"/>
      <point x="1412" y="710" type="qcurve"/>
      <point x="1412" y="806"/>
      <point x="1337" y="892"/>
    </contour>
  </outline>
</glyph>
<glyph name="ccedilla" format="2">
  <advance width="1024"/>
  <unicode hex="00E7"/>
  <outline>
    <contour>
      <point x="978" y="740" type="line" name="hr00"/>
      <point x="962" y="767"/>
      <point x="922" y="821"/>
      <point x="869" y="865"/>
      <point x="801" y="892"/>
      <point x="757" y="892" type="qcurve" name="sv01"/>
      <point x="714" y="892"/>
      <point x="632" y="849"/>
      <point x="560" y="773"/>
      <point x="500" y="671"/>
      <point x="457" y="552"/>
      <point x="433" y="422"/>
      <point x="433" y="357" type="qcurve" name="sh02"/>
      <point x="433" y="227"/>
      <point x="532" y="82"/>
      <point x="614" y="82" type="qcurve" name="sv02"/>
      <point x="650" y="82"/>
      <point x="717" y="109"/>
      <point x="776" y="152"/>
      <point x="827" y="207"/>
      <point x="849" y="235" type="qcurve"/>
      <point x="962" y="122" type="line"/>
      <point x="927" y="90"/>
      <point x="848" y="34"/>
      <point x="753" y="-7"/>
      <point x="695" y="-18" type="qcurve"/>
      <point x="662" y="-24"/>
      <point x="626" y="-28" type="qcurve" name="ab02"/>
      <point x="612" y="-72" type="line" name="dh04"/>
      <point x="633" y="-75"/>
      <point x="678" y="-97"/>
      <point x="716" y="-137"/>
      <point x="741" y="-195"/>
      <point x="741" y="-232" type="qcurve" name="dh02"/>
      <point x="741" y="-295"/>
      <point x="686" y="-391"/>
      <point x="598" y="-456"/>
      <point x="489" y="-490"/>
      <point x="435" y="-490" type="qcurve" name="ab01"/>
      <point x="386" y="-490"/>
      <point x="311" y="-465"/>
      <point x="255" y="-428"/>
      <point x="219" y="-386"/>
      <point x="209" y="-368" type="qcurve"/>
      <point x="308" y="-270" type="line" name="av01"/>
      <point x="325" y="-315"/>
      <point x="377" y="-368"/>
      <point x="415" y="-368" type="qcurve" name="sv03"/>
      <point x="445" y="-368"/>
      <point x="493" y="-348"/>
      <point x="525" y="-314"/>
      <point x="542" y="-268"/>
      <point x="542" y="-242" type="qcurve" name="dh01"/>
      <point x="542" y="-216"/>
      <point x="524" y="-169"/>
      <point x="489" y="-134"/>
      <point x="440" y="-113"/>
      <point x="409" y="-113" type="qcurve" name="dh03"/>
      <point x="445" y="-18" type="line"/>
      <point x="414" y="-11"/>
      <point x="385" y="0" type="qcurve"/>
      <point x="307" y="29"/>
      <point x="198" y="136"/>
      <point x="141" y="286"/>
      <point x="141" y="377" type="qcurve" name="sh01"/>
      <point x="141" y="462"/>
      <point x="183" y="622"/>
      <point x="261" y="761"/>
      <point x="371" y="876"/>
      <point x="506" y="959"/>
      <point x="662" y="1004"/>
      <point x="747" y="1004" type="qcurve" name="at01"/>
      <point x="819" y="1004"/>
      <point x="927" y="980"/>
      <point x="1009" y="938"/>
      <point x="1068" y="883"/>
      <point x="1091" y="852" type="qcurve"/>
    </contour>
  </outline>
</glyph>
<glyph name="eth" format="2">
  <advance width="1120"/>
  <unicode hex="00F0"/>
  <guideline x="0" y="683" angle="40"/>
  <guideline x="0" y="508" angle="40"/>
  <guideline x="0" y="918" angle="40"/>
  <guideline x="2160" y="0" angle="130"/>
  <guideline x="1647" y="0" angle="130"/>
  <outline>
    <contour>
      <point x="694" y="760" type="qcurve" name="dv01"/>
      <point x="631" y="760"/>
      <point x="525" y="677"/>
      <point x="448" y="547"/>
      <point x="405" y="389"/>
      <point x="405" y="315" type="qcurve" name="dh02"/>
      <point x="405" y="263"/>
      <point x="428" y="177"/>
      <point x="471" y="116"/>
      <point x="534" y="82"/>
      <point x="574" y="82" type="qcurve" name="sv01"/>
      <point x="637" y="82"/>
      <point x="745" y="164"/>
      <point x="823" y="294"/>
      <point x="868" y="456"/>
      <point x="868" y="537" type="qcurve" name="dh03"/>
      <point x="868" y="581"/>
      <point x="847" y="662"/>
      <point x="804" y="723"/>
      <point x="739" y="760"/>
    </contour>
    <contour>
      <point x="530" y="-30" type="qcurve" name="ab01"/>
      <point x="446" y="-30"/>
      <point x="297" y="19"/>
      <point x="187" y="113"/>
      <point x="123" y="249"/>
      <point x="123" y="336" type="qcurve" name="dh01"/>
      <point x="123" y="412"/>
      <point x="167" y="550"/>
      <point x="244" y="669"/>
      <point x="351" y="766"/>
      <point x="477" y="835"/>
      <point x="617" y="872"/>
      <point x="689" y="872" type="qcurve" name="dv02"/>
      <point x="721" y="872"/>
      <point x="791" y="862"/>
      <point x="860" y="843"/>
      <point x="922" y="814"/>
      <point x="945" y="796" type="qcurve" name="sh02"/>
      <point x="951" y="835"/>
      <point x="958" y="903"/>
      <point x="958" y="935" type="qcurve" name="sh01"/>
      <point x="958" y="986"/>
      <point x="937" y="1071"/>
      <point x="912" y="1109" type="qcurve"/>
      <point x="726" y="974" type="line"/>
      <point x="658" y="1077" type="line"/>
      <point x="843" y="1212" type="line"/>
      <point x="753" y="1351" type="line"/>
      <point x="908" y="1464" type="line" name="at01"/>
      <point x="998" y="1326" type="line"/>
      <point x="1189" y="1464" type="line" name="at02"/>
      <point x="1257" y="1361" type="line" name="hr00"/>
      <point x="1068" y="1223" type="line"/>
      <point x="1094" y="1187"/>
      <point x="1136" y="1088"/>
      <point x="1165" y="973"/>
      <point x="1180" y="844"/>
      <point x="1180" y="777" type="qcurve" name="dh04"/>
      <point x="1180" y="683"/>
      <point x="1140" y="490"/>
      <point x="1064" y="311"/>
      <point x="952" y="154"/>
      <point x="808" y="37"/>
      <point x="632" y="-30"/>
    </contour>
  </outline>
</glyph>
<glyph name="divide" format="2">
  <advance width="1152"/>
  <unicode hex="00F7"/>
  <outline>
    <contour>
      <point x="218" y="593" type="line"/>
      <point x="1142" y="593" type="line"/>
      <point x="1105" y="381" type="line"/>
      <point x="181" y="381" type="line"/>
    </contour>
    <contour>
      <point x="741" y="116" type="qcurve"/>
      <point x="741" y="86"/>
      <point x="718" y="32"/>
      <point x="679" y="-7"/>
      <point x="625" y="-30"/>
      <point x="595" y="-30" type="qcurve"/>
      <point x="565" y="-30"/>
      <point x="511" y="-7"/>
      <point x="472" y="32"/>
      <point x="449" y="86"/>
      <point x="449" y="116" type="qcurve"/>
      <point x="449" y="146"/>
      <point x="472" y="200"/>
      <point x="511" y="239"/>
      <point x="565" y="262"/>
      <point x="595" y="262" type="qcurve"/>
      <point x="625" y="262"/>
      <point x="679" y="239"/>
      <point x="718" y="200"/>
      <point x="741" y="146"/>
    </contour>
    <contour>
      <point x="872" y="858" type="qcurve"/>
      <point x="872" y="828"/>
      <point x="849" y="774"/>
      <point x="810" y="735"/>
      <point x="756" y="712"/>
      <point x="726" y="712" type="qcurve"/>
      <point x="696" y="712"/>
      <point x="642" y="735"/>
      <point x="603" y="774"/>
      <point x="580" y="828"/>
      <point x="580" y="858" type="qcurve"/>
      <point x="580" y="888"/>
      <point x="603" y="942"/>
      <point x="642" y="981"/>
      <point x="696" y="1004"/>
      <point x="726" y="1004" type="qcurve"/>
      <point x="756" y="1004"/>
      <point x="810" y="981"/>
      <point x="849" y="942"/>
      <point x="872" y="888"/>
    </contour>
  </outline>
</glyph>
<glyph name="oslash" format="2">
  <advance width="1120"/>
  <unicode hex="00F8"/>
  <guideline x="257" y="0" angle="66"/>
  <outline>
    <contour>
      <point x="737" y="1004" type="qcurve" name="at01"/>
      <point x="810" y="1004"/>
      <point x="870" y="989" type="qcurve" name="sh01"/>
      <point x="939" y="1099" type="line" name="sv01"/>
      <point x="1095" y="1069" type="line" name="ih01"/>
      <point x="1007" y="928" type="line"/>
      <point x="1082" y="875"/>
      <point x="1161" y="707"/>
      <point x="1161" y="600" type="qcurve" name="sh02"/>
      <point x="1161" y="470"/>
      <point x="1069" y="241"/>
      <point x="906" y="70"/>
      <point x="684" y="-30"/>
      <point x="554" y="-30" type="qcurve" name="ab01"/>
      <point x="517" y="-30"/>
      <point x="451" y="-22"/>
      <point x="420" y="-14" type="qcurve" name="sh05"/>
      <point x="351" y="-125" type="line" name="sv02"/>
      <point x="196" y="-95" type="line" name="ih02"/>
      <point x="284" y="46" type="line"/>
      <point x="209" y="100"/>
      <point x="131" y="268"/>
      <point x="131" y="375" type="qcurve" name="sh03"/>
      <point x="131" y="461"/>
      <point x="173" y="622"/>
      <point x="250" y="761"/>
      <point x="360" y="876"/>
      <point x="494" y="959"/>
      <point x="651" y="1004"/>
    </contour>
    <contour>
      <point x="574" y="82" type="qcurve" name="sv03"/>
      <point x="620" y="82"/>
      <point x="699" y="132"/>
      <point x="765" y="216"/>
      <point x="816" y="329"/>
      <point x="851" y="456"/>
      <point x="869" y="589"/>
      <point x="869" y="651" type="qcurve" name="ah01"/>
      <point x="869" y="665"/>
      <point x="868" y="691"/>
      <point x="867" y="703" type="qcurve" name="iv01"/>
      <point x="494" y="105" type="line"/>
      <point x="528" y="82"/>
    </contour>
    <contour>
      <point x="717" y="892" type="qcurve" name="sv04"/>
      <point x="671" y="892"/>
      <point x="592" y="842"/>
      <point x="526" y="757"/>
      <point x="476" y="644"/>
      <point x="441" y="517"/>
      <point x="423" y="383"/>
      <point x="423" y="321" type="qcurve" name="sh04"/>
      <point x="423" y="308"/>
      <point x="423" y="284"/>
      <point x="424" y="272" type="qcurve" name="iv02"/>
      <point x="796" y="869" type="line"/>
      <point x="762" y="892"/>
    </contour>
  </outline>
</glyph>
<glyph name="Aogonek" format="2">
  <advance width="1344"/>
  <unicode hex="0104"/>
  <anchor x="672" y="1600" name="AccentDefault"/>
  <outline>
    <contour>
      <point x="1280" y="-270" type="qcurve"/>
      <point x="1304" y="-407" type="line"/>
      <point x="1257" y="-428"/>
      <point x="1181" y="-450"/>
      <point x="1136" y="-450" type="qcurve"/>
      <point x="1083" y="-450"/>
      <point x="1008" y="-423"/>
      <point x="960" y="-376"/>
      <point x="937" y="-315"/>
      <point x="937" y="-280" type="qcurve"/>
      <point x="937" y="-198"/>
      <point x="1036" y="-71"/>
      <point x="1114" y="-19" type="qcurve"/>
      <point x="997" y="-30" type="line"/>
      <point x="912" y="345" type="line"/>
      <point x="389" y="345" type="line"/>
      <point x="171" y="-30" type="line"/>
      <point x="14" y="0" type="line"/>
      <point x="846" y="1434" type="line"/>
      <point x="996" y="1464" type="line"/>
      <point x="1328" y="0" type="line"/>
      <point x="1292" y="-17"/>
      <point x="1211" y="-61"/>
      <point x="1144" y="-117"/>
      <point x="1099" y="-186"/>
      <point x="1099" y="-227" type="qcurve"/>
      <point x="1099" y="-265"/>
      <point x="1148" y="-308"/>
      <point x="1180" y="-308" type="qcurve"/>
      <point x="1211" y="-308"/>
      <point x="1260" y="-285"/>
    </contour>
    <contour>
      <point x="879" y="487" type="line"/>
      <point x="764" y="992" type="line"/>
      <point x="471" y="487" type="line"/>
    </contour>
  </outline>
</glyph>
<glyph name="aogonek" format="2">
  <advance width="1120"/>
  <unicode hex="0105"/>
  <outline>
    <contour>
      <point x="1058" y="-407" type="line"/>
      <point x="1011" y="-428"/>
      <point x="935" y="-450"/>
      <point x="890" y="-450" type="qcurve"/>
      <point x="837" y="-450"/>
      <point x="762" y="-423"/>
      <point x="714" y="-376"/>
      <point x="691" y="-315"/>
      <point x="691" y="-280" type="qcurve"/>
      <point x="691" y="-198"/>
      <point x="795" y="-69"/>
      <point x="885" y="-9" type="qcurve"/>
      <point x="847" y="2"/>
      <point x="792" y="47"/>
      <point x="775" y="82" type="qcurve"/>
      <point x="745" y="60"/>
      <point x="675" y="20"/>
      <point x="592" y="-11"/>
      <point x="496" y="-30"/>
      <point x="440" y="-30" type="qcurve"/>
      <point x="375" y="-30"/>
      <point x="258" y="0"/>
      <point x="171" y="58"/>
      <point x="120" y="142"/>
      <point x="120" y="196" type="qcurve"/>
      <point x="120" y="295"/>
      <point x="231" y="442"/>
      <point x="425" y="541"/>
      <point x="686" y="594"/>
      <point x="835" y="599" type="qcurve"/>
      <point x="847" y="668" type="line"/>
      <point x="853" y="699"/>
      <point x="853" y="728" type="qcurve"/>
      <point x="853" y="765"/>
      <point x="825" y="826"/>
      <point x="774" y="869"/>
      <point x="705" y="892"/>
      <point x="665" y="892" type="qcurve"/>
      <point x="637" y="892"/>
      <point x="567" y="875"/>
      <point x="489" y="838"/>
      <point x="404" y="780"/>
      <point x="362" y="740" type="qcurve"/>
      <point x="250" y="852" type="line"/>
      <point x="301" y="888"/>
      <point x="412" y="944"/>
      <point x="529" y="983"/>
      <point x="648" y="1004"/>
      <point x="705" y="1004" type="qcurve"/>
      <point x="780" y="1004"/>
      <point x="930" y="961"/>
      <point x="1050" y="877"/>
      <point x="1125" y="755"/>
      <point x="1125" y="676" type="qcurve"/>
      <point x="1125" y="643"/>
      <point x="1119" y="609" type="qcurve"/>
      <point x="1038" y="150" type="line"/>
      <point x="1037" y="145"/>
      <point x="1036" y="136"/>
      <point x="1036" y="131" type="qcurve"/>
      <point x="1036" y="82"/>
      <point x="1098" y="82" type="qcurve"/>
      <point x="1078" y="-30" type="line"/>
      <point x="1064" y="-30"/>
      <point x="1037" y="-30"/>
      <point x="1024" y="-29" type="qcurve"/>
      <point x="988" y="-49"/>
      <point x="926" y="-92"/>
      <point x="880" y="-142"/>
      <point x="853" y="-197"/>
      <point x="853" y="-227" type="qcurve"/>
      <point x="853" y="-265"/>
      <point x="902" y="-308"/>
      <point x="934" y="-308" type="qcurve"/>
      <point x="965" y="-308"/>
      <point x="1014" y="-284"/>
      <point x="1034" y="-270" type="qcurve"/>
    </contour>
    <contour>
      <point x="817" y="497" type="line"/>
      <point x="750" y="491"/>
      <point x="607" y="455"/>
      <point x="488" y="386"/>
      <point x="412" y="281"/>
      <point x="412" y="207" type="qcurve"/>
      <point x="412" y="170"/>
      <point x="436" y="122"/>
      <point x="474" y="93"/>
      <point x="520" y="82"/>
      <point x="541" y="82" type="qcurve"/>
      <point x="569" y="82"/>
      <point x="632" y="102"/>
      <point x="693" y="135"/>
      <point x="746" y="177"/>
      <point x="765" y="199" type="qcurve"/>
    </contour>
  </outline>
</glyph>
<glyph name="Dcroat" format="2">
  <advance width="1504"/>
  <unicode hex="0110"/>
  <outline>
    <contour>
      <point x="384" y="1434" type="line" name="hr00"/>
      <point x="859" y="1434" type="line"/>
      <point x="1050" y="1434"/>
      <point x="1336" y="1336"/>
      <point x="1513" y="1151"/>
      <point x="1578" y="885"/>
      <point x="1548" y="717" type="qcurve"/>
      <point x="1531" y="619"/>
      <point x="1445" y="436"/>
      <point x="1318" y="277"/>
      <point x="1153" y="145"/>
      <point x="958" y="52"/>
      <point x="737" y="0"/>
      <point x="617" y="0" type="qcurve"/>
      <point x="132" y="0" type="line"/>
      <point x="258" y="717" type="line"/>
      <point x="156" y="717" type="line"/>
      <point x="205" y="859" type="line"/>
      <point x="283" y="859" type="line"/>
    </contour>
    <contour>
      <point x="673" y="1302" type="line"/>
      <point x="595" y="859" type="line"/>
      <point x="1030" y="859" type="line"/>
      <point x="980" y="717" type="line"/>
      <point x="570" y="717" type="line"/>
      <point x="467" y="132" type="line"/>
      <point x="612" y="132" type="line"/>
      <point x="734" y="132"/>
      <point x="940" y="226"/>
      <point x="1100" y="386"/>
      <point x="1205" y="598"/>
      <point x="1226" y="717" type="qcurve"/>
      <point x="1251" y="859"/>
      <point x="1218" y="1078"/>
      <point x="1109" y="1226"/>
      <point x="931" y="1302"/>
      <point x="811" y="1302" type="qcurve"/>
    </contour>
  </outline>
</glyph>
<glyph name="dcroat" format="2">
  <advance width="1120"/>
  <unicode hex="0111"/>
  <outline>
    <contour>
      <point x="701" y="1004" type="qcurve"/>
      <point x="731" y="1004"/>
      <point x="793" y="988"/>
      <point x="849" y="966"/>
      <point x="891" y="941"/>
      <point x="902" y="931" type="qcurve"/>
      <point x="940" y="1150" type="line"/>
      <point x="731" y="1160" type="line"/>
      <point x="746" y="1272" type="line"/>
      <point x="962" y="1272" type="line"/>
      <point x="996" y="1464" type="line"/>
      <point x="1223" y="1494" type="line"/>
      <point x="1283" y="1494" type="line"/>
      <point x="1244" y="1272" type="line"/>
      <point x="1348" y="1272" type="line"/>
      <point x="1324" y="1133" type="line"/>
      <point x="1220" y="1137" type="line"/>
      <point x="1047" y="156" type="line"/>
      <point x="1046" y="149"/>
      <point x="1045" y="136"/>
      <point x="1045" y="131" type="qcurve"/>
      <point x="1045" y="107"/>
      <point x="1071" y="82"/>
      <point x="1106" y="82" type="qcurve"/>
      <point x="1086" y="-30" type="line"/>
      <point x="955" y="-30"/>
      <point x="808" y="19"/>
      <point x="783" y="82" type="qcurve"/>
      <point x="758" y="58"/>
      <point x="692" y="17"/>
      <point x="621" y="-13"/>
      <point x="549" y="-30"/>
      <point x="517" y="-30" type="qcurve"/>
      <point x="433" y="-30"/>
      <point x="291" y="24"/>
      <point x="188" y="126"/>
      <point x="130" y="275"/>
      <point x="130" y="370" type="qcurve"/>
      <point x="130" y="450"/>
      <point x="169" y="606"/>
      <point x="241" y="747"/>
      <point x="343" y="867"/>
      <point x="470" y="955"/>
      <point x="619" y="1004"/>
    </contour>
    <contour>
      <point x="882" y="821" type="line"/>
      <point x="862" y="852"/>
      <point x="789" y="892"/>
      <point x="729" y="892" type="qcurve"/>
      <point x="686" y="892"/>
      <point x="607" y="846"/>
      <point x="539" y="767"/>
      <point x="483" y="661"/>
      <point x="444" y="541"/>
      <point x="422" y="412"/>
      <point x="422" y="350" type="qcurve"/>
      <point x="422" y="283"/>
      <point x="448" y="183"/>
      <point x="492" y="116"/>
      <point x="552" y="82"/>
      <point x="586" y="82" type="qcurve"/>
      <point x="647" y="82"/>
      <point x="733" y="123"/>
      <point x="764" y="152" type="qcurve"/>
    </contour>
  </outline>
</glyph>
<glyph name="Eogonek" format="2">
  <advance width="1088"/>
  <unicode hex="0118"/>
  <outline>
    <contour>
      <point x="941" y="-407" type="line"/>
      <point x="894" y="-428"/>
      <point x="818" y="-450"/>
      <point x="773" y="-450" type="qcurve"/>
      <point x="720" y="-450"/>
      <point x="645" y="-423"/>
      <point x="597" y="-376"/>
      <point x="574" y="-315"/>
      <point x="574" y="-280" type="qcurve"/>
      <point x="574" y="-230"/>
      <point x="611" y="-146"/>
      <point x="671" y="-77"/>
      <point x="746" y="-22"/>
      <point x="783" y="0" type="qcurve"/>
      <point x="130" y="0" type="line"/>
      <point x="382" y="1434" type="line"/>
      <point x="1236" y="1434" type="line"/>
      <point x="1208" y="1272" type="line"/>
      <point x="673" y="1312" type="line"/>
      <point x="593" y="859" type="line"/>
      <point x="1033" y="859" type="line"/>
      <point x="1007" y="717" type="line"/>
      <point x="568" y="717" type="line"/>
      <point x="463" y="122" type="line"/>
      <point x="1042" y="162" type="line"/>
      <point x="1014" y="0" type="line"/>
      <point x="965" y="0" type="line"/>
      <point x="929" y="-17"/>
      <point x="848" y="-61"/>
      <point x="781" y="-117"/>
      <point x="736" y="-186"/>
      <point x="736" y="-227" type="qcurve"/>
      <point x="736" y="-265"/>
      <point x="785" y="-308"/>
      <point x="817" y="-308" type="qcurve"/>
      <point x="848" y="-308"/>
      <point x="897" y="-284"/>
      <point x="917" y="-270" type="qcurve"/>
    </contour>
  </outline>
</glyph>
<glyph name="eogonek" format="2">
  <advance width="1024"/>
  <unicode hex="0119"/>
  <outline>
    <contour>
      <point x="726" y="-407" type="line"/>
      <point x="679" y="-428"/>
      <point x="603" y="-450"/>
      <point x="558" y="-450" type="qcurve"/>
      <point x="505" y="-450"/>
      <point x="430" y="-423"/>
      <point x="382" y="-376"/>
      <point x="359" y="-315"/>
      <point x="359" y="-280" type="qcurve"/>
      <point x="359" y="-239"/>
      <point x="385" y="-167"/>
      <point x="429" y="-105"/>
      <point x="488" y="-53"/>
      <point x="521" y="-30" type="qcurve"/>
      <point x="440" y="-30"/>
      <point x="301" y="29"/>
      <point x="199" y="136"/>
      <point x="141" y="283"/>
      <point x="141" y="372" type="qcurve"/>
      <point x="141" y="501"/>
      <point x="233" y="731"/>
      <point x="396" y="903"/>
      <point x="618" y="1004"/>
      <point x="747" y="1004" type="qcurve"/>
      <point x="808" y="1004"/>
      <point x="927" y="964"/>
      <point x="1020" y="875"/>
      <point x="1077" y="734"/>
      <point x="1077" y="632" type="qcurve"/>
      <point x="1077" y="599"/>
      <point x="1070" y="527"/>
      <point x="1063" y="487" type="qcurve"/>
      <point x="437" y="487" type="line"/>
      <point x="429" y="445"/>
      <point x="423" y="373"/>
      <point x="423" y="341" type="qcurve"/>
      <point x="423" y="268"/>
      <point x="453" y="169"/>
      <point x="504" y="108"/>
      <point x="569" y="82"/>
      <point x="604" y="82" type="qcurve"/>
      <point x="644" y="82"/>
      <point x="714" y="109"/>
      <point x="775" y="152"/>
      <point x="827" y="207"/>
      <point x="849" y="235" type="qcurve"/>
      <point x="962" y="122" type="line"/>
      <point x="914" y="79"/>
      <point x="806" y="17"/>
      <point x="750" y="0" type="qcurve"/>
      <point x="715" y="-16"/>
      <point x="635" y="-58"/>
      <point x="567" y="-113"/>
      <point x="521" y="-183"/>
      <point x="521" y="-227" type="qcurve"/>
      <point x="521" y="-265"/>
      <point x="570" y="-308"/>
      <point x="602" y="-308" type="qcurve"/>
      <point x="633" y="-308"/>
      <point x="682" y="-284"/>
      <point x="702" y="-270" type="qcurve"/>
    </contour>
    <contour>
      <point x="717" y="892" type="qcurve"/>
      <point x="676" y="892"/>
      <point x="598" y="855"/>
      <point x="529" y="781"/>
      <point x="474" y="671"/>
      <point x="457" y="599" type="qcurve"/>
      <point x="841" y="599" type="line"/>
      <point x="846" y="630"/>
      <point x="852" y="684"/>
      <point x="852" y="708" type="qcurve"/>
      <point x="852" y="756"/>
      <point x="831" y="826"/>
      <point x="795" y="871"/>
      <point x="746" y="892"/>
    </contour>
  </outline>
</glyph>
<glyph name="Hbar" format="2">
  <advance width="1504"/>
  <unicode hex="0126"/>
  <outline>
    <contour>
      <point x="384" y="1434" type="line"/>
      <point x="702" y="1464" type="line"/>
      <point x="646" y="1146" type="line"/>
      <point x="1262" y="1146" type="line"/>
      <point x="1312" y="1434" type="line"/>
      <point x="1630" y="1464" type="line"/>
      <point x="1574" y="1146" type="line"/>
      <point x="1674" y="1146" type="line"/>
      <point x="1649" y="1004" type="line"/>
      <point x="1549" y="1004" type="line"/>
      <point x="1372" y="0" type="line"/>
      <point x="1060" y="0" type="line"/>
      <point x="1161" y="575" type="line"/>
      <point x="545" y="575" type="line"/>
      <point x="444" y="0" type="line"/>
      <point x="132" y="0" type="line"/>
      <point x="309" y="1004" type="line"/>
      <point x="209" y="1004" type="line"/>
      <point x="234" y="1146" type="line"/>
      <point x="334" y="1146" type="line"/>
    </contour>
    <contour>
      <point x="1186" y="717" type="line"/>
      <point x="1237" y="1004" type="line"/>
      <point x="621" y="1004" type="line"/>
      <point x="570" y="717" type="line"/>
    </contour>
  </outline>
</glyph>
<glyph name="Iogonek" format="2">
  <advance width="576"/>
  <unicode hex="012E"/>
  <anchor x="288" y="1600" name="AccentDefault"/>
  <outline>
    <contour>
      <point x="420" y="-407" type="line"/>
      <point x="373" y="-428"/>
      <point x="297" y="-450"/>
      <point x="252" y="-450" type="qcurve"/>
      <point x="199" y="-450"/>
      <point x="124" y="-423"/>
      <point x="76" y="-376"/>
      <point x="53" y="-315"/>
      <point x="53" y="-280" type="qcurve"/>
      <point x="53" y="-230"/>
      <point x="90" y="-146"/>
      <point x="150" y="-77"/>
      <point x="225" y="-22"/>
      <point x="262" y="0" type="qcurve"/>
      <point x="132" y="0" type="line"/>
      <point x="384" y="1434" type="line"/>
      <point x="702" y="1464" type="line"/>
      <point x="444" y="0" type="line"/>
      <point x="408" y="-17"/>
      <point x="327" y="-61"/>
      <point x="260" y="-117"/>
      <point x="215" y="-186"/>
      <point x="215" y="-227" type="qcurve"/>
      <point x="215" y="-265"/>
      <point x="264" y="-308"/>
      <point x="296" y="-308" type="qcurve"/>
      <point x="327" y="-308"/>
      <point x="376" y="-284"/>
      <point x="396" y="-270" type="qcurve"/>
    </contour>
  </outline>
</glyph>
<glyph name="iogonek" format="2">
  <advance width="576"/>
  <unicode hex="012F"/>
  <outline>
    <contour>
      <point x="318" y="974" type="line"/>
      <point x="546" y="1004" type="line"/>
      <point x="606" y="1004" type="line"/>
      <point x="457" y="164" type="line"/>
      <point x="454" y="146"/>
      <point x="454" y="129" type="qcurve"/>
      <point x="454" y="109"/>
      <point x="477" y="82"/>
      <point x="515" y="82" type="qcurve"/>
      <point x="495" y="-30" type="line"/>
      <point x="481" y="-30"/>
      <point x="455" y="-29"/>
      <point x="442" y="-28" type="qcurve"/>
      <point x="413" y="-46"/>
      <point x="352" y="-86"/>
      <point x="302" y="-133"/>
      <point x="271" y="-191"/>
      <point x="271" y="-227" type="qcurve"/>
      <point x="271" y="-265"/>
      <point x="320" y="-308"/>
      <point x="352" y="-308" type="qcurve"/>
      <point x="383" y="-308"/>
      <point x="432" y="-284"/>
      <point x="452" y="-270" type="qcurve"/>
      <point x="476" y="-407" type="line"/>
      <point x="429" y="-428"/>
      <point x="353" y="-450"/>
      <point x="308" y="-450" type="qcurve"/>
      <point x="255" y="-450"/>
      <point x="180" y="-423"/>
      <point x="132" y="-376"/>
      <point x="109" y="-315"/>
      <point x="109" y="-280" type="qcurve"/>
      <point x="109" y="-198"/>
      <point x="213" y="-68"/>
      <point x="308" y="-6" type="qcurve"/>
      <point x="247" y="16"/>
      <point x="182" y="105"/>
      <point x="182" y="170" type="qcurve"/>
      <point x="182" y="187"/>
      <point x="188" y="231"/>
      <point x="190" y="245" type="qcurve"/>
    </contour>
    <contour>
      <point x="369" y="1288" type="qcurve"/>
      <point x="369" y="1318"/>
      <point x="392" y="1372"/>
      <point x="431" y="1411"/>
      <point x="485" y="1434"/>
      <point x="515" y="1434" type="qcurve"/>
      <point x="545" y="1434"/>
      <point x="599" y="1411"/>
      <point x="638" y="1372"/>
      <point x="661" y="1318"/>
      <point x="661" y="1288" type="qcurve"/>
      <point x="661" y="1258"/>
      <point x="638" y="1204"/>
      <point x="599" y="1165"/>
      <point x="545" y="1142"/>
      <point x="515" y="1142" type="qcurve"/>
      <point x="485" y="1142"/>
      <point x="431" y="1165"/>
      <point x="392" y="1204"/>
      <point x="369" y="1258"/>
    </contour>
  </outline>
</glyph>
<glyph name="jcircumflex" format="2">
  <advance width="576"/>
  <unicode hex="0135"/>
  <outline>
    <contour>
      <point x="443" y="1464" type="line"/>
      <point x="651" y="1464" type="line"/>
      <point x="810" y="1129" type="line"/>
      <point x="683" y="1099" type="line"/>
      <point x="518" y="1302" type="line"/>
      <point x="281" y="1099" type="line"/>
      <point x="166" y="1129" type="line"/>
    </contour>
    <contour>
      <point x="323" y="974" type="line"/>
      <point x="551" y="1004" type="line"/>
      <point x="611" y="1004" type="line"/>
      <point x="420" y="-76" type="line"/>
      <point x="398" y="-202"/>
      <point x="323" y="-362"/>
      <point x="206" y="-455"/>
      <point x="41" y="-490"/>
      <point x="-69" y="-490" type="qcurve"/>
      <point x="-29" y="-378" type="line"/>
      <point x="3" y="-378"/>
      <point x="50" y="-363"/>
      <point x="84" y="-323"/>
      <point x="107" y="-250"/>
      <point x="118" y="-191" type="qcurve"/>
    </contour>
  </outline>
</glyph>
<glyph name="kgreenlandic" format="2">
  <advance width="1024"/>
  <unicode hex="0138"/>
  <outline>
    <contour>
      <point x="271" y="974" type="line"/>
      <point x="499" y="1004" type="line"/>
      <point x="559" y="1004" type="line"/>
      <point x="482" y="571" type="line"/>
      <point x="992" y="1004" type="line"/>
      <point x="1132" y="973" type="line"/>
      <point x="738" y="638" type="line"/>
      <point x="1024" y="0" type="line"/>
      <point x="728" y="-30" type="line"/>
      <point x="515" y="449" type="line"/>
      <point x="451" y="396" type="line"/>
      <point x="382" y="0" type="line"/>
      <point x="100" y="0" type="line"/>
    </contour>
  </outline>
</glyph>
<glyph name="Lslash" format="2">
  <advance width="1088"/>
  <unicode hex="0141"/>
  <outline>
    <contour>
      <point x="382" y="1434" type="line"/>
      <point x="700" y="1464" type="line"/>
      <point x="607" y="937" type="line"/>
      <point x="723" y="1004" type="line"/>
      <point x="723" y="813" type="line"/>
      <point x="569" y="724" type="line"/>
      <point x="463" y="122" type="line"/>
      <point x="1041" y="162" type="line"/>
      <point x="1013" y="0" type="line"/>
      <point x="130" y="0" type="line"/>
      <point x="222" y="524" type="line"/>
      <point x="106" y="457" type="line"/>
      <point x="106" y="648" type="line"/>
      <point x="259" y="736" type="line"/>
    </contour>
  </outline>
</glyph>
<glyph name="lslash" format="2">
  <advance width="576"/>
  <unicode hex="0142"/>
  <outline>
    <contour>
      <point x="680" y="1494" type="line"/>
      <point x="580" y="927" type="line"/>
      <point x="713" y="1004" type="line"/>
      <point x="713" y="813" type="line"/>
      <point x="542" y="714" type="line"/>
      <point x="464" y="269" type="line"/>
      <point x="458" y="233"/>
      <point x="458" y="204" type="qcurve"/>
      <point x="458" y="173"/>
      <point x="478" y="127"/>
      <point x="514" y="97"/>
      <point x="562" y="82"/>
      <point x="590" y="82" type="qcurve"/>
      <point x="570" y="-30" type="line"/>
      <point x="457" y="-30"/>
      <point x="307" y="-3"/>
      <point x="218" y="54"/>
      <point x="181" y="142"/>
      <point x="181" y="203" type="qcurve"/>
      <point x="181" y="233"/>
      <point x="188" y="303"/>
      <point x="195" y="342" type="qcurve"/>
      <point x="229" y="533" type="line"/>
      <point x="96" y="457" type="line"/>
      <point x="96" y="648" type="line"/>
      <point x="266" y="746" type="line"/>
      <point x="393" y="1464" type="line"/>
      <point x="620" y="1494" type="line"/>
    </contour>
  </outline>
</glyph>
<glyph name="Eng" format="2">
  <advance width="1504"/>
  <unicode hex="014A"/>
  <outline>
    <contour>
      <point x="380" y="1434" type="line"/>
      <point x="548" y="1464" type="line"/>
      <point x="1291" y="437" type="line"/>
      <point x="1474" y="1464" type="line"/>
      <point x="1630" y="1434" type="line"/>
      <point x="1364" y="-76" type="line"/>
      <point x="1346" y="-177"/>
      <point x="1297" y="-331"/>
      <point x="1215" y="-436"/>
      <point x="1088" y="-490"/>
      <point x="992" y="-490" type="qcurve"/>
      <point x="1012" y="-378" type="line"/>
      <point x="1146" y="-378"/>
      <point x="1180" y="-191" type="qcurve"/>
      <point x="1214" y="0" type="line"/>
      <point x="470" y="1026" type="line"/>
      <point x="290" y="0" type="line"/>
      <point x="128" y="0" type="line"/>
    </contour>
  </outline>
</glyph>
<glyph name="eng" format="2">
  <advance width="1120"/>
  <unicode hex="014B"/>
  <outline>
    <contour>
      <point x="266" y="944" type="line"/>
      <point x="493" y="974" type="line"/>
      <point x="553" y="974" type="line"/>
      <point x="539" y="892" type="line"/>
      <point x="569" y="914"/>
      <point x="640" y="955"/>
      <point x="717" y="986"/>
      <point x="797" y="1004"/>
      <point x="836" y="1004" type="qcurve"/>
      <point x="907" y="1004"/>
      <point x="1019" y="970"/>
      <point x="1097" y="906"/>
      <point x="1138" y="813"/>
      <point x="1138" y="753" type="qcurve"/>
      <point x="1138" y="736"/>
      <point x="1135" y="700"/>
      <point x="1131" y="680" type="qcurve"/>
      <point x="998" y="-76" type="line"/>
      <point x="976" y="-199"/>
      <point x="907" y="-359"/>
      <point x="793" y="-453"/>
      <point x="626" y="-490"/>
      <point x="508" y="-490" type="qcurve"/>
      <point x="528" y="-378" type="line"/>
      <point x="569" y="-378"/>
      <point x="624" y="-363"/>
      <point x="661" y="-322"/>
      <point x="686" y="-249"/>
      <point x="696" y="-191" type="qcurve"/>
      <point x="857" y="724" type="line"/>
      <point x="859" y="738"/>
      <point x="862" y="764"/>
      <point x="862" y="776" type="qcurve"/>
      <point x="862" y="831"/>
      <point x="802" y="892"/>
      <point x="747" y="892" type="qcurve"/>
      <point x="714" y="892"/>
      <point x="647" y="868"/>
      <point x="585" y="832"/>
      <point x="534" y="789"/>
      <point x="517" y="770" type="qcurve"/>
      <point x="382" y="0" type="line"/>
      <point x="100" y="0" type="line"/>
    </contour>
  </outline>
</glyph>
<glyph name="OE" format="2">
  <advance width="1888"/>
  <unicode hex="0152"/>
  <outline>
    <contour>
      <point x="797" y="-30" type="qcurve"/>
      <point x="673" y="-30"/>
      <point x="450" y="53"/>
      <point x="282" y="209"/>
      <point x="184" y="433"/>
      <point x="184" y="574" type="qcurve"/>
      <point x="184" y="691"/>
      <point x="249" y="915"/>
      <point x="367" y="1113"/>
      <point x="530" y="1278"/>
      <point x="724" y="1397"/>
      <point x="945" y="1464"/>
      <point x="1061" y="1464" type="qcurve"/>
      <point x="1113" y="1464"/>
      <point x="1220" y="1448"/>
      <point x="1268" y="1434" type="qcurve"/>
      <point x="2039" y="1434" type="line"/>
      <point x="2012" y="1272" type="line"/>
      <point x="1476" y="1312" type="line"/>
      <point x="1396" y="859" type="line"/>
      <point x="1836" y="859" type="line"/>
      <point x="1810" y="717" type="line"/>
      <point x="1371" y="717" type="line"/>
      <point x="1266" y="122" type="line"/>
      <point x="1844" y="162" type="line"/>
      <point x="1817" y="0" type="line"/>
      <point x="1016" y="0" type="line"/>
      <point x="962" y="-15"/>
      <point x="851" y="-30"/>
    </contour>
    <contour>
      <point x="1036" y="1322" type="qcurve"/>
      <point x="962" y="1322"/>
      <point x="825" y="1261"/>
      <point x="705" y="1153"/>
      <point x="606" y="1003"/>
      <point x="535" y="826"/>
      <point x="496" y="627"/>
      <point x="496" y="524" type="qcurve"/>
      <point x="496" y="422"/>
      <point x="544" y="267"/>
      <point x="630" y="164"/>
      <point x="751" y="112"/>
      <point x="823" y="112" type="qcurve"/>
      <point x="895" y="112"/>
      <point x="957" y="137" type="qcurve"/>
      <point x="1162" y="1301" type="line"/>
      <point x="1132" y="1314"/>
      <point x="1069" y="1322"/>
    </contour>
  </outline>
</glyph>
<glyph name="oe" format="2">
  <advance width="1824"/>
  <unicode hex="0153"/>
  <outline>
    <contour>
      <point x="1367" y="82" type="qcurve"/>
      <point x="1407" y="82"/>
      <point x="1481" y="109"/>
      <point x="1546" y="152"/>
      <point x="1601" y="206"/>
      <point x="1623" y="234" type="qcurve"/>
      <point x="1716" y="122" type="line"/>
      <point x="1681" y="90"/>
      <point x="1596" y="34"/>
      <point x="1497" y="-7"/>
      <point x="1383" y="-30"/>
      <point x="1317" y="-30" type="qcurve"/>
      <point x="1205" y="-30"/>
      <point x="1029" y="42"/>
      <point x="977" y="108" type="qcurve"/>
      <point x="899" y="42"/>
      <point x="696" y="-30"/>
      <point x="581" y="-30" type="qcurve"/>
      <point x="479" y="-30"/>
      <point x="321" y="29"/>
      <point x="213" y="135"/>
      <point x="157" y="285"/>
      <point x="157" y="375" type="qcurve"/>
      <point x="157" y="461"/>
      <point x="199" y="622"/>
      <point x="277" y="761"/>
      <point x="386" y="876"/>
      <point x="521" y="959"/>
      <point x="678" y="1004"/>
      <point x="764" y="1004" type="qcurve"/>
      <point x="879" y="1004"/>
      <point x="1058" y="929"/>
      <point x="1113" y="863" type="qcurve"/>
      <point x="1191" y="929"/>
      <point x="1395" y="1004"/>
      <point x="1510" y="1004" type="qcurve"/>
      <point x="1572" y="1004"/>
      <point x="1691" y="964"/>
      <point x="1784" y="875"/>
      <point x="1841" y="734"/>
      <point x="1841" y="632" type="qcurve"/>
      <point x="1841" y="599"/>
      <point x="1834" y="527"/>
      <point x="1827" y="487" type="qcurve"/>
      <point x="1186" y="487" type="line"/>
      <point x="1179" y="448"/>
      <point x="1173" y="379"/>
      <point x="1173" y="348" type="qcurve"/>
      <point x="1173" y="273"/>
      <point x="1207" y="171"/>
      <point x="1262" y="109"/>
      <point x="1332" y="82"/>
    </contour>
    <contour>
      <point x="744" y="892" type="qcurve"/>
      <point x="698" y="892"/>
      <point x="619" y="842"/>
      <point x="553" y="757"/>
      <point x="502" y="644"/>
      <point x="467" y="518"/>
      <point x="449" y="384"/>
      <point x="449" y="322" type="qcurve"/>
      <point x="449" y="207"/>
      <point x="522" y="82"/>
      <point x="601" y="82" type="qcurve"/>
      <point x="646" y="82"/>
      <point x="727" y="129"/>
      <point x="796" y="211"/>
      <point x="851" y="320"/>
      <point x="890" y="444"/>
      <point x="911" y="576"/>
      <point x="911" y="639" type="qcurve"/>
      <point x="911" y="760"/>
      <point x="825" y="892"/>
    </contour>
    <contour>
      <point x="1480" y="892" type="qcurve"/>
      <point x="1440" y="892"/>
      <point x="1354" y="855"/>
      <point x="1278" y="781"/>
      <point x="1219" y="671"/>
      <point x="1206" y="599" type="qcurve"/>
      <point x="1608" y="599" type="line"/>
      <point x="1613" y="630"/>
      <point x="1619" y="684"/>
      <point x="1619" y="708" type="qcurve"/>
      <point x="1619" y="756"/>
      <point x="1597" y="826"/>
      <point x="1560" y="871"/>
      <point x="1509" y="892"/>
    </contour>
  </outline>
</glyph>
<glyph name="Scedilla" format="2">
  <advance width="1152"/>
  <unicode hex="015E"/>
  <outline>
    <contour>
      <point x="1251" y="1235" type="qcurve"/>
      <point x="1128" y="1113" type="line"/>
      <point x="1110" y="1150"/>
      <point x="1055" y="1224"/>
      <point x="983" y="1284"/>
      <point x="897" y="1322"/>
      <point x="849" y="1322" type="qcurve"/>
      <point x="798" y="1322"/>
      <point x="718" y="1286"/>
      <point x="663" y="1224"/>
      <point x="634" y="1142"/>
      <point x="634" y="1097" type="qcurve"/>
      <point x="634" y="1059"/>
      <point x="648" y="993"/>
      <point x="690" y="933"/>
      <point x="766" y="880"/>
      <point x="828" y="856" type="qcurve"/>
      <point x="974" y="801"/>
      <point x="1124" y="603"/>
      <point x="1124" y="474" type="qcurve"/>
      <point x="1124" y="369"/>
      <point x="1044" y="198"/>
      <point x="913" y="71"/>
      <point x="744" y="-9"/>
      <point x="654" y="-22" type="qcurve"/>
      <point x="638" y="-72" type="line"/>
      <point x="659" y="-75"/>
      <point x="704" y="-98"/>
      <point x="742" y="-137"/>
      <point x="767" y="-195"/>
      <point x="767" y="-232" type="qcurve"/>
      <point x="767" y="-295"/>
      <point x="712" y="-391"/>
      <point x="624" y="-456"/>
      <point x="515" y="-490"/>
      <point x="461" y="-490" type="qcurve"/>
      <point x="412" y="-490"/>
      <point x="337" y="-465"/>
      <point x="281" y="-428"/>
      <point x="245" y="-386"/>
      <point x="235" y="-368" type="qcurve"/>
      <point x="334" y="-270" type="line"/>
      <point x="351" y="-315"/>
      <point x="403" y="-368"/>
      <point x="441" y="-368" type="qcurve"/>
      <point x="471" y="-368"/>
      <point x="519" y="-348"/>
      <point x="551" y="-314"/>
      <point x="568" y="-268"/>
      <point x="568" y="-242" type="qcurve"/>
      <point x="568" y="-216"/>
      <point x="550" y="-169"/>
      <point x="515" y="-134"/>
      <point x="466" y="-113"/>
      <point x="435" y="-113" type="qcurve"/>
      <point x="469" y="-24" type="line"/>
      <point x="416" y="-17"/>
      <point x="313" y="22"/>
      <point x="221" y="80"/>
      <point x="143" y="155"/>
      <point x="113" y="199" type="qcurve"/>
      <point x="235" y="321" type="line"/>
      <point x="260" y="282"/>
      <point x="329" y="206"/>
      <point x="413" y="148"/>
      <point x="511" y="112"/>
      <point x="566" y="112" type="qcurve"/>
      <point x="624" y="112"/>
      <point x="722" y="152"/>
      <point x="793" y="222"/>
      <point x="832" y="316"/>
      <point x="832" y="370" type="qcurve"/>
      <point x="832" y="410"/>
      <point x="814" y="483"/>
      <point x="765" y="549"/>
      <point x="679" y="607"/>
      <point x="612" y="631" type="qcurve"/>
      <point x="557" y="651"/>
      <point x="462" y="721"/>
      <point x="392" y="814"/>
      <point x="352" y="927"/>
      <point x="352" y="990" type="qcurve"/>
      <point x="352" y="1097"/>
      <point x="434" y="1272"/>
      <point x="573" y="1396"/>
      <point x="755" y="1464"/>
      <point x="855" y="1464" type="qcurve"/>
      <point x="930" y="1464"/>
      <point x="1053" y="1425"/>
      <point x="1152" y="1361"/>
      <point x="1226" y="1278"/>
    </contour>
  </outline>
</glyph>
<glyph name="Tcommaaccent" format="2">
  <advance width="1152"/>
  <unicode hex="0162"/>
  <outline>
    <contour>
      <point x="282" y="1434" type="line"/>
      <point x="1374" y="1434" type="line"/>
      <point x="1346" y="1272" type="line"/>
      <point x="963" y="1312" type="line"/>
      <point x="732" y="0" type="line"/>
      <point x="592" y="0" type="line"/>
      <point x="579" y="-72" type="line"/>
      <point x="600" y="-75"/>
      <point x="646" y="-98"/>
      <point x="685" y="-137"/>
      <point x="711" y="-195"/>
      <point x="711" y="-232" type="qcurve"/>
      <point x="711" y="-295"/>
      <point x="655" y="-391"/>
      <point x="566" y="-456"/>
      <point x="456" y="-490"/>
      <point x="402" y="-490" type="qcurve"/>
      <point x="353" y="-490"/>
      <point x="278" y="-465"/>
      <point x="222" y="-428"/>
      <point x="186" y="-386"/>
      <point x="176" y="-368" type="qcurve"/>
      <point x="275" y="-270" type="line"/>
      <point x="292" y="-315"/>
      <point x="344" y="-368"/>
      <point x="382" y="-368" type="qcurve"/>
      <point x="412" y="-368"/>
      <point x="460" y="-348"/>
      <point x="492" y="-314"/>
      <point x="509" y="-268"/>
      <point x="509" y="-242" type="qcurve"/>
      <point x="509" y="-195"/>
      <point x="453" y="-123"/>
      <point x="401" y="-115" type="qcurve"/>
      <point x="651" y="1313" type="line"/>
      <point x="253" y="1272" type="line"/>
    </contour>
  </outline>
</glyph>
<glyph name="tcommaaccent" format="2">
  <advance width="736"/>
  <unicode hex="0163"/>
  <guideline x="573" y="0" angle="90"/>
  <guideline x="649" y="0" angle="80"/>
  <outline>
    <contour>
      <point x="647" y="1004" type="line" name="hr00"/>
      <point x="825" y="1004" type="line" name="ah02"/>
      <point x="801" y="865" type="line"/>
      <point x="623" y="873" type="line" name="dh02"/>
      <point x="517" y="269" type="line" name="sh01"/>
      <point x="514" y="251"/>
      <point x="510" y="219"/>
      <point x="510" y="205" type="qcurve"/>
      <point x="510" y="142"/>
      <point x="581" y="82"/>
      <point x="663" y="82" type="qcurve"/>
      <point x="643" y="-30" type="line" name="ab01"/>
      <point x="598" y="-30"/>
      <point x="523" y="-27"/>
      <point x="491" y="-23" type="qcurve" name="ab02"/>
      <point x="476" y="-72" type="line"/>
      <point x="497" y="-75"/>
      <point x="542" y="-98"/>
      <point x="580" y="-137"/>
      <point x="605" y="-195"/>
      <point x="605" y="-232" type="qcurve" name="sh02"/>
      <point x="605" y="-295"/>
      <point x="550" y="-391"/>
      <point x="462" y="-456"/>
      <point x="353" y="-490"/>
      <point x="299" y="-490" type="qcurve" name="ab03"/>
      <point x="250" y="-490"/>
      <point x="175" y="-465"/>
      <point x="119" y="-428"/>
      <point x="83" y="-386"/>
      <point x="73" y="-368" type="qcurve"/>
      <point x="172" y="-270" type="line" name="iv01"/>
      <point x="189" y="-315"/>
      <point x="241" y="-368"/>
      <point x="279" y="-368" type="qcurve" name="sv01"/>
      <point x="309" y="-368"/>
      <point x="356" y="-348"/>
      <point x="387" y="-314"/>
      <point x="403" y="-268"/>
      <point x="403" y="-242" type="qcurve" name="ih01"/>
      <point x="403" y="-216"/>
      <point x="386" y="-169"/>
      <point x="353" y="-134"/>
      <point x="304" y="-113"/>
      <point x="273" y="-113" type="qcurve" name="iv02"/>
      <point x="324" y="21" type="line"/>
      <point x="271" y="49"/>
      <point x="234" y="142"/>
      <point x="234" y="203" type="qcurve"/>
      <point x="234" y="233"/>
      <point x="241" y="303"/>
      <point x="248" y="342" type="qcurve" name="sh03"/>
      <point x="344" y="885" type="line" name="dh01"/>
      <point x="209" y="892" type="line" name="ah01"/>
      <point x="229" y="1004" type="line"/>
      <point x="365" y="1004" type="line"/>
      <point x="415" y="1292" type="line" name="sh04"/>
      <point x="643" y="1322" type="line" name="av01"/>
      <point x="703" y="1322" type="line" name="sh05"/>
    </contour>
  </outline>
</glyph>
<glyph name="Tbar" format="2">
  <advance width="1152"/>
  <unicode hex="0166"/>
  <outline>
    <contour>
      <point x="282" y="1434" type="line"/>
      <point x="1374" y="1434" type="line"/>
      <point x="1346" y="1272" type="line"/>
      <point x="963" y="1312" type="line"/>
      <point x="883" y="859" type="line"/>
      <point x="1121" y="859" type="line"/>
      <point x="1096" y="717" type="line"/>
      <point x="858" y="717" type="line"/>
      <point x="732" y="0" type="line"/>
      <point x="420" y="0" type="line"/>
      <point x="546" y="717" type="line"/>
      <point x="312" y="717" type="line"/>
      <point x="338" y="859" type="line"/>
      <point x="571" y="859" type="line"/>
      <point x="651" y="1313" type="line"/>
      <point x="253" y="1272" type="line"/>
    </contour>
  </outline>
</glyph>
<glyph name="tbar" format="2">
  <advance width="736"/>
  <unicode hex="0167"/>
  <outline>
    <contour>
      <point x="161" y="609" type="line"/>
      <point x="295" y="609" type="line"/>
      <point x="344" y="885" type="line"/>
      <point x="209" y="892" type="line"/>
      <point x="229" y="1004" type="line"/>
      <point x="365" y="1004" type="line"/>
      <point x="415" y="1292" type="line"/>
      <point x="643" y="1322" type="line"/>
      <point x="703" y="1322" type="line"/>
      <point x="647" y="1004" type="line"/>
      <point x="825" y="1004" type="line"/>
      <point x="801" y="865" type="line"/>
      <point x="623" y="873" type="line"/>
      <point x="577" y="609" type="line"/>
      <point x="756" y="609" type="line"/>
      <point x="734" y="487" type="line"/>
      <point x="555" y="487" type="line"/>
      <point x="517" y="269" type="line"/>
      <point x="514" y="251"/>
      <point x="510" y="219"/>
      <point x="510" y="205" type="qcurve"/>
      <point x="510" y="142"/>
      <point x="581" y="82"/>
      <point x="663" y="82" type="qcurve"/>
      <point x="643" y="-30" type="line"/>
      <point x="522" y="-30"/>
      <point x="364" y="-3"/>
      <point x="271" y="54"/>
      <point x="234" y="142"/>
      <point x="234" y="203" type="qcurve"/>
      <point x="234" y="233"/>
      <point x="241" y="303"/>
      <point x="248" y="342" type="qcurve"/>
      <point x="273" y="487" type="line"/>
      <point x="138" y="487" type="line"/>
    </contour>
  </outline>
</glyph>
<glyph name="Uogonek" format="2">
  <advance width="1504"/>
  <unicode hex="0172"/>
  <outline>
    <contour>
      <point x="980" y="-407" type="line"/>
      <point x="933" y="-428"/>
      <point x="857" y="-450"/>
      <point x="812" y="-450" type="qcurve"/>
      <point x="759" y="-450"/>
      <point x="684" y="-423"/>
      <point x="636" y="-376"/>
      <point x="613" y="-315"/>
      <point x="613" y="-280" type="qcurve"/>
      <point x="613" y="-239"/>
      <point x="639" y="-167"/>
      <point x="682" y="-105"/>
      <point x="741" y="-52"/>
      <point x="774" y="-30" type="qcurve"/>
      <point x="658" y="-30"/>
      <point x="458" y="28"/>
      <point x="310" y="147"/>
      <point x="225" y="326"/>
      <point x="225" y="446" type="qcurve"/>
      <point x="225" y="507"/>
      <point x="237" y="578" type="qcurve"/>
      <point x="388" y="1434" type="line"/>
      <point x="706" y="1464" type="line"/>
      <point x="536" y="500" type="line"/>
      <point x="529" y="465"/>
      <point x="529" y="422" type="qcurve"/>
      <point x="529" y="345"/>
      <point x="583" y="229"/>
      <point x="674" y="151"/>
      <point x="791" y="112"/>
      <point x="854" y="112" type="qcurve"/>
      <point x="942" y="112"/>
      <point x="1091" y="171"/>
      <point x="1205" y="280"/>
      <point x="1282" y="435"/>
      <point x="1299" y="530" type="qcurve"/>
      <point x="1464" y="1464" type="line"/>
      <point x="1620" y="1434" type="line"/>
      <point x="1468" y="568" type="line"/>
      <point x="1451" y="469"/>
      <point x="1375" y="289"/>
      <point x="1258" y="140"/>
      <point x="1101" y="30"/>
      <point x="1004" y="0" type="qcurve"/>
      <point x="968" y="-17"/>
      <point x="887" y="-61"/>
      <point x="820" y="-117"/>
      <point x="775" y="-186"/>
      <point x="775" y="-227" type="qcurve"/>
      <point x="775" y="-265"/>
      <point x="824" y="-308"/>
      <point x="856" y="-308" type="qcurve"/>
      <point x="887" y="-308"/>
      <point x="936" y="-284"/>
      <point x="956" y="-270" type="qcurve"/>
    </contour>
  </outline>
</glyph>
<glyph name="uogonek" format="2">
  <advance width="1120"/>
  <unicode hex="0173"/>
  <anchor x="560" y="1100" name="AccentDefault"/>
  <outline>
    <contour>
      <point x="1059" y="-407" type="line"/>
      <point x="1012" y="-428"/>
      <point x="936" y="-450"/>
      <point x="891" y="-450" type="qcurve"/>
      <point x="838" y="-450"/>
      <point x="763" y="-423"/>
      <point x="715" y="-376"/>
      <point x="692" y="-315"/>
      <point x="692" y="-280" type="qcurve"/>
      <point x="692" y="-198"/>
      <point x="795" y="-69"/>
      <point x="885" y="-9" type="qcurve"/>
      <point x="842" y="5"/>
      <point x="791" y="49"/>
      <point x="775" y="82" type="qcurve"/>
      <point x="747" y="62"/>
      <point x="678" y="22"/>
      <point x="597" y="-10"/>
      <point x="505" y="-30"/>
      <point x="456" y="-30" type="qcurve"/>
      <point x="391" y="-30"/>
      <point x="278" y="-1"/>
      <point x="194" y="60"/>
      <point x="146" y="157"/>
      <point x="146" y="226" type="qcurve"/>
      <point x="146" y="259"/>
      <point x="152" y="298" type="qcurve"/>
      <point x="271" y="974" type="line"/>
      <point x="499" y="1004" type="line"/>
      <point x="559" y="1004" type="line"/>
      <point x="427" y="258" type="line"/>
      <point x="421" y="223"/>
      <point x="421" y="198" type="qcurve"/>
      <point x="421" y="163"/>
      <point x="439" y="118"/>
      <point x="468" y="92"/>
      <point x="502" y="82"/>
      <point x="518" y="82" type="qcurve"/>
      <point x="554" y="82"/>
      <point x="624" y="100"/>
      <point x="688" y="131"/>
      <point x="744" y="174"/>
      <point x="765" y="199" type="qcurve"/>
      <point x="901" y="974" type="line"/>
      <point x="1129" y="1004" type="line"/>
      <point x="1189" y="1004" type="line"/>
      <point x="1041" y="165" type="line"/>
      <point x="1036" y="145"/>
      <point x="1036" y="130" type="qcurve"/>
      <point x="1036" y="106"/>
      <point x="1065" y="82"/>
      <point x="1098" y="82" type="qcurve"/>
      <point x="1078" y="-30" type="line"/>
      <point x="1064" y="-30"/>
      <point x="1037" y="-30"/>
      <point x="1024" y="-29" type="qcurve"/>
      <point x="988" y="-49"/>
      <point x="926" y="-92"/>
      <point x="880" y="-142"/>
      <point x="854" y="-197"/>
      <point x="854" y="-227" type="qcurve"/>
      <point x="854" y="-265"/>
      <point x="903" y="-308"/>
      <point x="935" y="-308" type="qcurve"/>
      <point x="966" y="-308"/>
      <point x="1015" y="-284"/>
      <point x="1035" y="-270" type="qcurve"/>
    </contour>
  </outline>
</glyph>
<glyph name="longs" format="2">
  <advance width="576"/>
  <unicode hex="017F"/>
  <outline>
    <contour>
      <point x="417" y="0" type="line"/>
      <point x="135" y="0" type="line"/>
      <point x="313" y="1012" type="line"/>
      <point x="331" y="1114"/>
      <point x="398" y="1281"/>
      <point x="521" y="1399"/>
      <point x="712" y="1464"/>
      <point x="854" y="1464" type="qcurve"/>
      <point x="834" y="1352" type="line"/>
      <point x="780" y="1352"/>
      <point x="704" y="1315"/>
      <point x="653" y="1252"/>
      <point x="622" y="1168"/>
      <point x="614" y="1120" type="qcurve"/>
    </contour>
  </outline>
</glyph>
<glyph name="florin" format="2">
  <advance width="1024"/>
  <unicode hex="0192"/>
  <outline>
    <contour>
      <point x="488" y="731" type="line"/>
      <point x="362" y="738" type="line"/>
      <point x="382" y="848" type="line"/>
      <point x="533" y="848" type="line"/>
      <point x="606" y="1050" type="line"/>
      <point x="697" y="1303"/>
      <point x="1043" y="1546"/>
      <point x="1298" y="1546" type="qcurve"/>
      <point x="1278" y="1434" type="line"/>
      <point x="1207" y="1434"/>
      <point x="1092" y="1374"/>
      <point x="999" y="1269"/>
      <point x="925" y="1126"/>
      <point x="895" y="1042" type="qcurve"/>
      <point x="826" y="848" type="line"/>
      <point x="1006" y="848" type="line"/>
      <point x="979" y="708" type="line"/>
      <point x="777" y="718" type="line"/>
      <point x="521" y="4" type="line"/>
      <point x="474" y="-126"/>
      <point x="341" y="-313"/>
      <point x="168" y="-433"/>
      <point x="-45" y="-490"/>
      <point x="-172" y="-490" type="qcurve"/>
      <point x="-152" y="-378" type="line"/>
      <point x="-82" y="-378"/>
      <point x="32" y="-320"/>
      <point x="127" y="-217"/>
      <point x="202" y="-73"/>
      <point x="233" y="14" type="qcurve"/>
    </contour>
  </outline>
</glyph>
<glyph name="uni019E" format="2">
  <advance width="1120"/>
  <unicode hex="019E"/>
  <outline>
    <contour>
      <point x="266" y="944" type="line"/>
      <point x="493" y="974" type="line"/>
      <point x="553" y="974" type="line"/>
      <point x="539" y="892" type="line"/>
      <point x="569" y="914"/>
      <point x="640" y="955"/>
      <point x="717" y="986"/>
      <point x="797" y="1004"/>
      <point x="836" y="1004" type="qcurve"/>
      <point x="907" y="1004"/>
      <point x="1019" y="970"/>
      <point x="1097" y="906"/>
      <point x="1138" y="812"/>
      <point x="1138" y="752" type="qcurve"/>
      <point x="1138" y="733"/>
      <point x="1134" y="697"/>
      <point x="1131" y="680" type="qcurve"/>
      <point x="930" y="-460" type="line"/>
      <point x="703" y="-490" type="line"/>
      <point x="643" y="-490" type="line"/>
      <point x="857" y="724" type="line"/>
      <point x="859" y="738"/>
      <point x="862" y="764"/>
      <point x="862" y="776" type="qcurve"/>
      <point x="862" y="827"/>
      <point x="799" y="892"/>
      <point x="744" y="892" type="qcurve"/>
      <point x="711" y="892"/>
      <point x="644" y="868"/>
      <point x="584" y="832"/>
      <point x="534" y="789"/>
      <point x="517" y="770" type="qcurve"/>
      <point x="382" y="0" type="line"/>
      <point x="100" y="0" type="line"/>
    </contour>
  </outline>
</glyph>
<glyph name="uni0250" format="2">
  <advance width="1024"/>
  <unicode hex="0250"/>
  <outline>
    <contour>
      <point x="229" y="1004" type="line"/>
      <point x="314" y="1004"/>
      <point x="423" y="981"/>
      <point x="489" y="946"/>
      <point x="521" y="903"/>
      <point x="531" y="882" type="qcurve"/>
      <point x="579" y="933"/>
      <point x="737" y="1004"/>
      <point x="849" y="1004" type="qcurve"/>
      <point x="913" y="1004"/>
      <point x="1016" y="970"/>
      <point x="1088" y="908"/>
      <point x="1127" y="821"/>
      <point x="1127" y="768" type="qcurve"/>
      <point x="1127" y="668"/>
      <point x="1034" y="515"/>
      <point x="863" y="412"/>
      <point x="619" y="359"/>
      <point x="469" y="359" type="qcurve"/>
      <point x="451" y="256" type="line"/>
      <point x="447" y="237"/>
      <point x="447" y="218" type="qcurve"/>
      <point x="447" y="180"/>
      <point x="475" y="128"/>
      <point x="519" y="96"/>
      <point x="571" y="82"/>
      <point x="594" y="82" type="qcurve"/>
      <point x="622" y="82"/>
      <point x="685" y="98"/>
      <point x="753" y="134"/>
      <point x="824" y="192"/>
      <point x="859" y="234" type="qcurve"/>
      <point x="971" y="122" type="line"/>
      <point x="776" y="-30"/>
      <point x="544" y="-30" type="qcurve"/>
      <point x="468" y="-30"/>
      <point x="335" y="7"/>
      <point x="236" y="82"/>
      <point x="178" y="195"/>
      <point x="178" y="272" type="qcurve"/>
      <point x="178" y="306"/>
      <point x="184" y="345" type="qcurve"/>
      <point x="269" y="824" type="line"/>
      <point x="270" y="829"/>
      <point x="271" y="838"/>
      <point x="271" y="843" type="qcurve"/>
      <point x="271" y="867"/>
      <point x="242" y="892"/>
      <point x="209" y="892" type="qcurve"/>
    </contour>
    <contour>
      <point x="487" y="461" type="line"/>
      <point x="557" y="468"/>
      <point x="684" y="513"/>
      <point x="779" y="591"/>
      <point x="835" y="701"/>
      <point x="835" y="772" type="qcurve"/>
      <point x="835" y="829"/>
      <point x="787" y="892"/>
      <point x="746" y="892" type="qcurve"/>
      <point x="710" y="892"/>
      <point x="648" y="872"/>
      <point x="597" y="840"/>
      <point x="557" y="799"/>
      <point x="543" y="777" type="qcurve"/>
    </contour>
  </outline>
</glyph>
